<svg xmlns="http://www.w3.org/2000/svg" width="47" height="29" viewBox="0 0 47 29" fill="none">
  <g clip-path="url(#clip0_418_14126)">
    <path d="M46.4342 1.92264C46.3225 1.89656 45.8418 1.49414 45.6033 1.08428C45.3351 0.625971 45.0705 0.208651 44.7687 0.119225C44.7016 0.100595 44.6346 0.0894165 44.5638 0.0894165C44.4408 0.0894165 44.3253 0.119225 44.1874 0.15276C44.098 0.175116 43.9974 0.201199 43.8782 0.223555C43.4646 0.298076 43.2298 0.700492 43.2298 1.32647C43.2298 1.7736 43.1963 2.6306 42.9839 3.34973C42.8609 3.75587 41.7841 3.88256 41.0724 3.96826C40.6514 4.01669 40.3198 4.05768 40.1558 4.13965C39.8615 4.28497 39.7907 4.43401 39.7273 4.56443C39.6863 4.65013 39.6491 4.72092 39.5522 4.81035C39.5224 4.83643 39.5 4.85133 39.4851 4.86251L39.4143 4.81407L39.3398 4.9184C39.2727 5.01528 38.9225 5.51085 38.6393 5.79403C38.3636 6.06976 38.14 6.18899 37.9015 6.18899C37.8866 6.18899 37.8755 6.18899 37.8717 6.18899C37.8643 6.17409 37.8643 6.1331 37.8606 6.11447C37.8606 6.06231 37.8494 5.89836 37.6966 5.89463H37.6892C37.6407 5.89463 37.5923 5.91699 37.5625 5.95425C37.4954 6.0325 37.4954 6.18154 37.514 6.3045L37.1824 7.005L37.4246 6.96774C37.4246 6.96774 37.4395 6.96774 37.4544 6.96402C37.5215 7.01618 37.6556 7.23974 37.6631 7.30309C37.6631 7.39624 37.7264 7.45586 37.7674 7.48939C37.8196 7.5341 37.8419 7.55273 37.7823 7.68687L37.7711 7.71296C37.6333 8.02222 37.4283 8.48425 37.0781 8.67428C36.9253 8.75626 36.7614 8.88667 36.5862 9.02081C36.3217 9.22574 36.0236 9.45676 35.8373 9.45676C35.5355 9.45676 35.0921 9.92624 34.917 9.93369L34.8015 9.81818C34.8164 9.7772 34.8313 9.73621 34.8462 9.69895C34.9058 9.54246 34.958 9.40832 35.0772 9.23692C35.1741 9.10278 35.4051 8.76371 35.461 8.54014C35.461 8.53269 35.4721 8.49916 35.5243 8.41346L35.7479 8.03712L35.3566 8.22715H35.3455C35.3455 8.22715 35.3455 8.2346 35.3417 8.2346C35.2598 8.24578 35.1219 8.10792 35.0586 7.95142C35.0027 7.81729 34.943 7.61235 34.9281 7.44095L34.917 7.28818L34.7679 7.32544C34.6673 7.35153 34.5779 7.3627 34.5406 7.3627C34.44 7.3627 34.3469 7.42605 34.2351 7.50057C34.1643 7.54901 34.0898 7.59745 34.0227 7.62353C34.0227 7.59372 34.0227 7.55646 34.0227 7.52665C34.0227 7.45958 34.1084 7.29191 34.1643 7.1764C34.2053 7.09815 34.2388 7.02363 34.2649 6.96029C34.3767 6.68456 34.0413 6.19272 33.7582 5.9468C33.6464 5.84992 33.4936 5.80148 33.2887 5.80148C33.1098 5.80148 32.9198 5.83874 32.7521 5.86855C32.6292 5.89091 32.5174 5.91326 32.4429 5.91326C32.1001 5.91326 32.0591 6.16291 32.0404 6.27097C32.0404 6.29332 32.033 6.31568 32.0293 6.32686C32.0181 6.36039 31.9585 6.47217 31.91 6.56905C31.8169 6.7479 31.7125 6.94911 31.6678 7.08325C31.5859 7.32544 31.5896 8.0334 31.6268 8.43954C31.6455 8.62584 31.6976 8.83823 31.7535 9.06179C31.8243 9.34125 31.8951 9.62815 31.9175 9.91879C31.951 10.3957 31.7759 10.6118 31.5933 10.7944C31.5821 10.8056 31.5784 10.8056 31.5747 10.8056C31.5262 10.8056 31.2915 10.2653 31.0679 9.90388C30.9375 9.69522 30.9114 9.25182 30.8891 8.86059C30.8816 8.76743 30.8779 8.67428 30.8705 8.58858C30.8332 8.1191 30.8705 7.76885 30.9412 7.39251C30.9822 7.1764 31.0083 7.05717 31.0381 6.93048C31.0642 6.82988 31.0866 6.72555 31.1201 6.5616C31.1611 6.34921 31.1536 6.22253 31.0903 6.14428C31.0568 6.10329 31.0083 6.08094 30.9562 6.08094C30.9338 6.08094 30.9189 6.08466 30.9077 6.08839H30.8965L30.8854 6.09957C30.7885 6.15173 30.6283 6.22625 30.5277 6.24488C30.55 6.18899 30.6134 6.07721 30.7661 5.876C30.904 5.70088 31.3586 5.64126 31.5523 5.6189C31.7237 5.59655 31.8877 5.50712 32.0293 5.42515C32.141 5.36181 32.2603 5.29474 32.3311 5.29474C32.5993 5.29474 33.2291 5.26865 33.3446 5.04509C33.3632 5.01155 33.4154 4.90722 33.3557 4.81035C33.2887 4.70602 33.1583 4.70602 32.9906 4.70602C32.972 4.70602 32.9682 4.70229 32.9645 4.69856C32.9347 4.66876 32.9272 4.57933 32.931 4.52717L32.9459 4.38557H32.8043C32.6366 4.38557 32.4466 4.35949 32.4019 4.32968C32.3683 4.28497 32.305 4.23281 32.1895 4.23281C32.0628 4.23281 31.9063 4.29615 31.7684 4.34831L31.7424 4.35949C31.72 4.37067 31.6902 4.37812 31.6641 4.39303C31.4815 4.46755 31.1723 4.59423 30.7102 4.7172C30.6283 4.73955 30.5575 4.75073 30.4978 4.75073C30.3525 4.75073 30.2929 4.69111 30.2296 4.62032C30.1886 4.57933 30.1439 4.53089 30.0805 4.50854C30.088 4.46755 30.1141 4.39675 30.1252 4.36322C30.1327 4.34086 30.1401 4.32223 30.1476 4.3036C30.1849 4.19555 30.1178 4.07259 30.0582 3.99061C29.9687 3.86393 29.816 3.73351 29.6558 3.73351C29.6371 3.73351 29.6185 3.73351 29.5999 3.73724C29.4545 3.76705 29.2384 3.97198 28.7727 4.43774C28.6162 4.59423 28.4634 4.747 28.3479 4.85133C28.2249 4.96312 28.1504 4.98547 28.1094 4.98547C28.0424 4.98547 27.9865 4.9184 27.9045 4.8178L27.8859 4.79544C27.83 4.72465 27.7517 4.68739 27.6623 4.68739C27.5729 4.68739 27.4835 4.72465 27.4015 4.76191C27.3754 4.77309 27.3456 4.78799 27.3195 4.79544C27.3642 4.747 27.4089 4.69111 27.4574 4.62777C27.6437 4.36694 27.9641 3.97943 28.1318 3.81176C28.2138 3.72979 28.3106 3.69253 28.4336 3.64409C28.5379 3.6031 28.6609 3.55466 28.7988 3.46896L28.8397 3.44288L28.8546 3.39444C28.8546 3.39444 28.8621 3.36836 28.8733 3.32737L28.9292 3.11871L28.7168 3.16342C28.6646 3.1746 28.5864 3.18205 28.482 3.18205C28.2957 3.18205 28.0424 3.16342 27.6549 3.11871C27.0214 3.04792 26.1309 2.79827 26.1197 2.79827H26.1011L26.0825 2.79454C26.0601 2.79454 25.5645 2.79454 25.3037 2.8318C25.2851 2.8318 25.2627 2.83553 25.2441 2.83553C25.0727 2.83553 24.9087 2.7312 24.7187 2.57098L24.6926 2.55235C24.551 2.43311 24.4467 2.34741 24.3014 2.34741C24.2306 2.34741 24.1561 2.36977 24.0704 2.41076C23.8841 2.50391 23.7686 2.70884 23.7164 2.82808C22.5837 2.79082 11.4278 2.43311 11.0887 2.39958C10.7348 2.36605 3.64406 1.43453 3.57326 1.42335L3.45776 1.40845L3.31989 1.96363C3.09633 1.88538 2.61939 1.71398 2.2058 1.50905L2.08284 1.44943L2.02694 1.57239C2.02694 1.57239 1.87045 1.93009 1.87045 2.60079C1.87045 2.70884 1.87045 2.8169 1.87418 2.92868C1.88535 3.5025 1.89653 4.15456 1.66179 4.79544C1.50902 5.20904 1.41587 5.64871 1.3339 6.0325C1.25937 6.38647 1.18485 6.72182 1.08425 6.96029C1.006 7.14659 0.924028 7.18013 0.834603 7.21739C0.670655 7.28446 0.540243 7.3627 0.49553 7.72041C0.469448 7.91789 0.484352 8.14518 0.502982 8.38365C0.536517 8.86431 0.570052 9.41204 0.294322 9.91506C0.00368901 10.4479 0.100567 10.7311 0.193719 11.0068C0.24961 11.1707 0.301775 11.3272 0.279418 11.5545C0.223527 12.065 0.454543 12.6463 0.603586 13.0301C0.655751 13.1567 0.696738 13.2685 0.715368 13.3356C0.741451 13.4362 0.812246 13.5592 1.00228 13.5592C1.03208 13.5592 1.06189 13.5592 1.08798 13.5554C1.11033 13.5554 1.13269 13.5517 1.15504 13.5517C1.19603 13.5517 1.20721 13.5517 1.22211 13.6225C1.29291 13.9728 1.29291 14.1851 1.29291 14.6099C1.29291 14.8558 1.35625 15.0794 1.41214 15.2769C1.46058 15.4483 1.50902 15.6122 1.50902 15.765C1.50902 15.9886 1.6208 16.16 1.72886 16.3276C1.82201 16.4692 1.91516 16.6145 1.94497 16.7971C1.96733 16.9313 1.91516 17.0319 1.863 17.1287C1.81456 17.2219 1.75867 17.3299 1.79965 17.4454C1.83319 17.5423 1.92261 17.6168 2.09029 17.6914C2.63429 17.9224 3.02926 18.213 3.20811 18.3881C3.30126 18.4813 3.43913 18.5558 3.59935 18.6415C3.84154 18.7719 4.11354 18.9172 4.27377 19.1632C4.53459 19.5544 4.73952 20.2735 4.76188 20.3481L4.85503 20.907L4.98544 20.8809C4.98544 20.8809 6.20014 20.6387 6.8522 20.6387C7.07577 20.6387 7.14656 20.6685 7.16519 20.676C7.1801 20.702 7.19128 20.7318 7.20618 20.7579C7.32914 21.0187 7.47073 21.3168 8.09299 21.5926C8.38735 21.723 8.70034 21.8348 9.00215 21.9428C9.35985 22.0695 9.6952 22.1925 9.88523 22.308C9.91503 22.3266 9.94484 22.3452 9.97465 22.3639C10.31 22.5688 10.6267 22.7626 11.3272 22.7626C12.0277 22.7626 13.1157 22.8333 13.1269 22.8333L13.2201 22.8408L13.3691 22.4682C13.4064 22.4682 13.4511 22.4682 13.507 22.4682C13.7566 22.4682 14.2261 22.4943 14.595 22.6806C14.9452 22.8557 15.3365 23.2991 15.6495 23.6531C15.8358 23.8617 15.9811 24.0294 16.0929 24.1151C16.1897 24.1859 16.2494 24.3089 16.3201 24.4505C16.4319 24.6703 16.5698 24.946 16.9014 25.1361C17.0765 25.2367 17.2181 25.3894 17.3448 25.5236C17.5013 25.6912 17.6355 25.8366 17.8031 25.8366C17.9037 25.8366 17.9969 25.7844 18.0789 25.6801C18.1832 25.5497 18.2353 25.4453 18.2801 25.3596C18.3546 25.2143 18.3844 25.1547 18.6638 25.0727C18.8651 25.0168 19.0029 24.9013 19.1147 24.8119C19.2041 24.7411 19.2712 24.6815 19.3308 24.6815C19.3979 24.6815 19.4948 24.7523 19.614 24.8901C19.8562 25.1659 19.9419 25.3224 20.0201 25.4602C20.1021 25.6093 20.1841 25.7509 20.4151 25.9819C20.6647 26.2315 20.8212 26.4141 20.9442 26.5557C21.0374 26.6637 21.1156 26.7532 21.2087 26.8463C21.3056 26.9432 21.3839 26.9656 21.436 26.9805C21.4435 26.9805 21.4547 26.9879 21.4621 26.9879C21.4733 27.0028 21.5031 27.0699 21.5329 27.3456C21.5478 27.4909 21.5553 27.6027 21.559 27.6921C21.5739 28.0424 21.5963 28.1467 22.021 28.4485C22.5501 28.8286 23.6344 28.9031 23.6791 28.9068L23.7797 28.9143L23.8133 28.8174C23.8766 28.6274 23.9213 28.4448 23.9474 28.2585C23.9847 28.0014 23.9735 27.8076 23.9698 27.6661C23.9698 27.6213 23.966 27.5804 23.966 27.5468C23.966 27.476 23.9549 27.3978 23.9437 27.3195C23.9251 27.2078 23.899 27.0364 23.9511 27.0177C24.1859 26.9395 24.3386 26.7345 24.5324 26.4737C24.551 26.4476 24.5697 26.4216 24.592 26.3955C24.7597 26.1719 25.0652 25.8067 25.1882 25.6652C25.2478 25.6763 25.3335 25.6875 25.4304 25.6875C25.68 25.6875 25.885 25.613 26.0303 25.4677C26.3433 25.1547 26.3582 25.0541 26.3582 24.797C26.3582 24.6591 26.3917 24.5511 26.4364 24.5511C26.4476 24.5511 26.4588 24.5511 26.4737 24.5585C26.5072 24.5697 26.5445 24.5734 26.5892 24.5734C26.7233 24.5734 26.9134 24.525 27.1295 24.4654C27.353 24.4057 27.6064 24.3387 27.7815 24.3387C27.8151 24.3387 27.8412 24.3387 27.8672 24.3461C28.2249 24.4169 28.6609 24.4914 28.6683 24.4914L28.7093 24.4989L28.7466 24.4803C28.8286 24.4393 29.0819 24.335 29.2794 24.335C29.3167 24.335 29.3502 24.335 29.38 24.3461C29.462 24.3685 29.5142 24.3648 29.5551 24.3499C29.5775 24.3648 29.6036 24.3797 29.6297 24.3983C29.7526 24.4803 29.8532 24.5622 29.9389 24.6368C30.088 24.7597 30.2072 24.8603 30.3451 24.8603C30.4308 24.8603 30.5127 24.8231 30.5873 24.7448L30.7661 24.566H32.0032L31.6529 24.3275C31.6529 24.3275 31.4703 24.2045 31.4145 24.0331C31.4145 24.0294 31.4145 24.0257 31.4145 24.0257C31.4256 23.9922 31.5486 23.9325 31.6753 23.9139L31.9249 23.8729L31.4294 23.3774C31.5262 23.3252 31.6641 23.2656 31.7982 23.2656C32.0516 23.2656 32.4205 23.0867 32.5844 23.001C32.7149 23.0942 32.9906 23.2656 33.2477 23.2656C33.5458 23.2656 33.624 23.2656 34.2202 23.1165C34.4549 23.0569 34.6934 23.0271 34.8946 23.0271C35.1517 23.0271 35.2896 23.083 35.2896 23.1352C35.2896 23.3401 35.2896 23.6456 35.5355 23.6456C35.6622 23.6456 35.8075 23.5413 36.0236 23.2917C36.2472 23.0383 36.2844 22.8482 36.2882 22.7253C36.3217 22.7327 36.359 22.7439 36.4037 22.7551C36.7949 22.852 37.1489 23.0159 37.4619 23.1612C37.596 23.2246 37.7227 23.2805 37.8345 23.3252C38.1177 23.437 38.2592 23.586 38.2592 24.0704C38.2592 24.2157 38.2332 24.3051 38.2071 24.3908C38.14 24.6181 38.1139 24.7821 38.4232 25.2963C38.6058 25.5981 38.725 25.8813 38.8182 26.1086C38.9597 26.4439 39.0641 26.6898 39.2727 26.7942C39.3733 26.8463 39.5447 27.0475 39.6938 27.2264C39.9621 27.5468 40.1931 27.8226 40.4166 27.8226C40.6029 27.8226 40.793 27.7331 40.9383 27.5804C41.1171 27.3903 41.3184 27.0028 41.2699 26.239C41.1954 25.0541 40.8973 24.1561 40.6551 23.9139C40.5992 23.858 40.5992 23.8357 40.5955 23.7723C40.588 23.6233 40.5582 23.4817 40.2825 23.2544L40.2229 23.206C40.0589 23.0693 39.9472 22.9178 39.8875 22.7514C39.854 22.6619 39.8093 22.5353 39.7422 22.3639C39.6118 22.0434 39.4851 21.831 39.3808 21.6634C39.2504 21.451 39.1721 21.3206 39.1721 21.1119C39.1721 20.6909 39.3137 19.9978 39.4404 19.8115C39.4739 19.7593 39.5522 19.6587 39.6453 19.5395C40.0515 19.0178 40.4166 18.5223 40.4725 18.2466C40.4912 18.1571 40.5023 18.0677 40.5172 17.9783C40.5471 17.7696 40.588 17.5088 40.6775 17.479C41.2438 17.289 41.5755 17.0058 41.6313 16.6518C41.691 16.2904 42.0636 16.0966 42.0673 16.0966L42.0934 16.0817L42.3542 15.7352V15.6905C42.3542 15.4855 42.4026 15.1167 42.5331 14.9862C42.7603 14.759 42.8498 14.5913 42.8162 14.4534C42.8013 14.3901 42.7566 14.3081 42.6262 14.2671C42.4511 14.2075 42.3542 14.1777 42.3542 13.8833C42.3542 13.3095 42.0114 13.2462 41.8624 13.2462C41.8251 13.2462 41.7916 13.2462 41.7618 13.2462C41.7431 13.2462 41.7282 13.2462 41.7133 13.2462C41.7096 13.2238 41.7021 13.1754 41.7021 13.0822C41.7021 12.7208 41.4599 12.4861 41.3854 12.419C41.2736 12.2178 41.1246 11.9011 41.1246 11.7818C41.1246 11.6365 41.1581 11.3198 41.1805 11.1372C41.2699 11.167 41.3891 11.2341 41.4525 11.3943C41.5307 11.5918 41.6462 11.6812 41.7394 11.752C41.8363 11.8265 41.8773 11.8601 41.8773 11.9942C41.8773 12.4153 42.2052 12.6649 42.2201 12.6761L42.3877 12.8028L42.425 12.5941C42.4511 12.4562 42.5703 11.7557 42.4921 11.5173C42.4585 11.4167 42.3691 11.3198 42.2685 11.208C42.0934 11.018 41.9667 10.8652 42.0412 10.7683C42.1232 10.6603 42.3169 10.5969 42.574 10.5969C42.656 10.5969 42.7156 10.6044 42.7156 10.6044L42.8311 10.6193L42.8609 10.5075C42.8684 10.4814 43.01 9.90761 43.01 9.535C43.01 9.27418 43.051 9.0059 43.0696 8.89412L43.744 8.4917L43.7626 8.48053C43.9564 8.31285 44.1837 8.07811 44.1464 7.90298C44.1315 7.83219 44.0831 7.7763 44.0086 7.75022C43.9713 7.73904 43.9341 7.73159 43.8893 7.73159C43.7179 7.73159 43.5279 7.83592 43.3602 7.92534C43.2745 7.97378 43.1926 8.01849 43.1292 8.03712C43.0696 8.05575 42.969 8.07066 42.8833 8.07066C42.8721 8.07066 42.8647 8.07066 42.8535 8.07066C42.8609 8.06321 42.8684 8.05948 42.8796 8.05203C43.2969 7.77257 43.9266 7.48939 44.1502 7.41487C44.3849 7.33662 44.6793 7.11678 44.6942 7.10561L45.4692 6.40883V6.34921C45.4692 6.17781 45.3798 5.85737 45.0481 5.85737C44.955 5.85737 44.8656 5.87973 44.7873 5.90209C44.7352 5.91699 44.683 5.92817 44.6495 5.92817C44.642 5.92817 44.6346 5.92817 44.6346 5.92817C44.6346 5.92817 44.5973 5.88718 44.5973 5.69715C44.5973 5.50712 44.5824 5.33945 44.5712 5.18668C44.5451 4.89605 44.5265 4.66503 44.6346 4.5607C44.7016 4.49363 44.7799 4.44892 44.8656 4.40048C45.0258 4.31105 45.2084 4.20672 45.3164 3.93845C45.4506 3.60683 45.8604 3.18951 45.8642 3.18578L45.8753 3.1746L46.7025 1.91146H46.4678L46.4342 1.92264ZM45.6406 3.01811C45.5735 3.0889 45.186 3.49132 45.0444 3.84902C44.9699 4.03532 44.8544 4.09867 44.7091 4.18064C44.6196 4.23281 44.5153 4.2887 44.4222 4.38185C44.2321 4.57188 44.2545 4.85506 44.2843 5.21649C44.2955 5.3618 44.3104 5.52948 44.3104 5.7046C44.3104 5.82756 44.3104 6.19644 44.6234 6.19644C44.6904 6.19644 44.7612 6.17781 44.8283 6.15918C44.8954 6.14055 44.9624 6.12192 45.0221 6.12192C45.037 6.12192 45.1562 6.12565 45.1786 6.29705L44.5079 6.90067C44.4706 6.92675 44.2247 7.10561 44.0421 7.16895C43.8074 7.2472 43.1441 7.54528 42.7082 7.83592C42.6374 7.88435 42.4511 8.00731 42.4995 8.16754C42.533 8.27559 42.6523 8.33148 42.8535 8.33148C42.969 8.33148 43.0957 8.31285 43.1814 8.28304C43.2634 8.25696 43.3565 8.2048 43.4534 8.15263C43.5764 8.08556 43.7254 8.00359 43.8297 7.99241C43.7813 8.06693 43.677 8.17871 43.5689 8.27187L42.805 8.73017L42.7939 8.78606C42.7939 8.78606 42.7194 9.16612 42.7194 9.535C42.7194 9.78465 42.6448 10.1573 42.6038 10.3361C42.5852 10.3361 42.5666 10.3361 42.548 10.3361C42.3058 10.3361 41.9779 10.3845 41.8065 10.6118C41.5978 10.8913 41.8586 11.1745 42.0524 11.3831C42.1232 11.4614 42.2052 11.5508 42.2238 11.5992C42.2536 11.6924 42.2312 11.9905 42.1903 12.2699C42.1493 12.1954 42.1157 12.1023 42.1157 11.9942C42.1157 11.7334 41.9816 11.6291 41.8773 11.5471C41.799 11.4875 41.7245 11.4278 41.6723 11.2974C41.4972 10.8578 41.065 10.854 41.0463 10.854H40.9308L40.9159 10.9695C40.9159 10.9919 40.8414 11.5583 40.8414 11.7818C40.8414 12.0203 41.0985 12.4786 41.1469 12.568L41.1619 12.5904L41.1842 12.6053C41.1842 12.6053 41.4227 12.7879 41.4227 13.0785C41.4227 13.235 41.4339 13.3207 41.4674 13.384C41.5307 13.5033 41.65 13.5033 41.6872 13.5033C41.7059 13.5033 41.7282 13.5033 41.7543 13.5033C41.7804 13.5033 41.8102 13.5033 41.84 13.5033C41.9108 13.5033 42.071 13.5033 42.071 13.8796C42.071 14.323 42.2834 14.4311 42.5219 14.5093C42.5293 14.5093 42.5368 14.513 42.5405 14.5168C42.5368 14.5428 42.5032 14.6248 42.3281 14.7999C42.112 15.0161 42.0785 15.4893 42.0747 15.642L41.8996 15.873C41.7916 15.9364 41.4227 16.1749 41.3519 16.6034C41.296 16.935 40.8377 17.1362 40.5731 17.2256C40.3309 17.3076 40.2862 17.6131 40.2378 17.9373C40.2266 18.023 40.2117 18.1124 40.1968 18.1907C40.1484 18.4329 39.6752 19.0477 39.4181 19.3756C39.3212 19.5022 39.2429 19.6028 39.2019 19.6625C39.0343 19.9121 38.889 20.6685 38.889 21.1082C38.889 21.3914 38.997 21.5702 39.1349 21.7938C39.2318 21.954 39.3547 22.1552 39.4777 22.457C39.5447 22.6247 39.5895 22.7439 39.6193 22.8333C39.7273 23.1389 39.7459 23.1575 40.0329 23.3997L40.0925 23.4481C40.3049 23.6233 40.3086 23.6978 40.3123 23.7798C40.316 23.858 40.3198 23.9661 40.4464 24.0928C40.6216 24.2679 40.9122 25.0727 40.9867 26.2502C41.0277 26.9246 40.8675 27.245 40.7259 27.3978C40.588 27.5431 40.4502 27.558 40.3943 27.558C40.29 27.558 40.018 27.2301 39.8726 27.055C39.6826 26.8277 39.5187 26.6339 39.3696 26.5557C39.2467 26.4961 39.1572 26.2762 39.0417 26.0042C38.9411 25.7695 38.8182 25.4789 38.6281 25.1584C38.3636 24.7187 38.3934 24.6219 38.4381 24.4616C38.4642 24.3685 38.5014 24.2493 38.5014 24.0667C38.5014 23.5264 38.3375 23.2469 37.9127 23.0793C37.8084 23.0383 37.6854 22.9787 37.555 22.919C37.2495 22.7775 36.8657 22.5986 36.4521 22.4943C36.2993 22.457 36.2285 22.4384 36.1764 22.4384C36.1093 22.4384 36.072 22.4682 36.0497 22.4905C36.0012 22.5427 36.0087 22.6061 36.0124 22.6508C36.0199 22.7253 36.0348 22.8669 35.8187 23.1128C35.6734 23.2805 35.5914 23.3401 35.5541 23.3624C35.5429 23.3028 35.5429 23.191 35.5429 23.124C35.5429 22.9861 35.4572 22.7551 34.8872 22.7551C34.6673 22.7551 34.4065 22.7886 34.1494 22.8557C33.5868 22.9973 33.5197 22.9973 33.2402 22.9973C33.0427 22.9973 32.7633 22.8073 32.6701 22.7365L32.5993 22.6806L32.5211 22.7253C32.387 22.7998 31.9995 22.9973 31.7908 22.9973C31.4629 22.9973 31.1462 23.232 31.135 23.2395L31.0158 23.3289L31.4033 23.7127C31.3213 23.75 31.2356 23.8021 31.1872 23.8804C31.1462 23.9474 31.1387 24.0257 31.1648 24.1039C31.1872 24.1747 31.2244 24.2381 31.2654 24.294H30.6581L30.4047 24.5473C30.4047 24.5473 30.3637 24.5846 30.3451 24.5846C30.3004 24.5846 30.1998 24.5026 30.1029 24.4244C30.0172 24.3499 29.9054 24.2604 29.7713 24.171C29.6173 24.0692 29.5253 24.0182 29.4955 24.0182H29.4173L29.3912 24.0704C29.3577 24.0667 29.3204 24.063 29.2831 24.063C29.0409 24.063 28.7727 24.171 28.6721 24.2157C28.5566 24.1971 28.2138 24.1375 27.9194 24.0779C27.8784 24.0704 27.8337 24.0667 27.7853 24.0667C27.5766 24.0667 27.3195 24.1375 27.0661 24.2045C26.8836 24.253 26.6935 24.3051 26.5929 24.3051C26.5706 24.3051 26.5594 24.3051 26.5594 24.3051C26.5184 24.2902 26.4774 24.2828 26.4402 24.2828C26.2762 24.2828 26.1011 24.4169 26.1011 24.7895C26.1011 24.9833 26.1011 25.0243 25.8514 25.2776C25.7583 25.3708 25.6167 25.4192 25.4378 25.4192C25.2962 25.4192 25.1845 25.3894 25.1845 25.3894L25.1025 25.3671L25.0466 25.4304C25.028 25.4528 24.6069 25.9446 24.3908 26.2315C24.3685 26.2576 24.3498 26.2874 24.3312 26.3135C24.1598 26.5445 24.0331 26.7122 23.8766 26.7644C23.6158 26.85 23.6642 27.1519 23.694 27.3531C23.7052 27.4239 23.7164 27.4872 23.7164 27.5394C23.7164 27.5804 23.7164 27.6251 23.7201 27.6698C23.7276 27.8076 23.735 27.979 23.7015 28.2138C23.6829 28.3517 23.6531 28.4895 23.6083 28.6274C23.3326 28.6013 22.5688 28.5007 22.185 28.225C21.8459 27.9828 21.8459 27.9604 21.831 27.6698C21.8273 27.5766 21.8198 27.4574 21.8049 27.3046C21.7565 26.8799 21.7043 26.7718 21.5217 26.7159C21.4845 26.7047 21.4509 26.6973 21.4025 26.6488C21.3168 26.5631 21.2386 26.4737 21.1491 26.3694C21.0224 26.2203 20.8622 26.0378 20.6051 25.7807C20.3965 25.572 20.3331 25.4602 20.2549 25.3149C20.1729 25.1659 20.076 24.9982 19.8189 24.7001C19.6401 24.4952 19.491 24.402 19.3383 24.402C19.1855 24.402 19.07 24.4989 18.9545 24.5921C18.8539 24.6778 18.7458 24.7635 18.5968 24.8044C18.2242 24.9125 18.1459 25.0355 18.049 25.2255C18.0118 25.3037 17.9671 25.3894 17.8776 25.5012C17.8478 25.5385 17.8218 25.5571 17.8069 25.5571C17.751 25.5571 17.6317 25.4304 17.5386 25.3261C17.4082 25.1845 17.2442 25.0094 17.0356 24.8901C16.7747 24.7411 16.6629 24.525 16.5586 24.3163C16.4766 24.1524 16.3984 23.9959 16.2531 23.8878C16.1599 23.817 16.0146 23.6531 15.8469 23.4631C15.519 23.0904 15.1092 22.6284 14.7142 22.4309C14.3192 22.2334 13.8423 22.1925 13.5107 22.1925C13.3654 22.1925 13.2759 22.1999 13.2722 22.1999L13.194 22.2074L13.0561 22.5539C12.7767 22.5353 11.9308 22.4868 11.3347 22.4868C10.7087 22.4868 10.4367 22.3191 10.12 22.1254C10.0902 22.1068 10.0604 22.0881 10.0305 22.0695C9.81816 21.9428 9.48654 21.8236 9.09902 21.6857C8.80094 21.5777 8.49168 21.4659 8.20849 21.3392C7.67567 21.1007 7.56761 20.8734 7.4521 20.6312C7.4372 20.5977 7.42229 20.5642 7.40366 20.5344C7.34405 20.4151 7.18383 20.363 6.86338 20.363C6.31192 20.363 5.41394 20.5195 5.0786 20.5828L5.03016 20.281V20.2698C5.01898 20.2363 4.80287 19.4501 4.50478 19.0029C4.3073 18.7049 3.99058 18.5335 3.73721 18.3993C3.60307 18.3248 3.47266 18.2577 3.40559 18.1907C3.15222 17.9373 2.68273 17.6429 2.20952 17.4417C2.07911 17.3858 2.06048 17.3486 2.06048 17.3486C2.06048 17.3299 2.09029 17.274 2.10892 17.2368C2.16854 17.1213 2.25051 16.9648 2.21697 16.7412C2.17599 16.5028 2.06421 16.3276 1.9636 16.1711C1.86672 16.0258 1.78475 15.8954 1.78475 15.7501C1.78475 15.5601 1.73259 15.37 1.68042 15.1874C1.62453 14.9974 1.56864 14.7999 1.56864 14.5913C1.56864 14.1479 1.56864 13.928 1.49412 13.5517C1.46803 13.425 1.39351 13.2723 1.17367 13.2723C1.14387 13.2723 1.11406 13.2723 1.08425 13.276C1.06189 13.276 1.03954 13.2797 1.02091 13.2797C1.006 13.2797 0.99855 13.2797 0.994824 13.2797C0.994824 13.2797 0.991098 13.2685 0.987371 13.2573C0.965015 13.1716 0.920302 13.0599 0.864411 12.9183C0.72282 12.5568 0.506708 12.0128 0.555147 11.5694C0.584956 11.2863 0.517887 11.085 0.45827 10.9099C0.37257 10.6566 0.305501 10.4591 0.540243 10.0268C0.853233 9.45303 0.812246 8.84195 0.778711 8.35384C0.763807 8.12655 0.748903 7.91416 0.771259 7.73904C0.801068 7.5043 0.849507 7.48566 0.950111 7.44468C1.06562 7.39996 1.21839 7.33662 1.34135 7.04971C1.45313 6.79262 1.52765 6.44237 1.6059 6.07721C1.68787 5.70088 1.7773 5.27238 1.92261 4.87369C2.17226 4.18437 2.16108 3.50995 2.1499 2.91378C2.1499 2.802 2.14618 2.69394 2.14618 2.58961C2.14618 2.20582 2.19834 1.94127 2.23933 1.79596C2.78334 2.05306 3.36088 2.23563 3.38696 2.24308L3.51737 2.28407L3.66642 1.68417C4.62029 1.81086 10.7385 2.61197 11.0776 2.6455C11.439 2.68276 23.3065 3.06282 23.8133 3.08145H23.9102L23.94 2.99202C23.966 2.91378 24.0629 2.70139 24.2008 2.63432C24.2492 2.60824 24.2902 2.59706 24.3163 2.59706C24.3647 2.59706 24.4244 2.6455 24.5399 2.74238L24.5659 2.76473C24.7671 2.93241 24.9907 3.0889 25.259 3.0889C25.2925 3.0889 25.3223 3.0889 25.3559 3.08145C25.572 3.05164 25.9893 3.04792 26.0787 3.04792C26.2129 3.08518 27.0251 3.30501 27.6362 3.37208C27.8933 3.40189 28.0983 3.42052 28.2585 3.42797C28.1504 3.47269 28.0498 3.52485 27.9567 3.62173C27.7592 3.81921 27.4313 4.22535 27.2562 4.47127C27.204 4.5458 27.1481 4.60541 27.0997 4.65758C27.0102 4.75446 26.932 4.83643 26.9693 4.94449C27.0028 5.04882 27.122 5.06745 27.1593 5.0749C27.1779 5.0749 27.2003 5.07862 27.2189 5.07862C27.327 5.07862 27.4276 5.03391 27.517 4.99665C27.5766 4.97057 27.6362 4.94449 27.6735 4.94449C27.6809 4.94449 27.6847 4.94449 27.6921 4.95566L27.7107 4.97802C27.8039 5.09725 27.9231 5.24257 28.1169 5.24257C28.2436 5.24257 28.3814 5.1755 28.5305 5.04136C28.6534 4.92958 28.8062 4.77681 28.9664 4.61659C29.2049 4.37812 29.5663 4.01669 29.6669 3.98689C29.7452 3.98689 29.8942 4.15828 29.9091 4.22908C29.9054 4.24026 29.9017 4.25144 29.8942 4.26634C29.8532 4.3744 29.7973 4.51971 29.8607 4.63522C29.8793 4.67248 29.924 4.72465 30.0023 4.74328C30.0135 4.747 30.0358 4.77309 30.0544 4.79172C30.129 4.86996 30.2556 5.00038 30.5127 5.00038C30.5984 5.00038 30.6879 4.98547 30.7922 4.95939C31.2729 4.8327 31.5896 4.70229 31.7759 4.62404C31.8057 4.61286 31.8318 4.60169 31.8541 4.59051L31.8802 4.57933C31.9845 4.53834 32.1261 4.48245 32.2044 4.48245C32.2081 4.48245 32.2118 4.48245 32.2156 4.48245C32.2975 4.58678 32.5025 4.62404 32.6925 4.6315C32.7037 4.70602 32.726 4.79544 32.7894 4.86251C32.8453 4.92213 32.9198 4.95566 33.0055 4.95566H33.0167C32.8639 4.99292 32.5956 5.02273 32.3497 5.02273C32.2081 5.02273 32.0665 5.10098 31.9175 5.18668C31.7908 5.25748 31.6567 5.33572 31.5374 5.35063C31.1425 5.39907 30.7549 5.47731 30.5761 5.70833C30.3078 6.05485 30.2221 6.25234 30.2892 6.38647C30.3115 6.43119 30.3637 6.50198 30.4978 6.50198C30.6208 6.50198 30.7848 6.43491 30.9003 6.38275C30.9003 6.41256 30.8928 6.45354 30.8816 6.50198C30.8518 6.65848 30.8257 6.76281 30.8034 6.85968C30.7736 6.98637 30.7438 7.10933 30.7028 7.3329C30.6394 7.67569 30.5873 8.06693 30.6283 8.59603C30.6357 8.68173 30.6394 8.77116 30.6469 8.86431C30.673 9.30771 30.6991 9.76602 30.8667 10.0306C31.1089 10.4144 31.4033 11.0552 31.597 11.0552C31.6716 11.0552 31.7424 11.0254 31.802 10.9695C32.033 10.7385 32.2379 10.4516 32.2007 9.89271C32.1783 9.57972 32.1001 9.26673 32.0293 8.98727C31.9771 8.77489 31.9249 8.57368 31.91 8.406C31.8728 7.99614 31.8802 7.34035 31.9398 7.15777C31.9808 7.03854 32.0814 6.84105 32.1671 6.68083C32.2416 6.53552 32.2864 6.45354 32.3013 6.40138C32.3124 6.37157 32.3162 6.33804 32.3236 6.3045C32.3422 6.19644 32.346 6.16291 32.4689 6.16291C32.5658 6.16291 32.6888 6.14055 32.8266 6.11447C32.9831 6.08466 33.162 6.05113 33.3148 6.05113C33.4526 6.05113 33.5495 6.07721 33.6128 6.1331C33.9184 6.39765 34.0823 6.77026 34.0488 6.85596C34.0264 6.91185 33.9929 6.97892 33.9556 7.05344C33.8699 7.22857 33.788 7.39251 33.788 7.5192C33.788 7.58627 33.788 7.65334 33.8066 7.71668C33.8364 7.82101 33.9146 7.88435 34.019 7.88435C34.06 7.88435 34.101 7.87318 34.1494 7.85455C34.2425 7.81729 34.332 7.75767 34.4102 7.7055C34.4624 7.66824 34.5444 7.61608 34.5704 7.61235C34.6077 7.61235 34.6599 7.6049 34.7195 7.59745C34.7456 7.73531 34.7903 7.89181 34.8462 8.03712C34.917 8.21225 35.0623 8.40228 35.2374 8.46189C35.2076 8.58113 35.0735 8.8196 34.8946 9.06924C34.753 9.26673 34.6934 9.42322 34.6301 9.58717C34.6077 9.64678 34.5816 9.71013 34.5555 9.7772L34.522 9.85917L34.8424 10.1796H34.9021C34.9021 10.1796 35.692 9.74366 35.8671 9.69895C36.1317 9.62815 36.4633 9.4493 36.7725 9.21083C36.9365 9.08415 37.093 8.96119 37.2309 8.88667C37.6593 8.65565 37.8866 8.14145 38.0357 7.80238L38.0469 7.78002C38.181 7.47449 38.0357 7.34407 37.9649 7.28073C37.9612 7.27701 37.9537 7.26955 37.95 7.26583C37.9314 7.13169 37.7823 6.84851 37.6221 6.73672L37.7749 6.41256C37.8158 6.43491 37.8643 6.44609 37.9314 6.44609C38.2443 6.44609 38.5275 6.30078 38.8554 5.97288C39.1125 5.71578 39.4106 5.30964 39.541 5.12334C39.6044 5.11216 39.6677 5.0749 39.7534 5.00038C39.895 4.87742 39.9472 4.76563 39.9919 4.67248C40.0478 4.55697 40.0887 4.475 40.3049 4.36694C40.4278 4.30733 40.7706 4.26634 41.1358 4.22163C42.0077 4.1173 43.0957 3.98689 43.2634 3.42052C43.4869 2.67158 43.5205 1.78478 43.5205 1.32275C43.5205 1.09173 43.5614 0.547723 43.9564 0.473202C44.0868 0.450845 44.1912 0.421037 44.2843 0.39868C44.4706 0.350241 44.5936 0.324159 44.7277 0.36142C44.955 0.424763 45.2531 0.931508 45.4096 1.20724C45.5959 1.52395 45.9908 1.94127 46.2666 2.10522L45.6741 3.01066L45.6406 3.01811Z" fill="#002244"/>
    <path d="M23.7761 29C23.7761 29 23.7723 29 23.7686 29L23.668 28.9926C23.6233 28.9926 22.5167 28.9143 21.9615 28.5193C21.5255 28.2101 21.4771 28.0834 21.4622 27.6922C21.4585 27.599 21.451 27.4909 21.4361 27.3494C21.4175 27.1742 21.3988 27.0923 21.3877 27.0587C21.3169 27.0364 21.2349 27.0028 21.138 26.906C21.0411 26.8091 20.9629 26.7159 20.8697 26.6079C20.7393 26.4588 20.5866 26.28 20.3444 26.0378C20.1022 25.7956 20.0202 25.6503 19.9345 25.4975C19.86 25.3634 19.7743 25.2106 19.5395 24.9423C19.4128 24.797 19.3421 24.7672 19.3271 24.7672C19.3011 24.7672 19.2265 24.8305 19.1707 24.8752C19.0514 24.9721 18.9024 25.0951 18.6863 25.1547C18.4441 25.2255 18.4254 25.259 18.3584 25.3932C18.3137 25.4826 18.2578 25.5907 18.1497 25.7322C18.0491 25.8589 17.9299 25.9223 17.7995 25.9223C17.5908 25.9223 17.4343 25.7546 17.2704 25.5795C17.1511 25.4491 17.0133 25.3 16.8493 25.2069C16.4953 25.0057 16.3426 24.7038 16.2308 24.484C16.1637 24.3536 16.1078 24.2381 16.0296 24.1785C15.9066 24.0853 15.7576 23.9176 15.5713 23.7053C15.262 23.355 14.8782 22.9228 14.5466 22.7551C14.1554 22.5614 13.6486 22.5502 13.4251 22.5539L13.2984 22.8706C13.2835 22.9079 13.2462 22.9377 13.2052 22.9302L13.1121 22.9228C13.1121 22.9228 12.0241 22.852 11.3198 22.852C10.6156 22.852 10.2653 22.6508 9.91882 22.4384L9.8294 22.3862C9.64309 22.2744 9.29657 22.1515 8.96122 22.0285C8.65568 21.9205 8.33897 21.805 8.04461 21.6746C7.39255 21.3839 7.23605 21.056 7.11309 20.7952C7.10564 20.7803 7.09819 20.7617 7.09074 20.7468C7.0572 20.7393 6.98641 20.7281 6.84482 20.7281C6.20393 20.7281 5.01159 20.9666 4.99668 20.9666L4.86255 20.9927C4.83646 20.9964 4.81038 20.9927 4.79175 20.9778C4.76939 20.9629 4.75822 20.9405 4.75449 20.9144L4.66134 20.3555C4.64271 20.2885 4.4415 19.5842 4.18813 19.2079C4.03908 18.9806 3.77826 18.8427 3.54724 18.7198C3.37957 18.6304 3.23798 18.5521 3.13365 18.4478C2.96225 18.2764 2.57847 18.0006 2.04564 17.7734C1.85188 17.6914 1.74755 17.5982 1.70284 17.4753C1.64695 17.3188 1.71774 17.1809 1.76991 17.084C1.81835 16.9946 1.85933 16.9164 1.8407 16.812C1.81462 16.6481 1.7252 16.5102 1.6395 16.3761C1.53144 16.2047 1.40475 16.0147 1.40475 15.7613C1.40475 15.6197 1.36004 15.4632 1.3116 15.2955C1.25198 15.0906 1.18864 14.8596 1.18864 14.6025C1.18864 14.1852 1.18864 13.9765 1.12157 13.6411C1.11039 13.6411 1.09922 13.6411 1.08804 13.6411C1.05823 13.6411 1.02469 13.6449 0.994886 13.6449C0.801131 13.6449 0.663266 13.5368 0.618553 13.3505C0.603649 13.2909 0.562662 13.1828 0.514223 13.0636C0.357728 12.6649 0.11926 12.0725 0.178877 11.5359C0.201233 11.331 0.152795 11.1931 0.10063 11.0292C0.00375179 10.7497 -0.104304 10.4293 0.20496 9.86291C0.46951 9.38225 0.43225 8.84942 0.402441 8.37994C0.387537 8.13774 0.372633 7.90672 0.398715 7.69806C0.45088 7.29192 0.614827 7.19504 0.793679 7.12052C0.879378 7.08699 0.927817 7.06463 0.994886 6.91559C1.09176 6.6883 1.16256 6.35668 1.23708 6.00643C1.31905 5.61892 1.41593 5.17924 1.5687 4.7582C1.79599 4.13222 1.78481 3.49133 1.77736 2.92497C1.77736 2.80946 1.77363 2.69768 1.77363 2.59335C1.77363 1.90403 1.93013 1.5426 1.93758 1.52769L1.99347 1.40473C2.00465 1.38238 2.02328 1.36375 2.04564 1.35629C2.06799 1.34884 2.0978 1.34884 2.12016 1.36002L2.24312 1.41964C2.5971 1.59849 2.99579 1.74753 3.24916 1.83696L3.36467 1.38238C3.37584 1.33766 3.41683 1.30413 3.469 1.31158L3.78199 1.35257C8.29426 1.94501 10.8913 2.28036 11.1 2.30272C11.4353 2.33625 22.7216 2.70141 23.6606 2.73121C23.7276 2.6008 23.8469 2.41822 24.0294 2.32507C24.13 2.27291 24.2195 2.25055 24.3014 2.25055C24.4803 2.25055 24.607 2.35488 24.7523 2.47784L24.7747 2.49647C24.9684 2.65669 25.1286 2.7573 25.2889 2.73494C25.5534 2.69768 26.0602 2.69768 26.0788 2.69768C26.0862 2.69768 26.1123 2.69768 26.1198 2.69768C26.1459 2.70513 27.0289 2.95105 27.6549 3.02185C28.0387 3.06283 28.2883 3.08519 28.4709 3.08519C28.5902 3.08519 28.6535 3.07774 28.6833 3.07029L28.8957 3.02557C28.9255 3.01812 28.959 3.02557 28.9851 3.05166C29.0075 3.07401 29.0149 3.10755 29.0075 3.14108L28.918 3.46525C28.9106 3.48761 28.8994 3.50624 28.8771 3.51741L28.8361 3.5435C28.6945 3.63292 28.5715 3.68136 28.4597 3.72607C28.3405 3.77451 28.2548 3.80805 28.1877 3.87512C28.0387 4.02043 27.7704 4.3446 27.5841 4.59797C27.7183 4.57562 27.8598 4.62406 27.9493 4.73584L27.9679 4.7582C27.9977 4.79546 28.0722 4.89233 28.0983 4.89233C28.102 4.89233 28.1579 4.89233 28.2772 4.78055C28.3927 4.67622 28.538 4.5309 28.6945 4.37814C29.1901 3.88257 29.4062 3.67763 29.5776 3.6441C29.6036 3.64037 29.626 3.63665 29.6521 3.63665C29.898 3.63665 30.0806 3.86394 30.129 3.93473C30.2334 4.08005 30.2706 4.21792 30.2296 4.33342L30.2073 4.39677C30.1961 4.42285 30.1886 4.44148 30.1849 4.46011C30.2296 4.48992 30.2632 4.52718 30.293 4.55699C30.3563 4.62033 30.3898 4.65759 30.4942 4.65759C30.5463 4.65759 30.6097 4.64641 30.6842 4.62778C31.1425 4.50482 31.4443 4.38186 31.6269 4.30734L31.7312 4.26635C31.8765 4.20674 32.0405 4.14339 32.1858 4.14339C32.2976 4.14339 32.3945 4.18438 32.4578 4.2589C32.4988 4.27381 32.6404 4.29616 32.8006 4.29616H32.9422C32.9683 4.29616 32.9944 4.30734 33.0093 4.32597C33.0279 4.3446 33.0354 4.37068 33.0316 4.39677L33.0167 4.53836C33.0167 4.56444 33.0167 4.59425 33.0205 4.6166C33.1881 4.6166 33.3409 4.62778 33.4266 4.76565C33.4825 4.8588 33.4825 4.96686 33.4191 5.08982C33.2962 5.33946 32.7559 5.39163 32.3237 5.39163C32.2752 5.39163 32.1486 5.46242 32.0666 5.51086C31.9138 5.59656 31.7461 5.69344 31.5561 5.7158C31.4033 5.73443 30.945 5.79032 30.8332 5.93936C30.7923 5.99152 30.7587 6.03624 30.7326 6.07722C30.7699 6.05859 30.8034 6.04369 30.837 6.02506C30.8407 6.02506 30.8593 6.01388 30.8631 6.01388C30.9003 6.0027 30.9264 5.99898 30.9525 5.99898C31.0307 5.99898 31.109 6.03624 31.1574 6.09958C31.2394 6.20018 31.2543 6.35295 31.2059 6.59142C31.176 6.75164 31.15 6.85597 31.1239 6.95658C31.0903 7.08699 31.0643 7.20622 31.0233 7.42234C30.9562 7.79122 30.9189 8.13401 30.9525 8.59605C30.9599 8.68175 30.9637 8.7749 30.9711 8.86805C30.9935 9.22948 31.0196 9.68033 31.1351 9.86664C31.2431 10.0418 31.3549 10.2579 31.4443 10.4293C31.489 10.5187 31.5412 10.6156 31.5747 10.6789C31.7201 10.5187 31.8393 10.3249 31.8132 9.93743C31.7946 9.65798 31.7238 9.37107 31.653 9.09907C31.5971 8.87178 31.5412 8.65566 31.5226 8.46191C31.4853 8.05949 31.4816 7.33291 31.5673 7.06836C31.6157 6.92677 31.7201 6.72183 31.8132 6.54298C31.8393 6.49082 31.9175 6.34177 31.9287 6.30824C31.9287 6.30079 31.9324 6.28588 31.9362 6.26725C31.9548 6.1592 32.007 5.8313 32.428 5.8313C32.4913 5.8313 32.6069 5.80895 32.7186 5.79032C32.8938 5.75678 33.0875 5.71952 33.2738 5.71952C33.5011 5.71952 33.6762 5.77541 33.8029 5.88719C34.1047 6.15175 34.4662 6.66967 34.332 7.00501C34.3059 7.07208 34.265 7.15033 34.2277 7.22858C34.2053 7.27329 34.1494 7.38507 34.1196 7.46332C34.1345 7.45214 34.1532 7.44097 34.1681 7.42979C34.2873 7.35154 34.3991 7.27702 34.5258 7.27702C34.5519 7.27702 34.6338 7.26584 34.7307 7.23976L34.8798 7.2025C34.9058 7.19504 34.9356 7.2025 34.958 7.2174C34.9804 7.23231 34.9953 7.25839 34.9953 7.28447L35.0064 7.43724C35.0176 7.59746 35.0772 7.79122 35.1294 7.92163C35.1816 8.04832 35.271 8.13029 35.3083 8.14519L35.692 7.95889C35.7293 7.94026 35.774 7.94771 35.8001 7.98125C35.8299 8.01105 35.8336 8.05577 35.8113 8.09303L35.5877 8.46936C35.543 8.54388 35.5355 8.56996 35.5355 8.57369C35.4797 8.80098 35.2635 9.12515 35.1406 9.30027C35.0251 9.46049 34.9766 9.59091 34.9207 9.73995L34.8947 9.80329L34.9282 9.83683C34.9915 9.81075 35.0959 9.73622 35.1778 9.67661C35.3828 9.53129 35.6138 9.37107 35.8187 9.37107C35.9715 9.37107 36.2808 9.1326 36.5081 8.95748C36.6906 8.81589 36.8546 8.6892 37.0148 8.6035C37.3352 8.42837 37.5364 7.98125 37.6669 7.68316L37.678 7.65708C37.7004 7.60491 37.7041 7.58628 37.7041 7.58256C37.7041 7.58628 37.6929 7.57883 37.6855 7.57138C37.6408 7.53412 37.5513 7.45214 37.5513 7.318C37.5439 7.28447 37.4582 7.13915 37.4023 7.07954L37.175 7.1168C37.1415 7.12052 37.1079 7.10934 37.0856 7.07954C37.0632 7.05345 37.0595 7.01619 37.0744 6.98266L37.3949 6.30451C37.3762 6.12194 37.3986 5.99152 37.4694 5.90955C37.5215 5.84993 37.5923 5.8164 37.6669 5.8164C37.7675 5.82013 37.9165 5.86484 37.9314 6.11448C38.1289 6.09585 38.3152 5.98407 38.5499 5.74933C38.8368 5.46242 39.1983 4.9445 39.2393 4.88861L39.3138 4.78428C39.3436 4.74329 39.3995 4.73211 39.4442 4.76192L39.4591 4.7731C39.4591 4.7731 39.4628 4.76937 39.4665 4.76565C39.5522 4.69113 39.5821 4.63151 39.6193 4.54954C39.6864 4.41167 39.7684 4.244 40.0888 4.08378C40.2639 3.99435 40.6067 3.95336 41.0352 3.90493C41.6388 3.83413 42.7641 3.69999 42.8685 3.35347C43.0808 2.64551 43.1106 1.7997 43.1106 1.35629C43.1106 0.681875 43.3752 0.245925 43.8372 0.160225C43.9527 0.137869 44.0496 0.115513 44.1353 0.0931562C44.3701 0.0335391 44.5601 -0.00372162 44.7687 0.0558955C45.1078 0.152773 45.3835 0.584997 45.6593 1.06193C45.8828 1.44572 46.3225 1.81087 46.4268 1.85559H46.6467C46.6802 1.85559 46.7138 1.87422 46.7287 1.90403C46.7436 1.93383 46.7436 1.9711 46.7249 2.0009L45.8977 3.26404C45.8977 3.26404 45.8791 3.28267 45.8754 3.2864C45.7711 3.39073 45.4506 3.7447 45.3463 4.00553C45.2271 4.30734 45.0221 4.42285 44.8544 4.516C44.7762 4.56071 44.7017 4.6017 44.6458 4.66132C44.5713 4.73584 44.5899 4.96686 44.6123 5.21278C44.6272 5.36927 44.6383 5.54067 44.6383 5.7307C44.6383 5.79032 44.6383 5.8313 44.6458 5.86111C44.6681 5.85739 44.6905 5.84993 44.7091 5.84621C44.7948 5.82385 44.888 5.79777 44.9923 5.79777C45.3686 5.79777 45.5065 6.14802 45.5065 6.38276V6.44238C45.5065 6.46846 45.4953 6.49454 45.4767 6.51317L44.7017 7.20995C44.7017 7.20995 44.3812 7.45214 44.1241 7.53784C44.0533 7.5602 43.9341 7.60864 43.7962 7.67198C43.8596 7.66826 43.9229 7.67198 43.9788 7.69434C44.0869 7.7316 44.1614 7.81357 44.18 7.9179C44.2136 8.09675 44.0794 8.31287 43.7627 8.58487C43.7627 8.58487 43.7404 8.59977 43.7404 8.6035L43.0957 8.99101C43.0771 9.11397 43.0436 9.34871 43.0436 9.576C43.0436 9.97097 42.8945 10.5634 42.8908 10.5709L42.861 10.6826C42.8498 10.7274 42.8088 10.7609 42.7604 10.7534L42.6449 10.7385C42.6449 10.7385 42.589 10.7311 42.5145 10.7311C42.2946 10.7311 42.1195 10.7832 42.0562 10.8652C42.0338 10.895 42.1083 11.0031 42.2797 11.1857C42.3841 11.3012 42.4847 11.4055 42.5257 11.5285C42.6076 11.7744 42.507 12.3966 42.4623 12.65L42.425 12.8587C42.4176 12.8885 42.399 12.9183 42.3654 12.9295C42.3356 12.9406 42.3021 12.9369 42.276 12.9183L42.1083 12.7916C42.1083 12.7916 41.7283 12.5047 41.7283 12.0352C41.7283 11.9458 41.7134 11.9346 41.6239 11.8638C41.5271 11.7893 41.3967 11.685 41.311 11.4651C41.2849 11.4018 41.2513 11.3533 41.2029 11.3161C41.1843 11.4912 41.1619 11.7073 41.1619 11.8154C41.1619 11.8936 41.27 12.1582 41.4041 12.3929C41.4973 12.4786 41.7432 12.732 41.7432 13.1158C41.7432 13.1419 41.7432 13.1642 41.7432 13.1828C41.7618 13.1828 41.7842 13.1828 41.8065 13.1828C41.9444 13.1828 42.3915 13.235 42.3915 13.9131C42.3915 14.1367 42.4325 14.1516 42.6002 14.2075C42.779 14.2671 42.8349 14.3938 42.8498 14.4609C42.8908 14.636 42.7977 14.826 42.5406 15.0831C42.4474 15.1763 42.3878 15.4855 42.3878 15.7203V15.765C42.3878 15.7836 42.3803 15.806 42.3692 15.8209L42.1083 16.1674C42.1083 16.1674 42.0897 16.1898 42.0748 16.1935L42.0487 16.2084C42.0487 16.2084 41.7134 16.391 41.6612 16.6965C41.5979 17.084 41.2439 17.3933 40.644 17.5945C40.603 17.6318 40.5657 17.9038 40.5471 18.0193C40.5322 18.1124 40.521 18.2056 40.5024 18.2913C40.4428 18.5894 40.0851 19.07 39.6566 19.6252C39.5672 19.7407 39.4889 19.8413 39.4554 19.8898C39.351 20.0463 39.202 20.7058 39.202 21.1417C39.202 21.3243 39.2728 21.4398 39.3958 21.6447C39.5001 21.8161 39.6305 22.0323 39.7646 22.3601C39.8317 22.5315 39.8801 22.6582 39.91 22.7477C39.9646 22.8967 40.0677 23.0346 40.2192 23.1613L40.2788 23.2097C40.5844 23.4631 40.6179 23.6307 40.6254 23.7947C40.6254 23.827 40.6353 23.8531 40.6552 23.8729C40.916 24.1338 41.2215 25.0392 41.2998 26.2576C41.3482 27.055 41.1321 27.4649 40.9421 27.6698C40.7781 27.8412 40.5657 27.9418 40.3534 27.9418C40.0851 27.9418 39.8429 27.6512 39.5597 27.3158C39.4367 27.1705 39.2542 26.9507 39.1685 26.906C38.93 26.7867 38.8219 26.5296 38.6729 26.1756C38.576 25.9484 38.4605 25.6726 38.2817 25.3745C37.9612 24.8417 37.9836 24.648 38.0581 24.3983C38.0842 24.3126 38.1065 24.2344 38.1065 24.104C38.1065 23.6643 37.9948 23.545 37.7414 23.4444C37.6296 23.3997 37.5029 23.3401 37.3725 23.2805C37.0595 23.1352 36.7093 22.9712 36.3255 22.8743H36.318C36.2882 23.0383 36.1988 23.206 36.0423 23.3848C35.8038 23.6568 35.6399 23.7686 35.4834 23.7686C35.1592 23.7686 35.1443 23.4072 35.1443 23.1948C35.1108 23.1799 35.0214 23.1501 34.8425 23.1501C34.6525 23.1501 34.4215 23.1799 34.1904 23.2395C33.5831 23.3923 33.5011 23.3923 33.1956 23.3923C32.9459 23.3923 32.6851 23.247 32.5286 23.1426C32.3274 23.247 31.9958 23.3923 31.7499 23.3923C31.6791 23.3923 31.6045 23.4109 31.5412 23.437L31.9436 23.8394C31.9697 23.8655 31.9772 23.899 31.966 23.9326C31.9548 23.9661 31.9287 23.9922 31.8915 23.9959L31.6418 24.0369C31.5785 24.0481 31.5188 24.0704 31.4816 24.089C31.5412 24.1971 31.6455 24.2753 31.6604 24.2828L32.0107 24.5213C32.0442 24.5436 32.0591 24.5846 32.0479 24.6256C32.0368 24.6666 31.9995 24.6927 31.9585 24.6927H30.7587L30.606 24.8454C30.5128 24.9386 30.4085 24.987 30.2967 24.987C30.1216 24.987 29.9874 24.8752 29.8309 24.7448C29.7527 24.6778 29.6521 24.5958 29.5291 24.5138L29.4881 24.4877C29.4397 24.4952 29.3801 24.4877 29.3093 24.4728C29.2869 24.4691 29.2608 24.4654 29.231 24.4654C29.0522 24.4654 28.81 24.566 28.7392 24.5995L28.7019 24.6181C28.7019 24.6181 28.6647 24.6293 28.646 24.6256L28.6051 24.6181C28.6051 24.6181 28.1654 24.5436 27.804 24.4728C27.6698 24.4467 27.368 24.525 27.1146 24.5921C26.8165 24.6703 26.5781 24.7299 26.4253 24.6889C26.4179 24.7188 26.4067 24.7672 26.4067 24.8305C26.4067 25.1137 26.3769 25.2404 26.0527 25.5683C25.8515 25.7695 25.5385 25.8515 25.1845 25.7993C25.0616 25.9446 24.7858 26.2725 24.6256 26.4849L24.566 26.5632C24.3722 26.824 24.2157 27.0326 23.9736 27.1295C23.9736 27.1817 23.9885 27.2935 23.9959 27.3419C24.0071 27.4239 24.022 27.5058 24.022 27.5804C24.022 27.6139 24.022 27.6512 24.0257 27.6959C24.0332 27.8412 24.0406 28.0387 24.0034 28.307C23.9773 28.497 23.9326 28.6833 23.8655 28.8808L23.832 28.9776C23.8208 29.0149 23.7835 29.041 23.7425 29.041L23.7761 29ZM19.3271 24.5772C19.424 24.5772 19.5395 24.6517 19.6811 24.8156C19.9308 25.0988 20.0202 25.259 20.0984 25.4006C20.1804 25.5422 20.2549 25.6801 20.4785 25.8999C20.7281 26.1496 20.8809 26.3284 21.0076 26.47C21.1045 26.5855 21.1827 26.6749 21.2759 26.7681C21.3541 26.8463 21.4175 26.865 21.4659 26.8799C21.4808 26.8836 21.492 26.8873 21.4994 26.8911C21.5144 26.8985 21.5293 26.9097 21.5404 26.9209C21.5553 26.9432 21.5926 26.9917 21.6299 27.3233C21.6448 27.4686 21.6522 27.5804 21.6559 27.6735C21.6708 27.9977 21.6746 28.0722 22.0807 28.3628C22.5949 28.728 23.6792 28.8025 23.6904 28.8025H23.7202L23.7276 28.7764C23.791 28.5901 23.832 28.4113 23.858 28.2362C23.8953 27.9865 23.8841 27.8002 23.8767 27.6623C23.8767 27.6139 23.873 27.5729 23.873 27.5394C23.873 27.476 23.8618 27.4052 23.8506 27.3307C23.8208 27.1481 23.791 26.9656 23.9214 26.9209C24.13 26.8538 24.2716 26.6563 24.4579 26.4104L24.5176 26.3284C24.6964 26.0899 25.0206 25.7062 25.1175 25.5944C25.1398 25.5683 25.1733 25.5571 25.2032 25.5646C25.5161 25.6205 25.7956 25.5608 25.9595 25.3932C26.2614 25.0914 26.2614 25.0094 26.2614 24.7895C26.2614 24.5362 26.3508 24.4132 26.5036 24.4654C26.6042 24.4989 26.8352 24.443 27.1035 24.3722C27.3829 24.2977 27.7183 24.2195 27.8822 24.2493C28.2399 24.3201 28.6759 24.3946 28.6796 24.3946H28.6908H28.7019C28.7019 24.3946 29.0187 24.2381 29.2758 24.2381C29.3205 24.2381 29.3615 24.2418 29.3987 24.253C29.4546 24.2679 29.4919 24.2679 29.5179 24.2604C29.5478 24.2493 29.5776 24.253 29.6036 24.2716L29.6782 24.3201C29.8086 24.4058 29.9129 24.4952 29.9949 24.5623C30.2073 24.7411 30.36 24.838 30.5203 24.674L30.6991 24.4952C30.6991 24.4952 30.7401 24.4691 30.7662 24.4691H31.7014L31.6008 24.402C31.5636 24.376 31.3884 24.2455 31.3251 24.0592C31.3251 24.0481 31.3176 24.0332 31.3176 24.0257C31.3176 24.0183 31.3176 24.0071 31.3214 23.9959C31.3624 23.8729 31.653 23.8208 31.6567 23.817L31.7275 23.8059L31.3586 23.437C31.3363 23.4146 31.3288 23.3885 31.3325 23.3587C31.3363 23.3289 31.3549 23.3028 31.381 23.2917C31.5338 23.2097 31.6716 23.1687 31.7946 23.1687C32.0293 23.1687 32.3907 22.9899 32.5361 22.9153C32.5659 22.9004 32.6031 22.9004 32.6329 22.9228C32.7373 22.9973 33.0055 23.1724 33.2403 23.1724C33.5272 23.1724 33.6054 23.1724 34.1904 23.0271C34.4326 22.9675 34.6786 22.934 34.8872 22.934C35.1965 22.934 35.3753 23.0085 35.3753 23.1352C35.3753 23.4072 35.4014 23.5525 35.5281 23.5525C35.6212 23.5525 35.7554 23.4519 35.9454 23.232C36.1056 23.0495 36.1839 22.8855 36.1839 22.7253C36.1839 22.6955 36.1988 22.6694 36.2211 22.6545C36.2435 22.6359 36.2733 22.6322 36.2994 22.6359L36.4149 22.6657C36.8173 22.7663 37.175 22.934 37.488 23.0793C37.6221 23.1426 37.7451 23.1985 37.8532 23.2432C38.1587 23.3662 38.3376 23.5413 38.3376 24.0779C38.3376 24.2344 38.3077 24.335 38.2817 24.4244C38.2258 24.6144 38.1848 24.7523 38.4866 25.2553C38.6729 25.5608 38.7921 25.8478 38.889 26.075C39.0232 26.3955 39.12 26.6265 39.2989 26.7159C39.4107 26.7718 39.556 26.9395 39.7497 27.1705C39.9919 27.4574 40.2192 27.7294 40.4018 27.7294C40.562 27.7294 40.726 27.6512 40.8526 27.517C41.0166 27.3419 41.2066 26.9767 41.1582 26.2427C41.0799 25.0094 40.7669 24.1747 40.5695 23.9773C40.4949 23.9027 40.4875 23.8506 40.4838 23.7761C40.48 23.668 40.4726 23.545 40.2043 23.3252L40.1447 23.2768C39.8876 23.0606 39.8764 23.0495 39.7795 22.7849C39.746 22.6955 39.7013 22.5725 39.6342 22.4011C39.5075 22.0881 39.3809 21.8795 39.2802 21.7155C39.1461 21.4957 39.0567 21.3504 39.0567 21.1156C39.0567 20.7095 39.1945 19.9792 39.3399 19.7631C39.3734 19.7109 39.4554 19.6066 39.5485 19.4873C39.9286 18.9918 40.3049 18.4888 40.3571 18.2317C40.372 18.146 40.3869 18.0603 40.3981 17.9746C40.4465 17.6467 40.4875 17.4343 40.6216 17.3896C41.1545 17.2107 41.46 16.9536 41.5159 16.6369C41.5792 16.2457 41.9556 16.037 42.0003 16.0147H42.0115L42.2425 15.6905C42.2425 15.4967 42.2872 15.0831 42.4474 14.9192C42.6449 14.7217 42.7306 14.5764 42.7045 14.4721C42.6896 14.4162 42.6486 14.3752 42.5778 14.3491C42.3692 14.2783 42.2425 14.2112 42.2425 13.8796C42.2425 13.4064 41.9928 13.3356 41.8438 13.3356C41.8065 13.3356 41.7767 13.3356 41.7506 13.3356C41.7283 13.3356 41.7134 13.3356 41.6947 13.3356C41.65 13.3356 41.6128 13.3058 41.6016 13.2611C41.5941 13.2201 41.5904 13.1605 41.5904 13.0785C41.5904 12.7543 41.3706 12.542 41.3035 12.4861C41.2961 12.4786 41.2886 12.4712 41.2849 12.46C41.2737 12.4413 41.0129 11.9719 41.0129 11.7781C41.0129 11.6365 41.0427 11.3422 41.0688 11.1223C41.0688 11.0925 41.0874 11.0702 41.1097 11.0553C41.1321 11.0403 41.1619 11.0366 41.188 11.0441C41.2961 11.0776 41.4414 11.1633 41.5159 11.3571C41.5867 11.5285 41.6836 11.6067 41.773 11.6775C41.8736 11.7558 41.9481 11.8154 41.9481 11.9942C41.9481 12.3706 42.2499 12.5978 42.2537 12.6016L42.3021 12.6388L42.3133 12.5792C42.3878 12.1768 42.4362 11.7036 42.3841 11.5471C42.358 11.4651 42.2723 11.372 42.1791 11.2714C42.0115 11.0888 41.8214 10.8801 41.9444 10.7125C42.045 10.5783 42.2611 10.5038 42.5517 10.5038C42.6374 10.5038 42.6971 10.5112 42.7045 10.5112H42.738L42.7455 10.4852C42.7455 10.4777 42.8908 9.90017 42.8908 9.53502C42.8908 9.27419 42.9281 9.00964 42.9504 8.87923C42.9542 8.85315 42.9691 8.83079 42.9951 8.81588L43.6696 8.41347C44.031 8.10421 44.0347 7.95889 44.0273 7.92163C44.0198 7.88437 43.9937 7.85456 43.949 7.83965C43.8 7.79122 43.569 7.90672 43.3752 8.01105C43.2746 8.06695 43.1963 8.10793 43.1293 8.13029C43.0585 8.15264 42.9504 8.16755 42.8535 8.16755H42.82C42.779 8.16755 42.7455 8.13774 42.7343 8.10048C42.7231 8.06322 42.7343 8.02223 42.7716 7.99988L42.7977 7.98125C43.2224 7.69806 43.8633 7.41116 44.0906 7.33291C44.3142 7.25839 44.6048 7.04228 44.6048 7.03855L45.3426 6.37531V6.3604C45.3426 6.3604 45.3426 5.96172 45.0147 5.96172C44.9327 5.96172 44.8544 5.98407 44.7799 6.0027C44.7129 6.02133 44.6607 6.03251 44.616 6.03251C44.6123 6.03251 44.5936 6.03251 44.5862 6.03251C44.5601 6.03251 44.5526 6.02506 44.534 6.00643C44.4893 5.96172 44.4707 5.86484 44.4707 5.71207C44.4707 5.52949 44.4558 5.36182 44.4446 5.21278C44.4185 4.89233 44.3961 4.64641 44.534 4.50855C44.6085 4.4303 44.698 4.38186 44.7837 4.33342C44.9364 4.24772 45.0966 4.1583 45.1935 3.9161C45.3351 3.56213 45.7599 3.13735 45.7673 3.13363L46.4939 2.02326H46.4306C46.4306 2.02326 46.4157 2.02326 46.4082 2.02326C46.2592 1.986 45.7636 1.56495 45.5177 1.14018C45.2718 0.71541 45.0072 0.29809 44.7352 0.219843C44.5675 0.171404 44.4036 0.204938 44.2061 0.257103C44.1092 0.283186 44.0086 0.305542 43.8894 0.327899C43.5242 0.394968 43.3156 0.763849 43.3156 1.34139C43.3156 1.79224 43.282 2.66042 43.0622 3.39073C42.9355 3.81923 42.0487 3.95709 41.0762 4.0726C40.6812 4.12104 40.3385 4.16202 40.1894 4.23282C39.9249 4.36323 39.8615 4.48992 39.8019 4.61288C39.7609 4.69858 39.7162 4.788 39.6007 4.88861C39.5634 4.91842 39.5373 4.93705 39.5224 4.94822C39.4926 4.96686 39.4554 4.96686 39.4256 4.94822L39.4032 4.97803C39.3622 5.03765 38.9933 5.56675 38.6915 5.86484C38.3934 6.16292 38.155 6.28961 37.8867 6.28961C37.8681 6.28961 37.8494 6.28961 37.8345 6.28216C37.8085 6.27471 37.7824 6.25607 37.7712 6.22999C37.76 6.20391 37.7563 6.17038 37.7563 6.12194C37.7488 5.99152 37.7078 5.99152 37.6818 5.9878C37.6557 5.9878 37.6371 5.99525 37.6221 6.01388C37.5886 6.05487 37.5774 6.1592 37.5923 6.29334C37.5923 6.31197 37.5923 6.3306 37.5849 6.3455L37.3278 6.88578L37.4284 6.87088C37.4545 6.87088 37.4768 6.87088 37.4955 6.88951C37.5812 6.95285 37.7302 7.19877 37.7414 7.29192C37.7414 7.35154 37.7712 7.38135 37.8122 7.41861C37.8979 7.49313 37.924 7.55647 37.8532 7.72415L37.842 7.75023C37.7004 8.06695 37.488 8.55133 37.1117 8.75627C36.9664 8.83452 36.8061 8.9612 36.6347 9.09161C36.3404 9.3189 36.0423 9.54992 35.8262 9.54992C35.6809 9.54992 35.4648 9.70269 35.2934 9.82192C35.1369 9.93371 35.0102 10.0194 34.9096 10.0269C34.8872 10.0269 34.8574 10.0194 34.8388 10.0008L34.7233 9.88527C34.6972 9.85919 34.6897 9.8182 34.7009 9.78466L34.7382 9.68779C34.8052 9.51266 34.8611 9.36734 34.9878 9.18477C35.0623 9.08416 35.3008 8.73391 35.3567 8.52153C35.3604 8.5029 35.3753 8.45818 35.4312 8.36876L35.4946 8.2607L35.3828 8.31659C35.3828 8.31659 35.3492 8.3315 35.3381 8.3315C35.1965 8.35385 35.0288 8.16755 34.958 7.9887C34.9021 7.84711 34.835 7.63099 34.8201 7.45214V7.40743L34.7754 7.41861C34.6786 7.44097 34.5742 7.4596 34.5258 7.4596C34.455 7.4596 34.3693 7.51549 34.2724 7.58256C34.2016 7.631 34.1196 7.68316 34.0414 7.71669C34.0116 7.72787 33.9818 7.72415 33.9557 7.70924C33.9296 7.69434 33.9147 7.66826 33.911 7.63845C33.911 7.60491 33.911 7.56393 33.911 7.53412C33.911 7.4596 33.9631 7.34036 34.0638 7.14288C34.101 7.06836 34.1383 6.99384 34.1644 6.93049C34.2463 6.72183 33.9781 6.27843 33.6837 6.02133C33.5905 5.93936 33.4564 5.89837 33.2775 5.89837C33.1099 5.89837 32.9236 5.93191 32.7596 5.96544C32.6292 5.99152 32.5137 6.01388 32.4317 6.01388C32.1895 6.01388 32.1448 6.15174 32.1225 6.29334C32.1187 6.31942 32.1113 6.3455 32.1076 6.3604C32.0964 6.39767 32.0629 6.46474 31.9809 6.62123C31.8915 6.79636 31.7871 6.99384 31.7461 7.12425C31.6753 7.33291 31.6679 8.0036 31.7089 8.43955C31.7238 8.6184 31.7759 8.82706 31.8318 9.0469C31.9026 9.33008 31.9772 9.62444 31.9958 9.92253C32.0293 10.4367 31.8318 10.6826 31.6455 10.8689C31.6269 10.8876 31.5859 10.9062 31.5598 10.9062C31.4779 10.9062 31.4406 10.8391 31.2729 10.5112C31.1835 10.3398 31.0754 10.1275 30.9711 9.95979C30.8295 9.7325 30.7997 9.27792 30.7774 8.8755C30.7736 8.78235 30.7662 8.6892 30.7587 8.6035C30.7215 8.12284 30.7587 7.76886 30.8295 7.38507C30.8705 7.16524 30.8966 7.046 30.9301 6.91932C30.9562 6.81126 30.9786 6.71066 31.0121 6.55416C31.0456 6.37904 31.0456 6.26725 31.0009 6.21509C30.986 6.19646 30.9637 6.18528 30.9376 6.18528L30.8891 6.09958L30.9078 6.19273C30.8034 6.25235 30.6358 6.32687 30.5277 6.3455C30.4942 6.35295 30.4606 6.33805 30.4383 6.31197C30.4159 6.28588 30.4122 6.24862 30.4234 6.21881C30.4606 6.12566 30.5463 5.99525 30.6768 5.82758C30.8183 5.645 31.1835 5.57793 31.5263 5.53322C31.6791 5.51459 31.8318 5.42889 31.966 5.35064C32.0964 5.27612 32.2156 5.20905 32.3162 5.20905C32.8118 5.20905 33.1844 5.1308 33.244 5.01157C33.2664 4.96686 33.285 4.91469 33.2589 4.86998C33.2217 4.81036 33.1322 4.80663 32.972 4.80663C32.931 4.80663 32.9012 4.79546 32.8789 4.76937C32.8081 4.69485 32.823 4.53463 32.823 4.52718V4.48619H32.7857C32.6888 4.48619 32.4206 4.47129 32.3311 4.41167C32.32 4.40422 32.3125 4.39677 32.3088 4.38931C32.2342 4.28498 31.9883 4.35951 31.7871 4.44148L31.6828 4.48619C31.4965 4.56071 31.1872 4.6874 30.7177 4.81409C30.6283 4.83644 30.5501 4.85135 30.4793 4.85135C30.293 4.85135 30.211 4.76937 30.1439 4.69485C30.1067 4.65759 30.0731 4.62033 30.0284 4.60543C29.9874 4.59052 29.9613 4.54954 29.9688 4.50482C29.9725 4.46756 29.9912 4.4154 30.0172 4.34088L30.0359 4.28498C30.0545 4.22909 30.0284 4.15085 29.9576 4.05397C29.8756 3.94219 29.7266 3.81177 29.5925 3.83786C29.4695 3.86394 29.205 4.12104 28.8137 4.51227C28.6498 4.67622 28.5007 4.82526 28.3852 4.92959C28.266 5.03765 28.1691 5.08609 28.0834 5.08609C27.9679 5.08609 27.8859 4.98176 27.8077 4.88488L27.7891 4.86253C27.7034 4.7582 27.5618 4.79173 27.4164 4.85507C27.3866 4.86998 27.3568 4.88116 27.327 4.89233C27.286 4.90724 27.2413 4.89233 27.2152 4.8588C27.1892 4.82154 27.1929 4.77683 27.2227 4.74329C27.2637 4.69858 27.3084 4.64641 27.3531 4.58307C27.5394 4.31852 27.8673 3.92728 28.035 3.75588C28.1318 3.659 28.2399 3.61802 28.3666 3.56585C28.4709 3.52487 28.5864 3.48015 28.7168 3.39818L28.7317 3.37582L28.7653 3.24914L28.7057 3.26404C28.538 3.3013 28.225 3.29012 27.6139 3.22305C26.973 3.15226 26.0713 2.89889 26.0639 2.89889C26.0341 2.89889 25.5422 2.89889 25.2889 2.93615C25.069 2.96596 24.8604 2.84672 24.6293 2.65669L24.6033 2.63806C24.3834 2.45548 24.3014 2.39959 24.0816 2.50765C23.9214 2.58962 23.8171 2.77593 23.7723 2.88026C23.7574 2.91379 23.7239 2.93242 23.6829 2.93615C23.56 2.93242 11.4055 2.54118 11.0478 2.50392C10.7684 2.47784 6.33807 1.89657 3.72609 1.55378L3.4988 1.52397L3.37957 1.99718C3.37212 2.02326 3.35721 2.04562 3.33486 2.05679C3.3125 2.06797 3.28642 2.0717 3.26034 2.06425C3.01814 1.98227 2.54493 1.81087 2.13506 1.60594L2.10153 1.58731L2.08662 1.62457C2.08662 1.62457 1.93758 1.96737 1.93758 2.61571C1.93758 2.72004 1.93758 2.82809 1.94131 2.9436C1.95249 3.52859 1.96366 4.18438 1.72147 4.84389C1.57243 5.25376 1.47928 5.68599 1.3973 6.06605C1.31905 6.42375 1.24826 6.76655 1.14393 7.00874C1.04705 7.22858 0.938995 7.27329 0.842117 7.31428C0.719157 7.36272 0.603649 7.41116 0.562662 7.74278C0.540306 7.93281 0.55521 8.15265 0.570114 8.38739C0.603649 8.88295 0.64091 9.44186 0.350276 9.97097C0.0782732 10.4665 0.163973 10.7199 0.257124 10.9882C0.313016 11.1559 0.372633 11.3273 0.34655 11.5732C0.290659 12.0613 0.517949 12.6277 0.666992 13.004C0.719157 13.1381 0.76387 13.2499 0.7825 13.3207C0.808583 13.425 0.871926 13.4735 0.979982 13.4735C1.00606 13.4735 1.03215 13.4735 1.05823 13.4697C1.19982 13.4548 1.26316 13.4809 1.28925 13.6113C1.36004 13.969 1.36004 14.1852 1.36004 14.6174C1.36004 14.8484 1.42338 15.0682 1.47555 15.2583C1.52771 15.4371 1.57615 15.6085 1.57615 15.7762C1.57615 15.9737 1.67676 16.1264 1.78109 16.2904C1.87424 16.432 1.97857 16.5922 2.0121 16.7971C2.03819 16.9648 1.97484 17.0878 1.92268 17.1884C1.87796 17.2741 1.83698 17.3523 1.86679 17.4306C1.89287 17.5014 1.96739 17.561 2.10898 17.6206C2.66417 17.8591 3.07403 18.1534 3.25288 18.336C3.33858 18.4217 3.469 18.4925 3.62177 18.5745C3.87514 18.7086 4.15832 18.8614 4.33344 19.1259C4.60172 19.5283 4.81038 20.2549 4.83274 20.3369L4.91098 20.8101L4.94825 20.8027C4.94825 20.8027 6.17412 20.5605 6.83364 20.5605C7.00504 20.5605 7.128 20.5791 7.18761 20.6089C7.20624 20.6163 7.21742 20.6313 7.2286 20.6499C7.2435 20.6797 7.25468 20.7058 7.26959 20.7356C7.39255 20.9927 7.51923 21.261 8.10795 21.5255C8.39859 21.6559 8.70785 21.7677 9.00966 21.8758C9.37109 22.0062 9.71016 22.1291 9.91137 22.2484L10.0008 22.3005C10.325 22.498 10.6305 22.6843 11.3049 22.6843C12.0166 22.6843 13.1009 22.7551 13.1121 22.7551H13.1381L13.2611 22.4458C13.276 22.4123 13.3058 22.39 13.3431 22.3862C13.3803 22.3862 13.4288 22.3862 13.4847 22.3862C13.7418 22.3862 14.2299 22.416 14.6137 22.6061C14.9975 22.7961 15.3775 23.2395 15.6942 23.6009C15.8694 23.7984 16.0184 23.9698 16.1265 24.0481C16.2382 24.1338 16.3053 24.2642 16.3836 24.4169C16.4953 24.6368 16.622 24.8864 16.9276 25.0616C17.1176 25.1696 17.2629 25.3261 17.3933 25.4677C17.5349 25.6205 17.6579 25.7509 17.7846 25.7509C17.8554 25.7509 17.9224 25.7099 17.9895 25.6316C18.0901 25.5087 18.1385 25.4081 18.1795 25.3261C18.2652 25.1584 18.3137 25.0802 18.6229 24.9908C18.8018 24.9386 18.9285 24.838 19.0365 24.7448C19.1408 24.6591 19.2228 24.5921 19.316 24.5921L19.3271 24.5772ZM31.489 23.9922C31.489 23.9922 31.489 23.9922 31.489 23.9996C31.489 23.9996 31.489 23.9959 31.489 23.9922ZM23.5935 28.7243H23.586C23.2768 28.6945 22.5167 28.5901 22.118 28.307C21.7565 28.0499 21.7416 27.9977 21.7267 27.6772C21.723 27.5841 21.7156 27.4686 21.7007 27.3195C21.6522 26.8799 21.6 26.8463 21.4845 26.8128C21.4398 26.7979 21.3914 26.783 21.328 26.7197C21.2386 26.6302 21.1604 26.5408 21.0709 26.4365C20.9443 26.2874 20.784 26.1048 20.5307 25.8515C20.3146 25.6354 20.2438 25.5124 20.1618 25.3671C20.0798 25.2218 19.9904 25.0578 19.7333 24.7709C19.5731 24.5883 19.4464 24.5064 19.3234 24.5064C19.2005 24.5064 19.1036 24.5883 18.9993 24.674C18.8949 24.7597 18.7757 24.8566 18.608 24.9051C18.254 25.0057 18.2019 25.1137 18.1199 25.2777C18.0826 25.3559 18.0342 25.4528 17.9373 25.5683C17.7995 25.7434 17.71 25.6764 17.4567 25.4006C17.33 25.2628 17.1735 25.0951 16.976 24.9796C16.6891 24.8156 16.5699 24.5772 16.4618 24.3648C16.3836 24.212 16.3128 24.0667 16.1823 23.9698C16.0817 23.8953 15.9439 23.7351 15.765 23.5339C15.4409 23.165 15.0384 22.7104 14.6584 22.5204C14.2821 22.3303 13.8163 22.2931 13.4958 22.2931C13.358 22.2931 13.2723 22.3005 13.2648 22.3005H13.2425L13.1232 22.5986C13.1083 22.6359 13.0674 22.6582 13.0301 22.6582C12.7022 22.6396 11.8825 22.5912 11.3124 22.5912C10.6603 22.5912 10.3622 22.4086 10.0492 22.2186L9.95981 22.1627C9.75488 22.0397 9.42698 21.9205 9.04692 21.7863C8.76374 21.6857 8.43957 21.5702 8.14894 21.4398C7.58258 21.1864 7.46334 20.9331 7.34783 20.6871C7.33293 20.6536 7.31803 20.6238 7.30312 20.5903C7.27704 20.5381 7.20252 20.471 6.84854 20.471C6.30826 20.471 5.43263 20.6238 5.08238 20.6909C5.0563 20.6946 5.03395 20.6909 5.01159 20.676C4.98923 20.6611 4.97805 20.6387 4.97433 20.6163L4.92589 20.3145C4.92589 20.3145 4.70605 19.506 4.41542 19.07C4.22911 18.7906 3.92358 18.6266 3.67766 18.4962C3.53234 18.418 3.40193 18.3472 3.32368 18.2689C3.07776 18.023 2.61945 17.7361 2.15369 17.5386C2.04936 17.4939 1.98602 17.4529 1.95994 17.4082C1.95249 17.397 1.94876 17.3821 1.94876 17.3672C1.94876 17.3262 1.96366 17.289 2.00465 17.207C2.06427 17.0952 2.13506 16.9611 2.10153 16.771C2.06427 16.5549 1.95994 16.3947 1.86306 16.2382C1.76246 16.0854 1.6693 15.9401 1.6693 15.765C1.6693 15.5899 1.61714 15.4073 1.5687 15.2322C1.51281 15.0347 1.45319 14.8335 1.45319 14.6099C1.45319 14.174 1.45319 13.9541 1.37867 13.589C1.34141 13.4064 1.22963 13.384 1.14766 13.384C1.12157 13.384 1.09176 13.384 1.06941 13.3878C0.987434 13.3952 0.968804 13.3952 0.942721 13.3878C0.920365 13.3803 0.901735 13.3654 0.890556 13.3431C0.883104 13.3282 0.879378 13.3133 0.871926 13.2983C0.853296 13.2164 0.804857 13.1046 0.752692 12.9705C0.607375 12.6016 0.387537 12.0464 0.439702 11.5732C0.46951 11.3086 0.406167 11.1298 0.34655 10.9546C0.257125 10.6901 0.178877 10.4665 0.435976 9.99705C0.734061 9.44932 0.696801 8.85315 0.663266 8.37248C0.648362 8.14147 0.633457 7.92535 0.655814 7.74278C0.689349 7.48568 0.756418 7.42979 0.890556 7.3739C0.994886 7.33291 1.1253 7.27702 1.23335 7.02737C1.34141 6.774 1.41593 6.4312 1.49045 6.06977C1.57243 5.68599 1.66558 5.25749 1.8109 4.85507C2.05682 4.18065 2.04564 3.51741 2.03446 2.9287C2.03446 2.81319 2.03073 2.70513 2.03073 2.6008C2.03073 2.21329 2.0829 1.94129 2.12389 1.78107C2.13134 1.75498 2.14997 1.73263 2.17605 1.72145C2.20213 1.71027 2.23194 1.71027 2.2543 1.72145C2.80576 1.98227 3.38702 2.16485 3.39075 2.16485L3.42801 2.17603L3.5547 1.67301C3.56587 1.6283 3.60686 1.59476 3.65903 1.60221C3.94593 1.63948 10.7125 2.53001 11.0665 2.56354C11.4279 2.6008 23.6717 2.99204 23.7947 2.99576H23.8208L23.8282 2.96968C23.832 2.9585 23.9363 2.65669 24.1338 2.55609C24.3238 2.45921 24.3797 2.5151 24.5735 2.67532L24.5995 2.69768C24.8119 2.8728 25.0467 3.03303 25.3149 2.99576C25.5385 2.96223 25.967 2.9585 26.0527 2.9585C26.0527 2.9585 26.0676 2.9585 26.0788 2.9585C26.2316 2.99949 27.0215 3.2156 27.6214 3.27895C27.8822 3.30875 28.0797 3.32738 28.2399 3.33484C28.2846 3.33484 28.3182 3.36837 28.3256 3.41308C28.3331 3.4578 28.3107 3.49878 28.2697 3.51369C28.1654 3.5584 28.0797 3.60311 27.9977 3.68509C27.804 3.87884 27.4798 4.28126 27.3047 4.51973C27.2488 4.59797 27.1892 4.66504 27.1407 4.71721C27.0513 4.81409 27.014 4.86253 27.0289 4.91096C27.0438 4.95568 27.1035 4.97058 27.1482 4.97803C27.245 4.99294 27.3568 4.94823 27.4537 4.90724C27.5282 4.8737 27.5953 4.84762 27.6475 4.84762C27.6773 4.84762 27.722 4.86998 27.7406 4.89233L27.7592 4.91842C27.8487 5.0302 27.9418 5.14943 28.0946 5.14943C28.1989 5.14943 28.3144 5.08982 28.4448 4.97058C28.5678 4.86253 28.7168 4.70976 28.8771 4.54954C29.2981 4.12849 29.5105 3.92728 29.6148 3.89747C29.7564 3.85276 29.9502 4.10241 29.9725 4.20674C29.9725 4.22164 29.9725 4.24027 29.9725 4.25518L29.9613 4.28126C29.9241 4.38559 29.8756 4.50855 29.9166 4.5868C29.9315 4.62033 29.9613 4.63896 29.9986 4.65014C30.0396 4.66877 30.0582 4.68367 30.0918 4.72093C30.1626 4.79546 30.2669 4.90351 30.4867 4.90351C30.565 4.90351 30.6469 4.89233 30.7438 4.86625C31.217 4.73956 31.53 4.61288 31.7163 4.53463L31.8244 4.49364C31.966 4.43775 32.0927 4.38931 32.1821 4.38931C32.2119 4.38931 32.2454 4.40422 32.2641 4.42658C32.2864 4.45638 32.3758 4.52718 32.6739 4.54208C32.7186 4.54208 32.7559 4.57934 32.7634 4.62406C32.7708 4.67622 32.7894 4.75447 32.8341 4.80663C32.8714 4.84762 32.9236 4.86998 32.9832 4.86998C33.0316 4.86998 33.0763 4.90351 33.0801 4.95195C33.0838 4.99666 33.0614 5.04138 33.0167 5.05256C32.8491 5.09354 32.5696 5.12335 32.3237 5.12335C32.2082 5.12335 32.0778 5.19787 31.9399 5.27612C31.802 5.35437 31.6642 5.43261 31.5226 5.45124C31.15 5.49596 30.7811 5.57048 30.6246 5.77169C30.3898 6.0735 30.3004 6.2598 30.3489 6.35295C30.3973 6.44983 30.5687 6.4312 30.837 6.30451C30.8668 6.28961 30.904 6.29334 30.9301 6.31197C30.9562 6.3306 30.9711 6.36413 30.9674 6.39767C30.9674 6.4312 30.9599 6.47219 30.9488 6.52808C30.9152 6.6883 30.8929 6.7889 30.8668 6.88951C30.837 7.01619 30.8072 7.13543 30.7662 7.35899C30.7066 7.69806 30.6544 8.08185 30.6917 8.59605C30.6991 8.68175 30.7028 8.77117 30.7103 8.86432C30.7364 9.29655 30.7625 9.74368 30.9152 9.98587C30.9786 10.0865 31.0419 10.202 31.109 10.3175C31.2357 10.5411 31.4704 10.9546 31.5636 10.9658C31.6157 10.9658 31.6604 10.9472 31.7014 10.9062C31.9473 10.6603 32.1076 10.392 32.074 9.90017C32.0554 9.59463 31.9771 9.28537 31.9064 9.01337C31.8505 8.79353 31.7983 8.59232 31.7834 8.4172C31.7499 8.04832 31.7461 7.34409 31.8169 7.1317C31.8579 7.00874 31.9548 6.81871 32.0405 6.65104C32.1187 6.502 32.1635 6.4163 32.1784 6.37158C32.1858 6.3455 32.1895 6.31942 32.197 6.29334C32.2193 6.1592 32.2492 6.06977 32.4355 6.06977C32.5249 6.06977 32.6404 6.04742 32.7745 6.02133C32.9347 5.99152 33.1173 5.95799 33.2813 5.95799C33.4452 5.95799 33.5607 5.99152 33.639 6.06232C33.9296 6.31569 34.1606 6.73301 34.101 6.88951C34.0787 6.9454 34.0414 7.01992 34.0041 7.09444C33.9259 7.25094 33.8439 7.41116 33.8439 7.51921C33.8439 7.57883 33.8439 7.64217 33.8588 7.69061C33.8774 7.75395 33.9371 7.82475 34.0749 7.76886C34.1606 7.73532 34.2426 7.67943 34.3209 7.62727C34.4364 7.54902 34.4811 7.52294 34.5183 7.51921C34.563 7.51921 34.6115 7.51176 34.6636 7.50431C34.7121 7.49313 34.7605 7.53039 34.7717 7.57883C34.7978 7.71297 34.8388 7.86574 34.8947 7.99988C34.9543 8.14892 35.081 8.32032 35.23 8.37248C35.2673 8.38739 35.2934 8.42092 35.2934 8.46191C35.2934 8.46936 35.2934 8.47681 35.2934 8.48427C35.2598 8.6184 35.122 8.8606 34.9356 9.12142C34.8015 9.30773 34.7456 9.46049 34.6823 9.62072C34.6599 9.68406 34.6338 9.7474 34.604 9.81447L34.5928 9.83683L34.8388 10.0827C34.8388 10.0827 34.8798 10.0604 34.9133 10.0455C35.2822 9.84801 35.6734 9.64307 35.8038 9.60954C36.0572 9.54247 36.3739 9.37107 36.6757 9.13633C36.8434 9.00591 37.0036 8.88295 37.1452 8.80471C37.5439 8.58859 37.7637 8.09303 37.9091 7.76513L37.9202 7.73905C38.0283 7.49313 37.9277 7.40743 37.8606 7.34781C37.842 7.33291 37.8159 7.29938 37.8122 7.27702C37.7973 7.16151 37.6557 6.90441 37.5215 6.81126C37.4843 6.78518 37.4694 6.73674 37.4917 6.69575L37.6482 6.37158C37.6594 6.34923 37.678 6.3306 37.7041 6.32314C37.7265 6.31569 37.7563 6.31569 37.7786 6.3306C37.8084 6.3455 37.8457 6.35295 37.8904 6.35295C38.1773 6.35295 38.4419 6.21509 38.7474 5.90955C38.9933 5.66363 39.2765 5.27984 39.4256 5.07119C39.4405 5.05255 39.4628 5.03765 39.4852 5.03392C39.5262 5.02647 39.5821 4.99294 39.6529 4.93332C39.7795 4.82154 39.828 4.72466 39.869 4.63523C39.9286 4.51227 39.9807 4.40794 40.2229 4.28871C40.3571 4.22164 40.6924 4.18065 41.0799 4.13594C41.8848 4.03906 42.9802 3.90865 43.133 3.39818C43.3528 2.66042 43.3864 1.78479 43.3864 1.32649C43.3864 1.07311 43.4348 0.469489 43.8968 0.387516C44.0235 0.365159 44.1279 0.339077 44.2173 0.31672C44.3961 0.272008 44.5489 0.231021 44.7129 0.27946C44.9588 0.350255 45.2233 0.775027 45.4506 1.16626C45.6295 1.4718 46.017 1.87794 46.2741 2.03071C46.2964 2.04189 46.3113 2.06425 46.3188 2.09033C46.3262 2.11641 46.3188 2.14249 46.3076 2.16112L45.7152 3.06656C45.7152 3.06656 45.7077 3.07774 45.704 3.08146C45.6593 3.12618 45.2643 3.53232 45.1264 3.87884C45.0408 4.09495 44.8992 4.1732 44.7501 4.2589C44.6644 4.30734 44.5675 4.36323 44.4856 4.44521C44.3253 4.60543 44.344 4.85507 44.3738 5.20532C44.385 5.33574 44.3999 5.51459 44.3999 5.70089C44.3999 5.97662 44.4669 6.09958 44.616 6.09958C44.6719 6.09958 44.7315 6.08468 44.7948 6.06605C44.8656 6.04742 44.9401 6.02506 45.0147 6.02506C45.0929 6.02506 45.2345 6.08095 45.2643 6.28216C45.268 6.31197 45.2569 6.34177 45.2345 6.36413L44.5638 6.96775C44.4893 7.02365 44.2508 7.19132 44.0682 7.25466C43.841 7.32918 43.1889 7.62354 42.7567 7.91045C42.671 7.96634 42.5629 8.05204 42.5853 8.13774C42.6114 8.21971 42.7418 8.23462 42.8498 8.23462C42.9579 8.23462 43.0734 8.21971 43.1479 8.19363C43.2224 8.16755 43.3156 8.11911 43.405 8.07067C43.5391 7.99615 43.6919 7.91418 43.8149 7.89927C43.8521 7.89555 43.8857 7.91045 43.908 7.94398C43.9304 7.97752 43.9267 8.01478 43.908 8.04459C43.8521 8.12656 43.7404 8.2458 43.6323 8.34267L42.8908 8.7898V8.80471C42.8759 8.86805 42.8163 9.19967 42.8163 9.53502C42.8163 9.79212 42.7418 10.161 42.6971 10.3585C42.6859 10.4032 42.6412 10.4255 42.6039 10.433H42.5517C42.3282 10.433 42.0338 10.474 41.8848 10.6715C41.7357 10.8727 41.9034 11.0851 42.1232 11.3235C42.2238 11.4353 42.2909 11.5098 42.3133 11.5732C42.3543 11.6961 42.3207 12.0278 42.2835 12.2849C42.276 12.3258 42.2462 12.3557 42.2089 12.3631C42.1679 12.3706 42.1307 12.3519 42.1121 12.3184C42.0562 12.2141 42.0264 12.106 42.0264 11.9942C42.0264 11.7781 41.922 11.6961 41.8252 11.6179C41.7432 11.5545 41.6538 11.4838 41.5904 11.3273C41.4376 10.9472 41.065 10.9435 41.0501 10.9435H41.0166V10.977C41.0054 11.0329 40.9384 11.5695 40.9384 11.7781C40.9384 11.957 41.1247 12.3296 41.2327 12.5196L41.2439 12.5308C41.2737 12.5531 41.5196 12.7543 41.5196 13.0785C41.5196 13.2164 41.5308 13.2909 41.5532 13.3393C41.5979 13.425 41.6649 13.4139 41.7544 13.4064C41.7916 13.4064 41.8177 13.4064 41.8438 13.4064C42.0599 13.4064 42.1679 13.5629 42.1679 13.8759C42.1679 14.2597 42.3356 14.3454 42.5555 14.4162C42.5592 14.4162 42.5815 14.4273 42.589 14.4311C42.6263 14.4497 42.6449 14.4907 42.6337 14.5317C42.6188 14.6099 42.5368 14.7217 42.3952 14.8633C42.2387 15.0198 42.1754 15.37 42.1679 15.642C42.1679 15.6607 42.1605 15.6793 42.1493 15.6942L41.9742 15.9252C41.9742 15.9252 41.9556 15.9439 41.9444 15.9513C41.8438 16.0109 41.5084 16.227 41.4414 16.6145C41.378 16.9946 40.8862 17.2144 40.5993 17.3076C40.413 17.3709 40.372 17.6504 40.3273 17.9448C40.3124 18.0454 40.3012 18.1273 40.2863 18.2056C40.2379 18.4478 39.8503 18.9657 39.4889 19.4315C39.3883 19.5581 39.3138 19.655 39.2765 19.7109C39.12 19.9457 38.9822 20.6871 38.9822 21.1045C38.9822 21.3616 39.079 21.5218 39.2132 21.7416C39.3175 21.9093 39.4405 22.1142 39.5634 22.4198C39.6268 22.58 39.6715 22.6992 39.705 22.7886C39.8131 23.083 39.8205 23.0942 40.0963 23.3252L40.1559 23.3736C40.3794 23.5599 40.4018 23.6568 40.4092 23.7723C40.4092 23.8431 40.4167 23.9214 40.5173 24.022C40.7073 24.212 41.0091 25.0243 41.0837 26.239C41.1284 26.9469 40.9533 27.2897 40.7968 27.4574C40.6365 27.6288 40.4651 27.6474 40.3981 27.6474C40.2863 27.6474 40.141 27.517 39.8019 27.1109C39.6193 26.8911 39.4591 26.7047 39.3287 26.6377C39.1759 26.5594 39.0828 26.3433 38.9561 26.0378C38.8555 25.803 38.7362 25.5161 38.5499 25.2031C38.2779 24.7486 38.2966 24.6256 38.3525 24.4318C38.3785 24.3424 38.4121 24.2344 38.4121 24.063C38.4121 23.5599 38.2705 23.314 37.883 23.1613C37.7749 23.1165 37.652 23.0606 37.5215 23.001C37.2197 22.8594 36.8397 22.6843 36.4335 22.5837C36.1913 22.5241 36.1541 22.5166 36.1205 22.5539C36.1019 22.5725 36.1019 22.5986 36.1056 22.6433C36.1131 22.7253 36.1317 22.9004 35.8895 23.1762C35.7703 23.3103 35.6697 23.4034 35.6026 23.4444C35.5765 23.4593 35.5467 23.4631 35.5169 23.4482C35.4871 23.4333 35.4685 23.4109 35.4648 23.3811C35.4498 23.3177 35.4498 23.2209 35.4498 23.124C35.4498 22.8818 35.0996 22.8483 34.8872 22.8483C34.6748 22.8483 34.4215 22.8818 34.1718 22.9451C33.598 23.0905 33.5272 23.0905 33.2403 23.0905C32.9534 23.0905 32.618 22.811 32.6143 22.811L32.5957 22.7961L32.5733 22.8073C32.5733 22.8073 32.074 23.0905 31.7946 23.0905C31.4965 23.0905 31.1984 23.314 31.1947 23.314L31.1611 23.3401L31.4704 23.6494C31.4928 23.6717 31.5002 23.7015 31.4965 23.7313C31.489 23.7612 31.4704 23.7872 31.4406 23.7984C31.3586 23.8357 31.299 23.8804 31.2692 23.9288C31.2431 23.9735 31.2357 24.0257 31.2543 24.0779C31.2729 24.1338 31.3027 24.1896 31.34 24.2418C31.3586 24.2716 31.3623 24.3089 31.3474 24.3387C31.3325 24.3685 31.299 24.3909 31.2655 24.3909H30.6954L30.4681 24.6181C30.3489 24.7411 30.2594 24.6815 30.0433 24.4989C29.9539 24.4244 29.8496 24.3387 29.7192 24.2493C29.5962 24.1673 29.5217 24.1151 29.503 24.1114H29.4695C29.4509 24.1487 29.4136 24.1673 29.3726 24.1636C29.1416 24.13 28.8174 24.253 28.7057 24.3014C28.6908 24.3089 28.6721 24.3126 28.6535 24.3089C28.538 24.2903 28.1915 24.2306 27.9008 24.171C27.7108 24.13 27.3904 24.212 27.0885 24.294C26.8464 24.3573 26.6191 24.4169 26.5296 24.3871C26.3247 24.3201 26.1906 24.4803 26.1906 24.7858C26.1906 25.0168 26.1682 25.0802 25.9111 25.3373C25.7993 25.4491 25.6354 25.5087 25.4304 25.5087C25.3038 25.5087 25.1957 25.4863 25.1584 25.4751L25.1286 25.4677L25.1137 25.4863C25.1137 25.4863 24.6815 25.9893 24.4617 26.2837L24.4021 26.3657C24.2195 26.6116 24.0853 26.7867 23.9028 26.8501C23.7314 26.906 23.7463 27.1034 23.7835 27.3382C23.7947 27.409 23.8059 27.4798 23.8059 27.5394C23.8059 27.5766 23.8059 27.6176 23.8096 27.6586C23.8171 27.8077 23.8245 27.9865 23.791 28.2287C23.7686 28.3703 23.7388 28.5119 23.6941 28.6572C23.6829 28.6982 23.6457 28.7243 23.6047 28.7243H23.5935ZM19.3271 24.3163C19.5097 24.3163 19.6774 24.4169 19.8786 24.6442C20.1469 24.9498 20.2438 25.1212 20.3257 25.2739C20.4077 25.4193 20.4636 25.5199 20.6611 25.7173C20.9182 25.9782 21.0784 26.1607 21.2088 26.3098C21.2982 26.4141 21.3728 26.4998 21.4585 26.5855C21.4883 26.6153 21.5032 26.619 21.5367 26.6302C21.7938 26.7047 21.8422 26.8985 21.887 27.2972C21.9056 27.4537 21.9093 27.5729 21.913 27.6661C21.9205 27.8449 22.0248 28.0064 22.226 28.1505C22.5614 28.3889 23.2321 28.4933 23.5264 28.5268C23.5562 28.415 23.5786 28.307 23.5935 28.1989C23.627 27.9753 23.6159 27.8077 23.6121 27.6735C23.6121 27.6214 23.6084 27.5766 23.6084 27.5357C23.6084 27.4909 23.5972 27.4276 23.5898 27.3643C23.56 27.1631 23.5003 26.783 23.8357 26.6712C23.9661 26.6265 24.0816 26.47 24.2456 26.2502L24.3052 26.1682C24.5287 25.8701 24.961 25.3671 24.9647 25.3596L25.0206 25.2963C25.0429 25.2702 25.0802 25.259 25.1175 25.2665L25.1957 25.2888C25.2292 25.2963 25.3187 25.3149 25.423 25.3149C25.5795 25.3149 25.695 25.2777 25.7695 25.1994C25.9931 24.9758 25.9931 24.9572 25.9931 24.7784C25.9931 24.335 26.2278 24.1785 26.4253 24.1785C26.47 24.1785 26.5185 24.1859 26.5669 24.2008C26.6675 24.2008 26.8575 24.1487 27.0252 24.104C27.3494 24.0183 27.6959 23.9326 27.9232 23.9773C28.1952 24.0294 28.5082 24.0853 28.6423 24.1077C28.7765 24.0518 29.0745 23.9437 29.3205 23.9586C29.3354 23.9288 29.3689 23.9139 29.3987 23.9139H29.477C29.5515 23.9139 29.5627 23.9214 29.8049 24.0816C29.9427 24.1747 30.0508 24.2642 30.1402 24.3387C30.1924 24.3834 30.2743 24.4505 30.3153 24.4728L30.5687 24.2195C30.5687 24.2195 30.6097 24.1934 30.6358 24.1934H31.0829C31.0717 24.171 31.0643 24.1487 31.0568 24.1263C31.0233 24.022 31.0345 23.9176 31.0866 23.8245C31.1202 23.7723 31.1649 23.7239 31.2282 23.6829L30.9301 23.3848C30.9115 23.3662 30.9003 23.3401 30.904 23.314C30.904 23.2879 30.9189 23.2619 30.9413 23.247L31.0605 23.1575C31.0978 23.1314 31.4182 22.8967 31.7722 22.8967C31.9473 22.8967 32.3088 22.7216 32.4578 22.6359L32.5361 22.5912C32.5696 22.5725 32.6106 22.5763 32.6404 22.5986L32.7112 22.6545C32.8081 22.7328 33.0652 22.8967 33.2217 22.8967C33.4974 22.8967 33.5533 22.8967 34.1085 22.7588C34.373 22.6918 34.6413 22.6582 34.8686 22.6582C35.543 22.6582 35.6175 22.9824 35.6175 23.1203V23.1687C35.6473 23.1389 35.6883 23.0979 35.733 23.0457C35.9231 22.8296 35.9119 22.7141 35.9044 22.6545C35.9007 22.6023 35.8895 22.5055 35.964 22.4198C36.0125 22.3676 36.0833 22.3378 36.1615 22.3378C36.2249 22.3378 36.2957 22.3564 36.4484 22.3937C36.8881 22.5017 37.2719 22.6843 37.5812 22.8259C37.7078 22.8855 37.8308 22.9414 37.9351 22.9824C38.3934 23.165 38.5797 23.478 38.5797 24.0592C38.5797 24.2567 38.5425 24.3871 38.5127 24.4803C38.4717 24.6219 38.4493 24.6964 38.6915 25.1025C38.8853 25.4267 39.0082 25.7173 39.1088 25.9558C39.2095 26.198 39.3026 26.4178 39.3958 26.4663C39.5634 26.5483 39.7311 26.7532 39.9286 26.9842C40.1782 27.2823 40.331 27.4388 40.3906 27.4537C40.4242 27.4537 40.5359 27.4388 40.6477 27.3233C40.7781 27.1854 40.9234 26.8836 40.8862 26.2464C40.8117 25.0541 40.5136 24.2903 40.372 24.1487C40.2192 23.9959 40.2155 23.858 40.2118 23.7761C40.2118 23.7127 40.208 23.6605 40.0255 23.5115L39.9658 23.4631C39.664 23.2134 39.638 23.1799 39.5224 22.8594C39.4889 22.7626 39.4442 22.6433 39.3809 22.4868C39.2653 22.1962 39.1461 21.9987 39.0492 21.8422C38.9076 21.6075 38.7847 21.41 38.7847 21.1007C38.7847 20.6462 38.93 19.8749 39.1126 19.6029C39.1498 19.5432 39.2281 19.4464 39.325 19.3197C39.5448 19.0365 40.0478 18.3844 40.0925 18.1646C40.1074 18.0901 40.1186 18.0118 40.1298 17.9373C40.182 17.5796 40.2341 17.2294 40.5285 17.1287C40.7297 17.0617 41.1954 16.8754 41.2476 16.581C41.3221 16.1339 41.6873 15.8768 41.8214 15.7948L41.9667 15.6011C41.9742 15.3924 42.0226 14.949 42.2462 14.7254C42.3207 14.6509 42.3654 14.595 42.3952 14.5578C42.1717 14.4721 41.9667 14.3156 41.9667 13.8722C41.9667 13.589 41.881 13.589 41.8289 13.589C41.8028 13.589 41.7804 13.589 41.7618 13.589C41.7245 13.589 41.6985 13.589 41.6798 13.589C41.501 13.589 41.4153 13.4958 41.3743 13.4176C41.3333 13.3393 41.3184 13.2425 41.3184 13.0711C41.3184 12.8326 41.1247 12.6761 41.1172 12.6686L41.0948 12.6537C41.0948 12.6537 41.0762 12.6351 41.0688 12.6277L41.0539 12.6053C40.9793 12.4749 40.7334 12.0278 40.7334 11.7707C40.7334 11.5359 40.8079 10.9509 40.8079 10.9472L40.8228 10.8354C40.8303 10.787 40.8676 10.7534 40.916 10.7534H41.0315C41.0539 10.7534 41.5457 10.7609 41.7469 11.2565C41.7916 11.3645 41.8475 11.4092 41.922 11.4688C41.9891 11.521 42.0748 11.5881 42.1307 11.6999C42.1307 11.6663 42.127 11.6402 42.1232 11.6291C42.1121 11.5993 42.0226 11.4987 41.9742 11.4465C41.7842 11.2416 41.4675 10.895 41.7246 10.556C41.9146 10.3026 42.2611 10.243 42.5219 10.243C42.5592 10.0641 42.6188 9.7474 42.6188 9.53502C42.6188 9.18104 42.6821 8.83452 42.6933 8.77117L42.7045 8.71155C42.7082 8.68547 42.7269 8.66312 42.7492 8.64821L43.2262 8.3613C43.2262 8.3613 43.2113 8.36876 43.2038 8.36876C43.1069 8.40229 42.9728 8.42092 42.8461 8.42092C42.5368 8.42092 42.4325 8.29424 42.4027 8.18991C42.3356 7.96262 42.5704 7.80612 42.6486 7.75395C43.092 7.4596 43.7664 7.15406 44.0049 7.07581C44.1688 7.01992 44.3999 6.85597 44.4446 6.82244L45.0668 6.2598C45.0519 6.21509 45.0221 6.21136 45.0147 6.20764C44.9662 6.20764 44.9066 6.22254 44.847 6.24117C44.7725 6.2598 44.698 6.28216 44.6197 6.28216C44.4334 6.28216 44.2173 6.18155 44.2173 5.69716C44.2173 5.51831 44.2024 5.34319 44.1912 5.2165C44.1614 4.84762 44.1316 4.5309 44.3552 4.31107C44.4558 4.21046 44.5713 4.14712 44.6607 4.09495C44.8023 4.01671 44.8954 3.96454 44.9551 3.80805C45.1004 3.44662 45.4767 3.04793 45.5661 2.95478L46.1027 2.13504C45.8232 1.94129 45.473 1.56123 45.2941 1.25569C45.1637 1.03213 44.8582 0.510476 44.6681 0.454585C44.5564 0.42105 44.4446 0.447133 44.2732 0.491846C44.1763 0.517928 44.0682 0.544011 43.9378 0.566367C43.6137 0.625984 43.5801 1.1141 43.5801 1.32276C43.5801 1.78852 43.5466 2.6865 43.3193 3.44662C43.133 4.0726 42.0115 4.20674 41.1135 4.31479C40.7707 4.35578 40.4204 4.39677 40.3161 4.45266C40.1298 4.54581 40.1 4.60543 40.0478 4.71721C40.0031 4.81036 39.9398 4.93705 39.787 5.07119C39.705 5.14198 39.638 5.18669 39.5709 5.20532C39.4144 5.42144 39.1387 5.79404 38.8927 6.03624C38.5462 6.38276 38.2407 6.53553 37.9016 6.53553C37.8643 6.53553 37.8271 6.5318 37.7935 6.52435L37.7078 6.70693C37.8569 6.84107 37.9724 7.07208 38.0059 7.21368C38.1028 7.29938 38.2556 7.47077 38.1065 7.81357L38.0954 7.83593C37.9389 8.18991 37.7041 8.71901 37.2495 8.96493C37.1191 9.03572 36.9664 9.15496 36.8061 9.27792C36.4857 9.52756 36.1429 9.71014 35.8672 9.78466C35.7405 9.8182 35.1965 10.1088 35.0176 10.2057C34.9431 10.2455 34.8984 10.2653 34.8835 10.2653H34.8276C34.8015 10.2691 34.7754 10.2616 34.7568 10.243L34.4364 9.92253C34.4103 9.89645 34.4028 9.85546 34.4177 9.82192L34.4513 9.73995C34.4811 9.67288 34.5034 9.61326 34.5258 9.55365C34.5891 9.3897 34.6525 9.2183 34.8015 9.01337C34.9543 8.79725 35.0549 8.6184 35.1033 8.51035C34.9282 8.41347 34.8015 8.22717 34.7419 8.07067C34.6935 7.95144 34.6525 7.82102 34.6264 7.70179C34.5966 7.70179 34.5705 7.70552 34.5519 7.70552C34.5593 7.70552 34.5146 7.73532 34.4438 7.78376C34.3618 7.83965 34.2687 7.903 34.1644 7.94398C33.9408 8.03341 33.7545 7.94398 33.6986 7.74278C33.68 7.66826 33.68 7.59001 33.68 7.51921C33.68 7.37017 33.7657 7.19504 33.8588 7.01247C33.8961 6.94167 33.9296 6.8746 33.9482 6.82244C33.9482 6.77027 33.8178 6.44983 33.5384 6.20391C33.4378 6.11821 33.1024 6.1592 32.8304 6.20764C32.6851 6.23372 32.5621 6.2598 32.4541 6.2598C32.4168 6.2598 32.4057 6.26353 32.4057 6.26353C32.4057 6.26353 32.4057 6.29334 32.4057 6.32314C32.3982 6.3604 32.3907 6.39767 32.3796 6.4312C32.3609 6.49082 32.3162 6.57279 32.238 6.72556C32.1523 6.88951 32.0554 7.08326 32.0181 7.19132C31.966 7.34781 31.9511 7.97007 31.9921 8.40229C32.007 8.56251 32.0554 8.75999 32.1076 8.96865C32.1784 9.25183 32.2603 9.56855 32.279 9.88899C32.32 10.4852 32.0852 10.8056 31.8542 11.0366C31.7797 11.1111 31.6865 11.1521 31.5859 11.1521C31.3996 11.1521 31.2282 10.8689 30.9674 10.4106C30.9003 10.2951 30.837 10.1834 30.7774 10.0865C30.5985 9.79957 30.5724 9.33008 30.5463 8.8755C30.5426 8.78608 30.5352 8.69665 30.5277 8.61095C30.4867 8.0744 30.5389 7.67571 30.6022 7.32546C30.6432 7.09817 30.673 6.97521 30.7028 6.84479C30.7252 6.75909 30.7475 6.66594 30.7736 6.53926C30.6618 6.58024 30.5687 6.59887 30.4905 6.59887C30.3004 6.59887 30.2222 6.48337 30.1998 6.4312C30.1029 6.22999 30.2483 5.97662 30.4979 5.65245C30.6954 5.39535 31.1052 5.31338 31.5188 5.26121C31.6194 5.25004 31.7461 5.17924 31.8654 5.11217C32.0256 5.01902 32.1784 4.93705 32.3423 4.93705C32.4578 4.93705 32.5845 4.92959 32.7 4.91842C32.6553 4.86625 32.6255 4.80291 32.6069 4.72466C32.4019 4.70603 32.2566 4.66132 32.1709 4.58307C32.1001 4.59425 31.9809 4.64269 31.9101 4.6725L31.8058 4.71348C31.612 4.79173 31.2916 4.92214 30.8109 5.05256C30.6991 5.08236 30.5985 5.09727 30.5054 5.09727C30.2073 5.09727 30.0582 4.94077 29.98 4.8588C29.9688 4.84762 29.9613 4.83644 29.9502 4.82899C29.8719 4.80291 29.8086 4.75074 29.7676 4.67995C29.6893 4.52718 29.7527 4.35205 29.7974 4.23282C29.7713 4.18438 29.7043 4.10986 29.6633 4.0875C29.5478 4.1583 29.1863 4.51973 29.0261 4.67995C28.8659 4.84017 28.7057 5.00039 28.5827 5.11217C28.415 5.26494 28.2585 5.33574 28.1058 5.33574C27.871 5.33574 27.7332 5.16806 27.6326 5.04138C27.6065 5.04883 27.5692 5.06746 27.5431 5.07864C27.4276 5.12708 27.2786 5.19042 27.1295 5.16434C26.9879 5.14198 26.9022 5.07864 26.865 4.97431C26.8091 4.81409 26.9172 4.69858 27.014 4.59425C27.0625 4.54208 27.1146 4.48619 27.1631 4.4154C27.3382 4.16948 27.6735 3.75588 27.8747 3.55467C27.8971 3.53232 27.9157 3.51369 27.9381 3.49878C27.8412 3.49133 27.7332 3.48015 27.6102 3.46525C27.0103 3.39818 26.2316 3.18952 26.049 3.14108C25.9596 3.14108 25.5534 3.14481 25.3522 3.17462C25.3149 3.17834 25.2777 3.18207 25.2441 3.18207C24.9498 3.18207 24.7076 3.01439 24.4915 2.83554L24.4654 2.81319C24.4021 2.76102 24.3238 2.69395 24.2977 2.69023C24.2977 2.69023 24.2791 2.69023 24.2269 2.71631C24.1375 2.76102 24.0443 2.92497 24.0145 3.02185L23.9847 3.115C23.9736 3.15226 23.9363 3.18207 23.8953 3.17834H23.7984C23.6755 3.17089 11.4316 2.77965 11.0553 2.74239C10.7162 2.70886 4.75076 1.92638 3.72609 1.79224L3.59568 2.31017C3.58823 2.33625 3.57333 2.35488 3.55097 2.36978C3.52861 2.38096 3.50253 2.38469 3.47645 2.37724L3.34604 2.33625C3.34604 2.33625 2.82066 2.1723 2.28783 1.93011C2.2543 2.08288 2.22449 2.30272 2.22449 2.59335C2.22449 2.69768 2.22449 2.80201 2.22822 2.91752C2.23939 3.52114 2.25057 4.20674 1.99347 4.91096C1.85188 5.3022 1.76246 5.72325 1.68048 6.09585C1.59851 6.47219 1.52399 6.82244 1.40848 7.09071C1.27062 7.41116 1.08804 7.48568 0.965078 7.53412C0.88683 7.56765 0.8682 7.5751 0.845843 7.75395C0.823487 7.9179 0.838391 8.13029 0.853296 8.35013C0.88683 8.85315 0.927817 9.47913 0.603649 10.0753C0.387537 10.4703 0.443428 10.6342 0.529128 10.8839C0.588745 11.059 0.663266 11.2788 0.629731 11.5844C0.581293 12.0091 0.793678 12.5382 0.931543 12.8922C0.976256 13.0077 1.01724 13.1083 1.04333 13.194C1.08804 13.1903 1.11785 13.1866 1.15138 13.1866C1.36749 13.1866 1.52026 13.317 1.56497 13.5405C1.64322 13.9243 1.64322 14.1479 1.64322 14.595C1.64322 14.7925 1.69911 14.9825 1.75128 15.1651C1.80717 15.3551 1.85933 15.5489 1.85933 15.7538C1.85933 15.8731 1.93013 15.9848 2.02328 16.1264C2.12761 16.2904 2.25057 16.4767 2.29156 16.7301C2.33255 16.9834 2.23939 17.1623 2.17605 17.2815C2.17232 17.289 2.16487 17.3039 2.15742 17.3188C2.17232 17.33 2.19841 17.3411 2.23194 17.356C2.71633 17.5647 3.19699 17.8665 3.45782 18.1273C3.51371 18.187 3.6404 18.254 3.76336 18.3174C4.03163 18.4627 4.35953 18.6378 4.57191 18.9545C4.87745 19.4166 5.09729 20.2139 5.10847 20.2475L5.14945 20.4785C5.54814 20.404 6.34552 20.2736 6.85972 20.2736C7.11309 20.2736 7.3851 20.2996 7.48197 20.4971C7.49688 20.5306 7.51551 20.5642 7.53041 20.5977C7.64219 20.8325 7.73907 21.0374 8.24209 21.261C8.529 21.3876 8.84571 21.5032 9.1289 21.6038C9.52013 21.7453 9.85548 21.8646 10.0753 21.9987L10.1647 22.0546C10.4815 22.2484 10.7348 22.4011 11.331 22.4011C11.8564 22.4011 12.5718 22.4384 12.9928 22.4645L13.1083 22.1776C13.1195 22.144 13.1531 22.1217 13.1866 22.118L13.2648 22.1105C13.2648 22.1105 13.3654 22.103 13.5145 22.103C13.8573 22.103 14.3491 22.1478 14.759 22.3527C15.1726 22.5576 15.5862 23.0308 15.9215 23.4072C16.0817 23.5898 16.2308 23.7574 16.3128 23.817C16.4767 23.94 16.5624 24.1114 16.6444 24.2791C16.7487 24.484 16.8456 24.6778 17.0841 24.8156C17.3076 24.9423 17.4753 25.1249 17.6094 25.2702C17.6579 25.3224 17.751 25.423 17.7995 25.4602C17.7995 25.4602 17.8069 25.4528 17.8069 25.4491C17.8889 25.3485 17.9299 25.2665 17.9671 25.192C18.0715 24.9833 18.1683 24.838 18.5708 24.7225C18.7012 24.6852 18.7943 24.607 18.8949 24.5287C19.0142 24.4318 19.1483 24.3201 19.3383 24.3201L19.3271 24.3163Z" fill="#002244"/>
  </g>
  <defs>
    <clipPath id="clip0_418_14126">
      <rect width="46.7622" height="29" fill="white"/>
    </clipPath>
  </defs>
</svg>