<svg xmlns="http://www.w3.org/2000/svg" width="133" height="129" viewBox="0 0 133 129" fill="none"><path d="M53.8752 46.4033C50.5914 39.4787 40.8113 28.1994 18.6097 32.4113C18.6097 32.4113 27.8187 39.6929 32.3875 47.9025C17.6816 54.4701 14.6834 71.2463 4.68906 74.1018C-1.66445 75.8865 4.76045 87.8796 8.40123 90.3068C15.8969 95.3753 24.6063 96.0178 30.3173 106.726C33.8867 113.436 35.6714 120.932 36.3852 124.644C36.6708 126.001 37.813 127 39.2407 127H46.8078C48.0928 127 49.235 126.143 49.592 124.93L53.1614 113.079C53.3041 112.508 53.8752 112.151 54.4463 112.223C57.9443 112.651 61.5851 112.937 65.4401 112.937C72.9358 112.937 80.2173 112.009 86.7136 110.081" stroke="#002244" stroke-width="3" stroke-miterlimit="10" stroke-linecap="round" stroke-linejoin="round"></path><path d="M29.6039 63.3936H29.4611" stroke="#63CE4D" stroke-width="3" stroke-miterlimit="10" stroke-linecap="round" stroke-linejoin="round"></path><path d="M131.189 61.8945C131.189 61.8945 129.261 68.5336 118.553 71.746" stroke="#002244" stroke-width="3" stroke-miterlimit="10" stroke-linecap="round" stroke-linejoin="round"></path><path d="M83.216 119.505L84.4296 124.716C84.7152 126.001 85.9288 126.929 87.2137 126.929H94.5667C95.9944 126.929 97.1366 125.929 97.4222 124.573C98.2788 119.719 101.277 108.511 108.487 98.8021C112.342 93.5908 118.125 85.8095 118.624 75.8152C119.695 55.4697 95.2806 38.5508 65.2263 38.5508C56.2314 38.5508 49.3068 39.8358 49.3068 39.8358" stroke="#002244" stroke-width="3" stroke-miterlimit="10" stroke-linecap="round" stroke-linejoin="round"></path><path d="M95.6372 56.8257C88.7839 52.8994 80.2174 50.3294 70.7942 49.7583" stroke="#002244" stroke-width="3" stroke-miterlimit="10" stroke-linecap="round" stroke-linejoin="round"></path><path d="M54.2326 14.4215C54.2326 7.56825 59.8009 2 66.6541 2C73.5073 2 79.0756 7.56825 79.0756 14.4215C79.0756 21.2747 73.5073 26.8429 66.6541 26.8429C59.8009 26.8429 54.2326 21.2747 54.2326 14.4215Z" stroke="#63CE4D" stroke-width="3" stroke-miterlimit="10" stroke-linecap="round" stroke-linejoin="round"></path><path d="M59.1582 86.0235C60.3718 88.4507 63.2273 90.0926 66.6539 90.0926C71.08 90.0926 74.7207 87.1657 74.7207 83.5963C74.7207 78.7419 70.9372 77.6711 66.6539 77.1C61.0857 76.3861 58.5871 74.1731 58.5871 70.6037C58.5871 67.0343 62.2279 64.1074 66.6539 64.1074C70.0091 64.1074 72.7933 65.678 74.0782 68.0337" stroke="#63CE4D" stroke-width="3" stroke-miterlimit="10" stroke-linecap="round" stroke-linejoin="round"></path><path d="M66.6535 60.5381V93.8762" stroke="#63CE4D" stroke-width="3" stroke-miterlimit="10" stroke-linecap="round" stroke-linejoin="round"></path></svg>