<svg xmlns="http://www.w3.org/2000/svg" width="24" height="29" viewBox="0 0 24 29" fill="none">
  <g clip-path="url(#clip0_418_13494)">
    <path d="M17.8202 15.1527C17.5935 15.1527 17.3986 14.9811 17.3747 14.7503L17.0463 11.5748C16.9662 10.9026 16.4962 10.3398 15.8491 10.1407C15.8455 10.1395 15.8425 10.1389 15.8395 10.1377L14.1262 9.56719C13.9432 9.5062 13.8194 9.33456 13.8194 9.1414V2.39628C13.8194 1.56981 13.1466 0.897037 12.3202 0.897037H8.04547V2.4519C8.04547 2.99491 8.48682 3.43625 9.02982 3.43625C9.14883 3.43625 9.26305 3.48349 9.34737 3.56781C9.4317 3.65214 9.47834 3.76636 9.47834 3.88596L9.47236 6.01613C9.47356 6.03945 9.47475 6.06337 9.47595 6.08729C9.4921 6.41919 9.50166 6.62073 9.84433 6.83303L11.0063 7.49384C11.206 7.58474 11.4333 7.58295 11.6318 7.48786C11.8555 7.38082 12.1228 7.4759 12.2299 7.69897C12.3369 7.92263 12.2418 8.18995 12.0187 8.29699C11.5702 8.51168 11.0559 8.51168 10.6068 8.29699C10.5972 8.29221 10.5877 8.28742 10.5787 8.28204L9.39402 7.60867C9.38983 7.60627 9.38565 7.60388 9.38146 7.60089C8.62915 7.13981 8.59865 6.5077 8.58011 6.13035C8.57891 6.10404 8.57772 6.07832 8.57592 6.0532C8.57592 6.04423 8.57532 6.03526 8.57532 6.02629L8.58011 4.27827C7.75902 4.07613 7.14844 3.33399 7.14844 2.4513V0.448518C7.14844 0.329511 7.19568 0.215289 7.28 0.131565C7.36432 0.0472439 7.47795 0 7.59696 0H12.3202C13.6412 0 14.7164 1.07525 14.7164 2.39628V8.81787L16.1182 9.28433C17.1038 9.58932 17.8178 10.4481 17.938 11.4725C17.938 11.4743 17.938 11.4767 17.9386 11.4785L18.2675 14.6576C18.2932 14.904 18.1138 15.1246 17.8674 15.1498C17.8519 15.1515 17.8363 15.1521 17.8208 15.1521L17.8202 15.1527Z" fill="#002244"/>
    <path d="M15.1902 14.404C14.9426 14.404 14.7417 14.2031 14.7417 13.9555V12.3863C14.7417 12.1387 14.9426 11.9377 15.1902 11.9377C15.4378 11.9377 15.6387 12.1387 15.6387 12.3863V13.9555C15.6387 14.2031 15.4378 14.404 15.1902 14.404Z" fill="#002244"/>
    <path d="M8.58328 14.404C8.3357 14.404 8.13477 14.2031 8.13477 13.9555V12.3863C8.13477 12.1387 8.3357 11.9377 8.58328 11.9377C8.83087 11.9377 9.0318 12.1387 9.0318 12.3863V13.9555C9.0318 14.2031 8.83087 14.404 8.58328 14.404Z" fill="#002244"/>
    <path d="M5.95396 15.1527C5.93841 15.1527 5.92286 15.1521 5.90731 15.1503C5.66093 15.1246 5.48212 14.9046 5.50724 14.6582L5.83615 11.4791C5.83615 11.4791 5.83615 11.4749 5.83675 11.4731C5.95695 10.4535 6.66441 9.59828 7.64218 9.2897L8.96083 8.75387C9.19047 8.66058 9.45181 8.77121 9.5451 9.00085C9.63839 9.2305 9.52775 9.49183 9.29811 9.58512L7.96213 10.1281C7.95017 10.1329 7.93761 10.1377 7.92505 10.1413C7.27739 10.3404 6.80794 10.9032 6.7278 11.5753L6.39949 14.7509C6.37557 14.9817 6.18061 15.1533 5.95396 15.1533V15.1527Z" fill="#002244"/>
    <path d="M23.2667 27.2424C23.0192 27.2424 22.8182 27.0415 22.8182 26.7939C22.8182 20.7503 17.9013 15.8333 11.8576 15.8333C5.81399 15.8333 0.897037 20.7503 0.897037 26.7939C0.897037 27.0415 0.6961 27.2424 0.448518 27.2424C0.200936 27.2424 0 27.0415 0 26.7939C0 20.2557 5.31943 14.9363 11.8576 14.9363C18.3958 14.9363 23.7153 20.2557 23.7153 26.7939C23.7153 27.0415 23.5143 27.2424 23.2667 27.2424Z" fill="#002244"/>
    <path d="M4.79129 27.2424C4.54371 27.2424 4.34277 27.0415 4.34277 26.7939C4.34277 25.5261 4.66451 24.272 5.2733 23.1687C5.3929 22.9516 5.6656 22.8727 5.88269 22.9929C6.09977 23.1125 6.17811 23.3852 6.05851 23.6023C5.52268 24.5734 5.23921 25.6774 5.23921 26.7939C5.23921 27.0415 5.03828 27.2424 4.79069 27.2424H4.79129Z" fill="#002244"/>
    <path d="M18.9244 27.2424C18.6768 27.2424 18.4759 27.0415 18.4759 26.7939C18.4759 24.5376 17.7427 22.8009 16.2972 21.6324C14.7286 20.3652 12.8425 20.1756 11.8581 20.1756C10.1161 20.1756 8.4709 20.8472 7.22701 22.0659C7.05 22.2394 6.76593 22.2364 6.59251 22.0594C6.41908 21.8824 6.42207 21.5983 6.59908 21.4249C8.01222 20.0404 9.87985 19.278 11.8581 19.278C13.8364 19.278 15.5401 19.8658 16.8612 20.9339C18.5046 22.2621 19.3729 24.2876 19.3729 26.7927C19.3729 27.0403 19.172 27.2412 18.9244 27.2412V27.2424Z" fill="#002244"/>
    <path d="M11.8575 29C10.6411 29 9.65137 28.0103 9.65137 26.7939C9.65137 25.5775 10.6411 24.5878 11.8575 24.5878C13.0739 24.5878 14.0636 25.5775 14.0636 26.7939C14.0636 28.0103 13.0739 29 11.8575 29ZM11.8575 25.4842C11.1357 25.4842 10.5484 26.0715 10.5484 26.7933C10.5484 27.5151 11.1357 28.1024 11.8575 28.1024C12.5793 28.1024 13.1666 27.5151 13.1666 26.7933C13.1666 26.0715 12.5793 25.4842 11.8575 25.4842Z" fill="#002244"/>
    <path d="M10.2042 25.9991C10.0894 25.9991 9.97456 25.9555 9.88725 25.8676L5.1778 21.1581C5.00258 20.9829 5.00258 20.6988 5.1778 20.5236C5.35302 20.3484 5.63709 20.3484 5.81231 20.5236L10.5217 25.2331C10.697 25.4083 10.697 25.6924 10.5217 25.8676C10.4344 25.9549 10.3196 25.9991 10.2048 25.9991H10.2042Z" fill="#002244"/>
    <path d="M23.2666 27.2424H16.0867C15.8391 27.2424 15.6382 27.0415 15.6382 26.7939C15.6382 26.5463 15.8391 26.3454 16.0867 26.3454H23.2666C23.5142 26.3454 23.7151 26.5463 23.7151 26.7939C23.7151 27.0415 23.5142 27.2424 23.2666 27.2424Z" fill="#002244"/>
    <path d="M7.65471 27.2424H0.448518C0.200936 27.2424 0 27.0415 0 26.7939C0 26.5463 0.200936 26.3454 0.448518 26.3454H7.65471C7.9023 26.3454 8.10323 26.5463 8.10323 26.7939C8.10323 27.0415 7.9023 27.2424 7.65471 27.2424Z" fill="#002244"/>
  </g>
  <defs>
    <clipPath id="clip0_418_13494">
      <rect width="23.7153" height="29" fill="white"/>
    </clipPath>
  </defs>
</svg>