<svg xmlns="http://www.w3.org/2000/svg" width="29" height="29" viewBox="0 0 29 29" fill="none">
  <g clip-path="url(#clip0_418_14076)">
    <path d="M4.07583 7.39908C4.07583 6.35844 3.61047 5.57269 2.99544 5.57269C2.3804 5.57269 1.91504 6.35844 1.91504 7.39908C1.91504 8.43972 2.3804 9.22546 2.99544 9.22546C3.61047 9.22546 4.07583 8.43972 4.07583 7.39908ZM2.5441 7.39908C2.5441 6.65777 2.83642 6.20409 2.99544 6.20409C3.15446 6.20409 3.44677 6.65777 3.44677 7.39908C3.44677 8.14039 3.15446 8.59406 2.99544 8.59406C2.83642 8.59406 2.5441 8.14039 2.5441 7.39908Z" fill="#002244"/>
    <path d="M5.88362 9.22546C6.49865 9.22546 6.96402 8.43972 6.96402 7.39908C6.96402 6.35844 6.49865 5.57269 5.88362 5.57269C5.26859 5.57269 4.80322 6.35844 4.80322 7.39908C4.80322 8.43972 5.26859 9.22546 5.88362 9.22546ZM5.88362 6.20409C6.04264 6.20409 6.33495 6.65777 6.33495 7.39908C6.33495 8.14039 6.04264 8.59406 5.88362 8.59406C5.7246 8.59406 5.43228 8.14039 5.43228 7.39908C5.43228 6.65777 5.7246 6.20409 5.88362 6.20409Z" fill="#002244"/>
    <path d="M26.858 2.10468H24.2319C24.1033 2.10468 23.9863 2.18419 23.9396 2.30345C20.2657 11.6201 19.0006 14.8169 17.9202 17.56C17.8384 17.7681 17.9927 17.9902 18.2125 17.9902H26.8604C27.9104 17.9902 28.7663 17.1367 28.7663 16.0844V4.00823C28.7663 2.95824 27.9127 2.10468 26.8604 2.10468H26.858ZM23.0346 6.30934C23.1772 6.48239 23.3292 6.86824 23.3292 7.40143C23.3292 8.14274 23.0369 8.59641 22.8779 8.59641C22.7633 8.59641 22.5341 8.3228 22.4546 7.77793L23.0322 6.30934H23.0346ZM28.1325 16.0867C28.1325 16.7882 27.5619 17.3612 26.858 17.3612H18.6732L20.0342 13.9119H25.5765C25.7496 13.9119 25.8922 13.7716 25.8922 13.5962C25.8922 13.4208 25.7519 13.2805 25.5765 13.2805H20.2821L21.0421 11.3535H21.9144C22.0875 11.3535 22.2301 11.2132 22.2301 11.0378C22.2301 10.8624 22.0898 10.7221 21.9144 10.7221H21.29L22.0945 8.68294C22.7072 9.75632 23.9583 9.18572 23.9583 7.39909C23.9583 6.59697 23.6823 5.9492 23.2754 5.69431L24.4447 2.73374H26.858C27.5619 2.73374 28.1325 3.30434 28.1325 4.00589V16.0844V16.0867Z" fill="#002244"/>
    <path d="M25.7684 5.57504C25.1534 5.57504 24.688 6.36079 24.688 7.40143C24.688 8.44207 25.1534 9.22781 25.7684 9.22781C26.3834 9.22781 26.8488 8.44207 26.8488 7.40143C26.8488 6.36079 26.3834 5.57504 25.7684 5.57504ZM25.7684 8.59641C25.6094 8.59641 25.3171 8.14274 25.3171 7.40143C25.3171 6.66012 25.6094 6.20644 25.7684 6.20644C25.9274 6.20644 26.2197 6.66012 26.2197 7.40143C26.2197 8.14274 25.9274 8.59641 25.7684 8.59641Z" fill="#002244"/>
    <path d="M20.6562 23.9792C19.9756 22.4615 18.79 21.4419 17.5904 21.3226L15.8669 17.3471C20.6047 12.9437 21.0958 3.25521 20.1814 0.809117C19.9803 0.271257 19.6997 -0.00234985 19.3489 -0.00234985C19.2203 -0.00234985 19.1034 0.0771599 19.0566 0.196424L14.2159 12.4666C14.0639 12.0808 13.8815 11.6178 13.6523 11.0355L17.0081 2.53027C17.0899 2.32214 16.9356 2.09998 16.7157 2.09998H10.1281C9.89194 1.49898 9.64172 0.865241 9.37747 0.196424C9.3307 0.0748213 9.21377 -0.00234985 9.08515 -0.00234985C8.51923 -0.00234985 8.14273 0.703883 7.965 2.10232H1.90356C0.85356 2.10466 0 2.95822 0 4.00821V16.0843C0 17.1343 0.85356 17.9879 1.90356 17.9879H10.6941C10.8227 17.9879 10.9396 17.9084 10.9864 17.7891L11.5804 16.2854C11.8914 16.6713 12.2234 17.0244 12.5649 17.3425L10.839 21.3226C8.72502 21.5261 7.13483 24.3229 7.28449 26.4533C7.39674 28.0412 8.43271 28.9626 9.63938 28.9977C12.3778 29.0608 14.5292 24.5498 12.9741 22.3071L14.2135 19.4448L15.4529 22.3071C13.8955 24.5545 16.0563 29.0725 18.79 28.9977C20.7099 28.9415 21.8862 26.7199 20.6538 23.9792H20.6562ZM16.2504 2.73372L13.3132 10.1796C10.7081 3.5826 11.2787 5.02781 10.3737 2.73372H16.2504ZM10.4789 17.3588H1.90356C1.202 17.3588 0.629062 16.7882 0.629062 16.0843V4.00821C0.629062 3.30666 1.19966 2.73372 1.90356 2.73372H7.89719C7.73349 5.0699 8.06088 8.06321 8.83961 10.7221H6.84719C6.67414 10.7221 6.53149 10.8624 6.53149 11.0378C6.53149 11.2132 6.6718 11.3535 6.84719 11.3535H9.03605C9.25587 12.0293 9.50375 12.6748 9.77502 13.2804H3.1874C3.01435 13.2804 2.8717 13.4208 2.8717 13.5961C2.8717 13.7715 3.01202 13.9118 3.1874 13.9118H10.0767C10.4088 14.5713 10.7829 15.2004 11.136 15.6985L10.4813 17.3612L10.4789 17.3588ZM8.93783 0.809117C9.68148 2.69396 13.1963 11.6061 13.8768 13.3296C12.7379 16.213 12.6631 16.3837 12.6257 16.5216C8.3532 12.0621 7.93226 2.68227 8.93783 0.809117ZM12.3708 22.5503C13.816 24.3066 11.9101 28.4317 9.65809 28.3686C8.14039 28.3242 7.34529 26.4791 8.35086 24.2388C8.97057 22.8567 10.0346 21.9564 11.0565 21.9423C11.1805 21.9423 11.2927 21.8675 11.3418 21.7529C11.3582 21.7132 13.2197 17.422 13.236 17.3822C13.2641 17.3097 13.2641 17.2326 13.243 17.1647C13.1776 16.973 13.201 16.7321 13.2618 16.6082C13.83 15.1676 18.8882 2.34553 19.4939 0.811455C20.5392 2.71033 20.0552 12.8899 15.2214 17.0829C14.9385 17.3308 14.5573 17.6278 14.3842 17.6979C14.3328 17.719 14.279 17.7587 14.2439 17.8102C14.2159 17.8499 12.3427 22.1809 12.324 22.2253C12.2772 22.3329 12.2936 22.4591 12.3708 22.5503ZM19.4167 28.2213C19.1946 28.3218 18.9584 28.3686 18.7292 28.3686C16.4796 28.3686 14.6321 24.2879 16.061 22.5503C16.1358 22.4591 16.1545 22.3329 16.1077 22.2253L14.5596 18.652C14.7257 18.2662 14.6859 18.3621 14.7467 18.2194C14.9385 18.1165 15.198 17.9201 15.3688 17.7821L17.0899 21.7529C17.139 21.8675 17.2513 21.94 17.3752 21.9423C18.3995 21.954 19.4612 22.8567 20.0809 24.2388C20.8386 25.9248 20.6281 27.6811 19.4167 28.2236V28.2213Z" fill="#002244"/>
    <path d="M17.1016 23.0648C16.2878 23.432 16.3416 24.7252 16.7859 25.719C17.2209 26.6872 18.1516 27.6179 18.9795 27.2438C19.7301 26.907 19.7956 25.7003 19.2975 24.5919C18.7924 23.4647 17.8429 22.7327 17.104 23.0648H17.1016ZM18.7199 26.6708C18.5772 26.734 18.3527 26.6661 18.1212 26.4884C17.408 25.9389 16.9426 24.6784 17.139 23.9652C17.1905 23.7804 17.2864 23.6167 17.4805 23.6167C17.8242 23.6167 18.3738 24.0797 18.7199 24.8514C19.1548 25.8219 18.9795 26.6053 18.7199 26.6708Z" fill="#002244"/>
    <path d="M10.4509 23.1022C9.50845 23.5302 8.73907 25.0035 8.82092 26.1447C8.87938 26.9561 9.34007 27.3256 9.8335 27.3256C10.5701 27.3256 11.2764 26.5399 11.6459 25.7191C11.9499 25.0409 12.0434 24.323 11.9008 23.7968C11.7043 23.0765 11.094 22.8099 10.4509 23.1022ZM10.3106 26.4884C10.079 26.6661 9.85455 26.7363 9.7119 26.6708C9.56925 26.6077 9.47103 26.3949 9.44998 26.1026C9.38684 25.2022 10.0299 23.9885 10.7128 23.6775C11.0098 23.5419 11.2015 23.6308 11.2927 23.9652C11.4892 24.6831 11.0191 25.9435 10.3106 26.4884Z" fill="#002244"/>
    <path d="M14.1717 16.9824H14.2161C14.3891 16.9824 14.5318 16.842 14.5318 16.6667C14.5318 16.4913 14.3915 16.351 14.2161 16.351H14.1717C13.9986 16.351 13.856 16.4913 13.856 16.6667C13.856 16.842 13.9963 16.9824 14.1717 16.9824Z" fill="#002244"/>
  </g>
  <defs>
    <clipPath id="clip0_418_14076">
      <rect width="28.7638" height="29" fill="white"/>
    </clipPath>
  </defs>
</svg>