<svg xmlns="http://www.w3.org/2000/svg" width="32" height="29" viewBox="0 0 32 29" fill="none">
  <g clip-path="url(#clip0_418_14096)">
    <path d="M29.207 29H2.40527V12.2052H3.49477V27.9105H28.1202V12.2052H29.207V29Z" fill="#002244"/>
    <path d="M9.70073 12.7485C7.71757 12.7485 6.104 11.135 6.104 9.15179V6.51492H7.19075V9.15179C7.19075 10.5364 8.3161 11.6618 9.70073 11.6618C11.0854 11.6618 12.2107 10.5364 12.2107 9.15179V6.51492H13.2975V9.15179C13.2975 11.135 11.6839 12.7485 9.70073 12.7485Z" fill="#002244"/>
    <path d="M15.8072 12.7485C13.824 12.7485 12.2104 11.135 12.2104 9.15179V6.51492H13.2972V9.15179C13.2972 10.5364 14.4225 11.6618 15.8072 11.6618C17.1918 11.6618 18.3172 10.5364 18.3172 9.15179V6.51492H19.4039V9.15179C19.4039 11.135 17.7903 12.7485 15.8072 12.7485Z" fill="#002244"/>
    <path d="M21.9112 12.7485C19.928 12.7485 18.3145 11.135 18.3145 9.15179V6.51492H19.4012V9.15179C19.4012 10.5364 20.5266 11.6618 21.9112 11.6618C23.2958 11.6618 24.4212 10.5364 24.4212 9.15179V6.51492H25.5079V9.15179C25.5079 11.135 23.8943 12.7485 21.9112 12.7485Z" fill="#002244"/>
    <path d="M20.5736 16.0501H19.4868V28.4566H20.5736V16.0501Z" fill="#002244"/>
    <path d="M12.1253 16.0501H11.0386V28.4566H12.1253V16.0501Z" fill="#002244"/>
    <path d="M28.0181 12.7485C26.0349 12.7485 24.4213 11.135 24.4213 9.1518V6.51493H25.5081V9.1518C25.5081 10.5364 26.6334 11.6618 28.0181 11.6618C29.4027 11.6618 30.5281 10.5364 30.5281 9.1518V6.70525L26.0156 1.08674H5.5992L1.08674 6.70525V9.1518C1.08674 10.5364 2.2121 11.6618 3.59673 11.6618C4.98136 11.6618 6.10671 10.5364 6.10671 9.1518V6.51493H7.19346V9.1518C7.19346 11.135 5.57989 12.7485 3.59673 12.7485C1.61356 12.7485 0 11.135 0 9.1518V6.32186L5.0779 0H26.5397L31.6176 6.32186V9.1518C31.6176 11.135 30.004 12.7485 28.0208 12.7485H28.0181Z" fill="#002244"/>
    <path d="M28.5063 15.4461H3.10303V16.5328H28.5063V15.4461Z" fill="#002244"/>
    <path d="M26.3686 23.4339H19.6055V24.5206H26.3686V23.4339Z" fill="#002244"/>
    <path d="M9.44419 23.4339H3.10303V24.5206H9.44419V23.4339Z" fill="#002244"/>
    <path d="M30.837 5.97156H0.684082V7.0583H30.837V5.97156Z" fill="#002244"/>
    <path d="M14.9139 22.8271H13.8271V24.984H14.9139V22.8271Z" fill="#002244"/>
  </g>
  <defs>
    <clipPath id="clip0_418_14096">
      <rect width="31.6148" height="29" fill="white"/>
    </clipPath>
  </defs>
</svg>