<?xml version="1.0" encoding="utf-8"?>
<!-- Generator: Adobe Illustrator 28.2.0, SVG Export Plug-In . SVG Version: 6.00 Build 0)  -->
<svg version="1.1" id="Layer_1" xmlns="http://www.w3.org/2000/svg" xmlns:xlink="http://www.w3.org/1999/xlink" x="0px" y="0px"
	 viewBox="0 0 150 150" style="enable-background:new 0 0 150 150;" xml:space="preserve">
<style type="text/css">
	.st0{fill:#002244;}
</style>
<g>
	<path class="st0" d="M134.3,126.2h-9.7c-6,0-10.9-4.9-10.9-10.9v-10.8c0-1.4,1.1-2.5,2.5-2.5c1.4,0,2.5,1.1,2.5,2.5v10.8
		c0,3.2,2.6,5.8,5.8,5.8h9.7c3.2,0,5.8-2.6,5.8-5.8v-34c0-6.2-1.8-12.2-5.3-17.4l-4-6L120.5,35c-2.4-5.3-7.7-8.8-13.6-8.8H42.1
		c-5.9,0-11.2,3.4-13.6,8.8L18.3,57.5l-4.2,6.4c-3.4,5.2-5.3,11.2-5.3,17.4v34c0,3.2,2.6,5.8,5.8,5.8h9.7c3.2,0,5.8-2.6,5.8-5.8
		v-10.8c0-1.4,1.1-2.5,2.5-2.5c1.4,0,2.5,1.1,2.5,2.5v10.8c0,6-4.9,10.9-10.9,10.9h-9.7c-6,0-10.9-4.9-10.9-10.9v-34
		c0-7.2,2.1-14.2,6.1-20.2l4-6l10-22.2c3.2-7.1,10.4-11.8,18.2-11.8h64.8c7.8,0,15,4.6,18.2,11.8l10.2,22.5l3.8,5.7
		c4,6,6.1,13,6.1,20.2v34C145.2,121.3,140.3,126.2,134.3,126.2z"/>
	<path class="st0" d="M142.7,106.3H6.3c-1.4,0-2.5-1.1-2.5-2.5c0-1.4,1.1-2.5,2.5-2.5h136.4c1.4,0,2.5,1.1,2.5,2.5
		C145.2,105.1,144.1,106.3,142.7,106.3z"/>
	<path class="st0" d="M133,59H16c-1.4,0-2.5-1.1-2.5-2.5c0-1.4,1.1-2.5,2.5-2.5h117c1.4,0,2.5,1.1,2.5,2.5
		C135.5,57.9,134.4,59,133,59z"/>
	<path class="st0" d="M42.4,93.6H19.5c-1.4,0-2.5-1.1-2.5-2.5V73.7c0-1.4,1.1-2.5,2.5-2.5h22.9c1.4,0,2.5,1.1,2.5,2.5v17.4
		C45,92.5,43.8,93.6,42.4,93.6z M22,88.5h17.8V76.2H22V88.5z"/>
	<path class="st0" d="M129.5,93.6h-22.9c-1.4,0-2.5-1.1-2.5-2.5V73.7c0-1.4,1.1-2.5,2.5-2.5h22.9c1.4,0,2.5,1.1,2.5,2.5v17.4
		C132,92.5,130.9,93.6,129.5,93.6z M109.1,88.5H127V76.2h-17.8V88.5z"/>
	<path class="st0" d="M96.1,76.2H52.9c-1.4,0-2.5-1.1-2.5-2.5c0-1.4,1.1-2.5,2.5-2.5h43.1c1.4,0,2.5,1.1,2.5,2.5
		C98.6,75.1,97.5,76.2,96.1,76.2z"/>
	<path class="st0" d="M96.1,93.6H52.9c-1.4,0-2.5-1.1-2.5-2.5c0-1.4,1.1-2.5,2.5-2.5h43.1c1.4,0,2.5,1.1,2.5,2.5
		C98.6,92.5,97.5,93.6,96.1,93.6z"/>
	<path class="st0" d="M110.6,59c-1.4,0-2.5-1.1-2.5-2.5c0-6.6-5.4-12-12-12c-6.6,0-12.1,5.4-12.1,12c0,1.4-1.1,2.5-2.5,2.5
		c-1.4,0-2.5-1.1-2.5-2.5c0-9.4,7.7-17.1,17.1-17.1c9.4,0,17.1,7.7,17.1,17.1C113.2,57.9,112,59,110.6,59z"/>
</g>
</svg>
