<svg xmlns="http://www.w3.org/2000/svg" width="33" height="29" viewBox="0 0 33 29" fill="none">
  <g clip-path="url(#clip0_418_13951)">
    <path d="M13.0426 26.5049C14.891 25.5759 15.4001 19.5577 13.6266 18.1871C12.9919 17.6973 12.227 17.5308 11.3897 17.4294C10.743 17.3522 10.1325 16.8479 10.0673 16.2302H7.29472C7.22956 16.8479 6.61906 17.3522 5.97237 17.4294C5.13504 17.5308 4.3701 17.6973 3.73547 18.1871C1.96188 19.5577 2.47103 25.5759 4.31943 26.5049H13.0402H13.0426Z" fill="white"/>
    <path d="M13.0424 26.8234H4.32168C4.271 26.8234 4.22274 26.8114 4.17931 26.7896C3.08137 26.2371 2.52637 24.3428 2.37193 22.7526C2.21026 21.0731 2.42019 18.8025 3.54226 17.9338C4.26135 17.3788 5.11798 17.2099 5.936 17.1109C6.46446 17.0482 6.93259 16.6355 6.98085 16.194C6.99775 16.0323 7.13529 15.9092 7.29696 15.9092H10.0671C10.2312 15.9092 10.3664 16.0323 10.3832 16.194C10.4291 16.6355 10.8972 17.0482 11.4281 17.1109C12.2461 17.2099 13.1003 17.3788 13.8218 17.9338C14.9463 18.8025 15.1538 21.0707 14.9922 22.7526C14.8401 24.3428 14.2827 26.2371 13.1848 26.7896C13.1414 26.8114 13.0907 26.8234 13.0424 26.8234ZM4.40372 26.1864H12.9604C13.636 25.7834 14.1935 24.3983 14.3575 22.6923C14.5482 20.7232 14.1741 19.0148 13.4309 18.4405C12.8325 17.9796 12.0796 17.8348 11.3509 17.7455C10.639 17.6587 10.0141 17.1568 9.81136 16.5487H7.55033C7.34764 17.1592 6.72266 17.6611 6.01081 17.7455C5.28448 17.8348 4.5292 17.9796 3.93076 18.4405C3.18754 19.0148 2.81593 20.7232 3.00415 22.6923C3.16824 24.3983 3.72565 25.7834 4.40131 26.1864H4.40372Z" fill="#002244"/>
    <path d="M11.1285 15.8693C12.4798 14.518 12.4798 12.327 11.1285 10.9757C9.77718 9.62434 7.58623 9.62434 6.23489 10.9757C4.88356 12.327 4.88356 14.518 6.23489 15.8693C7.58623 17.2206 9.77718 17.2206 11.1285 15.8693Z" fill="white"/>
    <path d="M8.68215 17.2026C6.59969 17.2026 4.90332 15.5086 4.90332 13.4238C4.90332 11.3389 6.59728 9.64494 8.68215 9.64494C10.767 9.64494 12.461 11.3389 12.461 13.4238C12.461 15.5086 10.767 17.2026 8.68215 17.2026ZM8.68215 10.282C6.94958 10.282 5.54036 11.6912 5.54036 13.4238C5.54036 15.1563 6.94958 16.5656 8.68215 16.5656C10.4147 16.5656 11.8239 15.1563 11.8239 13.4238C11.8239 11.6912 10.4147 10.282 8.68215 10.282Z" fill="#002244"/>
    <path d="M7.75527 24.5045H5.6897C5.57387 24.5045 5.4677 24.4417 5.4122 24.3404C4.41802 22.5596 4.86685 20.8005 4.88615 20.7257C4.932 20.5543 5.10574 20.453 5.27707 20.4988C5.44598 20.5447 5.54733 20.7184 5.50389 20.8873C5.49907 20.909 5.1347 22.3738 5.88274 23.865H7.75768C7.93383 23.865 8.0762 24.0074 8.0762 24.1836C8.0762 24.3597 7.93383 24.5021 7.75768 24.5021L7.75527 24.5045Z" fill="#002244"/>
    <path d="M11.6741 24.5045H9.60856C9.43241 24.5045 9.29004 24.3621 9.29004 24.186C9.29004 24.0098 9.43241 23.8674 9.60856 23.8674H11.4835C12.234 22.3738 11.8672 20.9042 11.8623 20.8897C11.8189 20.7208 11.9203 20.5447 12.0892 20.5012C12.2605 20.4578 12.4342 20.5567 12.4777 20.7281C12.497 20.8029 12.9458 22.562 11.9516 24.3428C11.8961 24.4442 11.79 24.5069 11.6741 24.5069V24.5045Z" fill="#002244"/>
    <path d="M28.1964 26.5049C30.0448 25.5759 30.5539 19.5577 28.7804 18.1871C28.1457 17.6973 27.3808 17.5308 26.5435 17.4294C25.8968 17.3522 25.2863 16.8479 25.2211 16.2302H22.4485C22.3834 16.8479 21.7729 17.3522 21.1262 17.4294C20.2888 17.5308 19.5239 17.6973 18.8893 18.1871C17.1157 19.5577 17.6248 25.5759 19.4732 26.5049H28.194H28.1964Z" fill="white"/>
    <path d="M28.1962 26.8234H19.4755C19.4248 26.8234 19.3766 26.8114 19.3331 26.7896C18.2352 26.2371 17.6802 24.3428 17.5257 22.7526C17.3641 21.0731 17.574 18.8025 18.6961 17.9338C19.4152 17.3788 20.2718 17.2099 21.0898 17.1109C21.6183 17.0482 22.0864 16.6355 22.1347 16.194C22.1516 16.0323 22.2891 15.9092 22.4508 15.9092H25.2209C25.385 15.9092 25.5202 16.0323 25.5371 16.194C25.5829 16.6355 26.0535 17.0482 26.5819 17.1109C27.3999 17.2099 28.2542 17.3788 28.9757 17.9338C30.1001 18.8025 30.3077 21.0707 30.146 22.7526C29.994 24.3428 29.4365 26.2371 28.3386 26.7896C28.2952 26.8114 28.2445 26.8234 28.1962 26.8234ZM19.5575 26.1864H28.1142C28.7898 25.7834 29.3473 24.3983 29.5113 22.6923C29.702 20.7232 29.328 19.0148 28.5847 18.4405C27.9863 17.9796 27.231 17.8348 26.5047 17.7455C25.7928 17.6587 25.1679 17.1568 24.9652 16.5487H22.7017C22.499 17.1592 21.8741 17.6611 21.1622 17.7455C20.4359 17.8348 19.6806 17.9796 19.0822 18.4405C18.3389 19.0148 17.9673 20.7232 18.1555 22.6923C18.3196 24.3983 18.877 25.7834 19.5527 26.1864H19.5575Z" fill="#002244"/>
    <path d="M26.2853 15.8709C27.6366 14.5196 27.6366 12.3286 26.2852 10.9773C24.9339 9.62594 22.743 9.62594 21.3916 10.9773C20.0403 12.3286 20.0403 14.5196 21.3916 15.8709C22.743 17.2222 24.9339 17.2222 26.2853 15.8709Z" fill="white"/>
    <path d="M23.8379 17.2026C21.7555 17.2026 20.0591 15.5087 20.0591 13.4238C20.0591 11.3389 21.753 9.64495 23.8379 9.64495C25.9228 9.64495 27.6167 11.3389 27.6167 13.4238C27.6167 15.5087 25.9228 17.2026 23.8379 17.2026ZM23.8379 10.282C22.1053 10.282 20.6961 11.6912 20.6961 13.4238C20.6961 15.1564 22.1053 16.5656 23.8379 16.5656C25.5705 16.5656 26.9797 15.1564 26.9797 13.4238C26.9797 11.6912 25.5705 10.282 23.8379 10.282Z" fill="#002244"/>
    <path d="M22.9115 24.5045H20.8459C20.7301 24.5045 20.6239 24.4418 20.5684 24.3404C19.5743 22.5596 20.0231 20.8005 20.0424 20.7257C20.0883 20.5543 20.262 20.4554 20.4333 20.4988C20.6046 20.5447 20.7036 20.7184 20.6601 20.8873C20.6553 20.9091 20.2909 22.3738 21.039 23.865H22.9139C23.0901 23.865 23.2325 24.0074 23.2325 24.1836C23.2325 24.3597 23.0901 24.5021 22.9139 24.5021L22.9115 24.5045Z" fill="#002244"/>
    <path d="M26.8304 24.5045H24.7648C24.5887 24.5045 24.4463 24.3621 24.4463 24.186C24.4463 24.0098 24.5887 23.8674 24.7648 23.8674H26.6398C27.3902 22.3738 27.0234 20.9042 27.0186 20.8897C26.9752 20.7184 27.0765 20.5447 27.2454 20.5012C27.4143 20.4578 27.5881 20.5567 27.6339 20.7281C27.6532 20.8029 28.1021 22.562 27.1079 24.3428C27.0524 24.4442 26.9462 24.5069 26.8304 24.5069V24.5045Z" fill="#002244"/>
    <path d="M15.6075 0.318523H8.9113C8.20669 0.318523 7.63721 0.890415 7.63721 1.59261V6.75171C7.63721 7.45632 8.2091 8.0258 8.9113 8.0258H9.60867V9.45191L11.0348 8.0258H15.6051C16.3097 8.0258 16.8792 7.4539 16.8792 6.75171V1.59503C16.8792 0.890416 16.3073 0.320936 15.6051 0.320936L15.6075 0.318523Z" fill="white"/>
    <path d="M9.6088 9.77284C9.56778 9.77284 9.52676 9.7656 9.48815 9.74871C9.36991 9.70045 9.29028 9.58221 9.29028 9.45432V8.34673H8.91143C8.03308 8.34673 7.31641 7.63247 7.31641 6.75171V1.59502C7.31641 0.716675 8.03067 0 8.91143 0H15.6076C16.486 0 17.2027 0.714262 17.2027 1.59502V6.75412C17.2027 7.63247 16.4884 8.34914 15.6076 8.34914H11.1676L9.83563 9.68114C9.7753 9.74147 9.69326 9.77525 9.61121 9.77525L9.6088 9.77284ZM8.91143 0.637044C8.38297 0.637044 7.95586 1.06657 7.95586 1.59261V6.75171C7.95586 7.28016 8.38539 7.70727 8.91143 7.70727H9.6088C9.78495 7.70727 9.92732 7.84964 9.92732 8.02579V8.68214L10.8105 7.79897C10.8708 7.73864 10.9505 7.70486 11.0349 7.70486H15.6052C16.1337 7.70486 16.5608 7.27534 16.5608 6.74929V1.59502C16.5608 1.06657 16.1313 0.639458 15.6052 0.639458H8.90902L8.91143 0.637044Z" fill="#002244"/>
    <path d="M10.3088 4.79955C10.1326 4.79955 9.99023 4.65718 9.99023 4.48103V3.86811C9.99023 3.69196 10.1326 3.54959 10.3088 3.54959C10.4849 3.54959 10.6273 3.69196 10.6273 3.86811V4.48103C10.6273 4.65718 10.4849 4.79955 10.3088 4.79955Z" fill="#002244"/>
    <path d="M12.2609 4.79955C12.0848 4.79955 11.9424 4.65718 11.9424 4.48103V3.86811C11.9424 3.69196 12.0848 3.54959 12.2609 3.54959C12.4371 3.54959 12.5794 3.69196 12.5794 3.86811V4.48103C12.5794 4.65718 12.4371 4.79955 12.2609 4.79955Z" fill="#002244"/>
    <path d="M14.2131 4.79955C14.0369 4.79955 13.8945 4.65718 13.8945 4.48103V3.86811C13.8945 3.69196 14.0369 3.54959 14.2131 3.54959C14.3892 3.54959 14.5316 3.69196 14.5316 3.86811V4.48103C14.5316 4.65718 14.3892 4.79955 14.2131 4.79955Z" fill="#002244"/>
    <path d="M16.9103 2.52405H23.6066C24.3112 2.52405 24.8806 3.09594 24.8806 3.79814V8.95723C24.8806 9.66184 24.3088 10.2313 23.6066 10.2313H22.9092V11.6574L21.4831 10.2313H16.9128C16.2082 10.2313 15.6387 9.65943 15.6387 8.95723V3.80055C15.6387 3.09594 16.2106 2.52646 16.9128 2.52646L16.9103 2.52405Z" fill="white"/>
    <path d="M22.9093 11.9784C22.8273 11.9784 22.7452 11.947 22.6849 11.8843L21.3529 10.5523H16.9129C16.0345 10.5523 15.3179 9.83799 15.3179 8.95723V3.80055C15.3179 2.9222 16.0321 2.20552 16.9129 2.20552H23.6091C24.4874 2.20552 25.2041 2.91979 25.2041 3.80055V8.95964C25.2041 9.83799 24.4899 10.5547 23.6091 10.5547H23.2303V11.6623C23.2303 11.7901 23.153 11.9084 23.0324 11.9566C22.9938 11.9735 22.9528 11.9808 22.9093 11.9808V11.9784ZM16.9105 2.84257C16.382 2.84257 15.9549 3.27209 15.9549 3.79814V8.95723C15.9549 9.48569 16.3844 9.9128 16.9105 9.9128H21.4808C21.5652 9.9128 21.6473 9.94658 21.7052 10.0069L22.5884 10.8901V10.2337C22.5884 10.0576 22.7308 9.91521 22.9069 9.91521H23.6043C24.1327 9.91521 24.5598 9.48569 24.5598 8.95964V3.80055C24.5598 3.27209 24.1303 2.84498 23.6043 2.84498H16.9081L16.9105 2.84257Z" fill="#002244"/>
    <path d="M22.2121 7.00507C22.0359 7.00507 21.8936 6.8627 21.8936 6.68655V6.07364C21.8936 5.89749 22.0359 5.75512 22.2121 5.75512C22.3882 5.75512 22.5306 5.89749 22.5306 6.07364V6.68655C22.5306 6.8627 22.3882 7.00507 22.2121 7.00507Z" fill="#002244"/>
    <path d="M20.2599 7.00507C20.0838 7.00507 19.9414 6.8627 19.9414 6.68655V6.07364C19.9414 5.89749 20.0838 5.75512 20.2599 5.75512C20.4361 5.75512 20.5785 5.89749 20.5785 6.07364V6.68655C20.5785 6.8627 20.4361 7.00507 20.2599 7.00507Z" fill="#002244"/>
    <path d="M18.3053 7.00507C18.1292 7.00507 17.9868 6.8627 17.9868 6.68655V6.07364C17.9868 5.89749 18.1292 5.75512 18.3053 5.75512C18.4815 5.75512 18.6239 5.89749 18.6239 6.07364V6.68655C18.6239 6.8627 18.4815 7.00507 18.3053 7.00507Z" fill="#002244"/>
    <path d="M9.55067 16.0878C8.92569 16.0878 8.41895 15.61 8.41895 15.026C8.41895 14.4421 8.92569 13.9643 9.55067 13.9643C10.1756 13.9643 10.6824 14.4421 10.6824 15.026C10.6824 15.61 10.1756 16.0878 9.55067 16.0878ZM9.55067 14.5989C9.27799 14.5989 9.05599 14.7896 9.05599 15.0236C9.05599 15.2577 9.27799 15.4483 9.55067 15.4483C9.82334 15.4483 10.0453 15.2577 10.0453 15.0236C10.0453 14.7896 9.82334 14.5989 9.55067 14.5989Z" fill="#002244"/>
    <path d="M22.9672 16.0878C22.3422 16.0878 21.8354 15.61 21.8354 15.026C21.8354 14.4421 22.3422 13.9643 22.9672 13.9643C23.5921 13.9643 24.0989 14.4421 24.0989 15.026C24.0989 15.61 23.5921 16.0878 22.9672 16.0878ZM22.9672 14.5989C22.6945 14.5989 22.4725 14.7896 22.4725 15.0236C22.4725 15.2577 22.6945 15.4483 22.9672 15.4483C23.2398 15.4483 23.4618 15.2577 23.4618 15.0236C23.4618 14.7896 23.2398 14.5989 22.9672 14.5989Z" fill="#002244"/>
    <path d="M32.1997 26.8234H0.318522C0.14237 26.8234 0 26.6811 0 26.5049C0 26.3288 0.14237 26.1864 0.318522 26.1864H32.1997C32.3759 26.1864 32.5182 26.3288 32.5182 26.5049C32.5182 26.6811 32.3759 26.8234 32.1997 26.8234Z" fill="#002244"/>
    <path d="M27.7382 29H4.78288C4.60673 29 4.46436 28.8576 4.46436 28.6815C4.46436 28.5053 4.60673 28.363 4.78288 28.363H27.7382C27.9143 28.363 28.0567 28.5053 28.0567 28.6815C28.0567 28.8576 27.9143 29 27.7382 29Z" fill="#002244"/>
  </g>
  <defs>
    <clipPath id="clip0_418_13951">
      <rect width="32.5182" height="29" fill="white"/>
    </clipPath>
  </defs>
</svg>