<svg xmlns="http://www.w3.org/2000/svg" width="33" height="29" viewBox="0 0 33 29" fill="none">
  <g clip-path="url(#clip0_418_13718)">
    <path d="M26.6382 29C26.0056 29 25.4117 28.7551 24.9669 28.3103L22.1741 25.5175L22.4936 25.2984C23.5977 24.5396 24.5369 23.593 25.2855 22.4853L25.5047 22.1621L28.3104 24.9678C28.7551 25.4125 29.0001 26.0065 29.0001 26.64C29.0001 27.2809 28.7551 27.8748 28.3113 28.3122C27.8739 28.7569 27.28 29.0009 26.6391 29.0019L26.6382 29ZM23.1732 25.605L25.4227 27.8545C25.7459 28.1777 26.1769 28.3554 26.6382 28.3554C27.2376 28.3554 27.629 28.0847 27.8518 27.8573L27.8564 27.8527C28.0839 27.6298 28.3546 27.2376 28.3546 26.639C28.3546 26.1777 28.1769 25.7459 27.8537 25.4227L25.5949 23.1639C24.9154 24.0985 24.1032 24.9171 23.1723 25.6041L23.1732 25.605ZM6.34077 29C5.69897 29 5.10412 28.7542 4.66674 28.3085C4.22567 27.8748 3.97981 27.2809 3.97981 26.639C3.97981 26.0055 4.22475 25.4125 4.6695 24.9669L7.47521 22.1612L7.69436 22.4844C8.4439 23.593 9.38405 24.5396 10.4863 25.2974L10.8058 25.5166L8.01296 28.3094C7.56821 28.7542 6.97521 28.9991 6.34169 28.9991L6.34077 29ZM7.38313 23.1639L5.12438 25.4227C4.80118 25.7459 4.62346 26.1777 4.62346 26.639C4.62346 27.2385 4.89418 27.6298 5.12162 27.8536C5.34906 28.0847 5.7404 28.3564 6.33985 28.3564C6.80026 28.3564 7.23212 28.1786 7.55532 27.8554L9.80578 25.6059C8.87576 24.919 8.06269 24.1004 7.38313 23.1658V23.1639ZM7.52217 10.8637L5.53138 8.87294C4.00836 9.23482 2.45035 8.79467 1.32972 7.67681C0.162133 6.51474 -0.271568 4.8757 0.168579 3.29375C0.200807 3.1722 0.302096 3.07368 0.431931 3.03869C0.560844 3.00369 0.697124 3.03961 0.788284 3.13169L3.05992 5.40333C3.14464 5.48896 3.25882 5.535 3.38129 5.535C3.50283 5.535 3.61701 5.48804 3.70265 5.40333L5.40339 3.70259C5.4881 3.61787 5.53506 3.50369 5.53506 3.38123C5.53506 3.25968 5.4881 3.1455 5.40339 3.05986L3.13083 0.787304C3.03874 0.695223 3.00467 0.558023 3.03967 0.43003C3.07466 0.301117 3.1741 0.199827 3.29841 0.167599C4.87484 -0.270707 6.51388 0.162995 7.67779 1.32874C8.79565 2.44937 9.23488 4.00738 8.87392 5.5304L10.8776 7.53408L10.5544 7.75323C9.44666 8.50277 8.50007 9.442 7.74132 10.5451L7.52217 10.8647V10.8637ZM5.72291 8.15287L7.43469 9.86465C8.12162 8.93463 8.94022 8.12156 9.87484 7.442L8.15477 5.72193L8.20541 5.54053C8.58571 4.18694 8.21738 2.78178 7.22107 1.78362C6.34077 0.901485 5.14372 0.508299 3.94298 0.687857L5.85919 2.60406C6.06637 2.81125 6.17963 3.08657 6.17963 3.38123C6.17963 3.67497 6.06545 3.95121 5.85919 4.15839L4.15845 5.85913C3.95127 6.06631 3.67595 6.18049 3.38129 6.18049C3.08755 6.18049 2.8113 6.06631 2.60412 5.86005L0.687916 3.94384C0.509279 5.14642 0.902465 6.34255 1.78368 7.22193C2.78276 8.21824 4.187 8.58565 5.54059 8.20627L5.72199 8.15563L5.72291 8.15287ZM0.331562 3.58657C0.331562 3.58657 0.331562 3.58657 0.332483 3.58749H0.331562V3.58657ZM0.790126 3.46318C0.790126 3.46318 0.789205 3.46686 0.788284 3.4687C0.788284 3.46686 0.789205 3.46502 0.790126 3.46318ZM3.47429 0.787304C3.47429 0.787304 3.46876 0.789146 3.466 0.789146C3.46876 0.789146 3.47153 0.787304 3.47429 0.787304ZM25.4577 10.8647L25.2386 10.5451C24.4798 9.442 23.5332 8.50185 22.4255 7.75323L22.1023 7.53408L24.106 5.5304C23.745 4.00738 24.1842 2.44937 25.3021 1.32874C26.4651 0.162995 28.1032 -0.271627 29.6861 0.16852C29.8058 0.199827 29.9052 0.300196 29.9402 0.429109C29.9752 0.558023 29.9402 0.694303 29.85 0.786384L27.5765 3.05986C27.4918 3.14458 27.4448 3.25876 27.4448 3.38123C27.4448 3.50277 27.4918 3.61695 27.5765 3.70259L29.2772 5.40333C29.3629 5.48896 29.4761 5.53592 29.5986 5.53592C29.7201 5.53592 29.8343 5.48896 29.92 5.40425L32.1925 3.13169C32.2828 3.04145 32.419 3.00554 32.547 3.03961C32.6769 3.07368 32.7782 3.17312 32.8113 3.29743C33.2505 4.87662 32.8168 6.51567 31.6502 7.67865C30.5295 8.79651 28.9715 9.23666 27.4485 8.87478L25.4577 10.8656V10.8647ZM23.105 7.44292C24.0397 8.12248 24.8583 8.93463 25.5452 9.86557L27.257 8.15379L27.4384 8.20443C28.792 8.58473 30.1971 8.2164 31.1953 7.22009C32.0774 6.33979 32.4706 5.14274 32.291 3.942L30.3748 5.85821C30.1677 6.06539 29.8923 6.17865 29.5977 6.17865C29.3039 6.17865 29.0277 6.06447 28.8205 5.85729L27.1198 4.15655C26.9126 3.94937 26.7993 3.67404 26.7984 3.37939C26.7984 3.08473 26.9126 2.8094 27.1189 2.60222L29.0341 0.686015C27.8316 0.507378 26.6354 0.900564 25.7561 1.78178C24.7597 2.78086 24.3923 4.18509 24.7717 5.53869L24.8224 5.72008L23.1023 7.44016L23.105 7.44292ZM32.6492 3.58565L32.6474 3.58749C32.6474 3.58749 32.6483 3.58657 32.6492 3.58565ZM32.1907 3.46594C32.1907 3.46594 32.1907 3.4687 32.1916 3.47055C32.1916 3.4687 32.1916 3.46778 32.1907 3.46594ZM29.5102 0.788225C29.5102 0.788225 29.5157 0.790067 29.5185 0.790988C29.5157 0.790988 29.513 0.789146 29.5102 0.788225Z" fill="#002244"/>
    <path fill-rule="evenodd" clip-rule="evenodd" d="M28.1823 16.5497C28.1823 10.0921 22.9475 4.8573 16.4898 4.8573C10.0322 4.8573 4.79736 10.0921 4.79736 16.5497C4.79736 23.0074 10.0322 28.2422 16.4898 28.2422C22.9475 28.2422 28.1823 23.0074 28.1823 16.5497Z" fill="white"/>
    <path d="M16.4889 28.5645C9.86363 28.5645 4.47412 23.174 4.47412 16.5497C4.47412 9.92543 9.86455 4.53409 16.4889 4.53409C23.1132 4.53409 28.5036 9.92451 28.5036 16.5488C28.5036 23.1731 23.1132 28.5636 16.4889 28.5636V28.5645ZM16.4889 5.17866C10.2191 5.17866 5.11869 10.2799 5.11869 16.5488C5.11869 22.8177 10.22 27.919 16.4889 27.919C22.7577 27.919 27.859 22.8186 27.859 16.5488C27.859 10.279 22.7587 5.17866 16.4889 5.17866Z" fill="#002244"/>
    <path d="M18.4476 17.3665H14.5323C12.6382 17.3665 11.0977 15.7993 11.0977 13.872C11.0977 11.9448 12.6391 10.4383 14.5323 10.4383H18.4476C19.8352 10.4383 21.1345 11.2938 21.6778 12.5654C21.9006 13.0857 21.6594 13.6869 21.1391 13.9089C20.6188 14.128 20.0166 13.8914 19.7956 13.3702C19.6069 12.931 19.0838 12.4862 18.4476 12.4862H14.5323C13.7671 12.4862 13.1455 13.1078 13.1455 13.872C13.1455 14.6823 13.7551 15.3177 14.5323 15.3177H18.4476C19.0129 15.3177 19.4715 15.7763 19.4715 16.3416C19.4715 16.907 19.0129 17.3656 18.4476 17.3656V17.3665Z" fill="#002244"/>
    <path d="M18.4474 22.186H14.5321C13.1435 22.186 11.8664 21.3214 11.3526 20.0359C11.1417 19.5111 11.3986 18.9153 11.9235 18.7053C12.4474 18.4963 13.045 18.7514 13.254 19.2763C13.4575 19.7836 13.9824 20.1372 14.5321 20.1372H18.4474C19.2108 20.1372 19.8332 19.5157 19.8332 18.7514C19.8332 17.9871 19.2117 17.3656 18.4474 17.3656C17.882 17.3656 17.4235 16.907 17.4235 16.3416C17.4235 15.7763 17.882 15.3177 18.4474 15.3177C20.3415 15.3177 21.8811 16.8573 21.8811 18.7514C21.8811 20.6455 20.3415 22.1851 18.4474 22.1851V22.186Z" fill="#002244"/>
    <path d="M16.5195 12.4871C15.9542 12.4871 15.4956 12.0286 15.4956 11.4632V8.93187C15.4956 8.36649 15.9542 7.90793 16.5195 7.90793C17.0849 7.90793 17.5435 8.36649 17.5435 8.93187V11.4632C17.5435 12.0286 17.0849 12.4871 16.5195 12.4871Z" fill="#002244"/>
    <path d="M16.5195 24.7772C15.9542 24.7772 15.4956 24.3186 15.4956 23.7532V21.1621C15.4956 20.5967 15.9542 20.1381 16.5195 20.1381C17.0849 20.1381 17.5435 20.5967 17.5435 21.1621V23.7532C17.5435 24.3186 17.0849 24.7772 16.5195 24.7772Z" fill="#002244"/>
  </g>
  <defs>
    <clipPath id="clip0_418_13718">
      <rect width="32.9788" height="29" fill="white"/>
    </clipPath>
  </defs>
</svg>