<svg xmlns="http://www.w3.org/2000/svg" width="29" height="29" viewBox="0 0 29 29" fill="none">
  <g clip-path="url(#clip0_410_12192)">
    <path d="M28.5167 15.95H5.31665V18.3666H28.5167V15.95Z" fill="#002244"/>
    <path d="M27.0666 29H6.76659C5.69842 29 4.83325 28.1348 4.83325 27.0666V13.5333C4.83325 12.4651 5.69842 11.6 6.76659 11.6H27.0666C28.1348 11.6 28.9999 12.4651 28.9999 13.5333V27.0666C28.9999 28.1348 28.1348 29 27.0666 29ZM6.76659 12.5666C6.23492 12.5666 5.79992 13.0016 5.79992 13.5333V27.0666C5.79992 27.5983 6.23492 28.0333 6.76659 28.0333H27.0666C27.5983 28.0333 28.0333 27.5983 28.0333 27.0666V13.5333C28.0333 13.0016 27.5983 12.5666 27.0666 12.5666H6.76659Z" fill="#002244"/>
    <path d="M28.5166 16.4333H5.31659C5.05075 16.4333 4.83325 16.2158 4.83325 15.95C4.83325 15.6842 5.05075 15.4667 5.31659 15.4667H28.5166C28.7824 15.4667 28.9999 15.6842 28.9999 15.95C28.9999 16.2158 28.7824 16.4333 28.5166 16.4333Z" fill="#002244"/>
    <path d="M28.5166 18.85H5.31659C5.05075 18.85 4.83325 18.6325 4.83325 18.3666C4.83325 18.1008 5.05075 17.8833 5.31659 17.8833H28.5166C28.7824 17.8833 28.9999 18.1008 28.9999 18.3666C28.9999 18.6325 28.7824 18.85 28.5166 18.85Z" fill="#002244"/>
    <path d="M26.5834 25.6167H11.6001V26.5834H26.5834V25.6167Z" fill="#002244"/>
    <path d="M26.1 23.6833H25.1333V24.65H26.1V23.6833Z" fill="#002244"/>
    <path d="M24.1666 23.6833H23.2V24.65H24.1666V23.6833Z" fill="#002244"/>
    <path d="M22.2333 23.6833H21.2666V24.65H22.2333V23.6833Z" fill="#002244"/>
    <path d="M3.42683 18.3666C3.25766 18.3666 3.09332 18.2796 3.00632 18.1201L0.251325 13.2433C-0.270675 12.3153 0.0434918 11.1215 0.952158 10.5801L18.4198 0.265797C18.8645 0.00479705 19.3817 -0.0677029 19.8795 0.0676304C20.3822 0.202964 20.7978 0.526797 21.054 0.98113L26.0372 9.81163C26.1677 10.0436 26.0855 10.3385 25.8535 10.469C25.6215 10.5995 25.3267 10.5173 25.1962 10.2853L20.213 1.4548C20.0825 1.22763 19.8795 1.0633 19.6282 0.99563C19.3817 0.927964 19.1303 0.96663 18.9128 1.0923L1.44516 11.4115C0.985992 11.687 0.826492 12.2911 1.09233 12.7648L3.84249 17.6465C3.97299 17.8785 3.89083 18.1733 3.65882 18.3038C3.58149 18.3473 3.50416 18.3666 3.42199 18.3666H3.42683Z" fill="#002244"/>
  </g>
  <defs>
    <clipPath id="clip0_410_12192">
      <rect width="29" height="29" fill="white"/>
    </clipPath>
  </defs>
</svg>