<svg xmlns="http://www.w3.org/2000/svg" width="34" height="29" viewBox="0 0 34 29" fill="none">
  <g clip-path="url(#clip0_406_11500)">
    <path d="M19.7405 28.9999H19.7122C18.1253 28.9466 14.5951 27.6181 10.8071 26.144C9.70152 25.7135 8.74641 25.3421 8.33699 25.2181C7.9907 25.1138 7.79602 24.7535 7.90279 24.4128C8.00839 24.0721 8.37534 23.8791 8.72281 23.9863C9.18237 24.1248 10.1121 24.4869 11.2914 24.9458C13.9001 25.9621 18.2669 27.6615 19.7464 27.7119C21.7316 27.76 30.8332 22.7794 32.3894 20.0429C32.7369 19.4409 32.6885 19.2398 32.6879 19.2375C31.8968 18.6534 25.8641 21.0441 24.876 21.7736C24.5887 21.9856 24.1757 21.9358 23.9562 21.6565C23.7368 21.3767 23.7822 20.9792 24.0642 20.7607C24.3615 20.5301 31.7222 16.7443 33.5652 18.293C33.9775 18.6395 34.3067 19.3348 33.5339 20.6738C31.7104 23.8814 22.2136 28.9999 19.7417 28.9999H19.7405Z" fill="#002244"/>
    <path d="M21.8996 23.7905C21.5315 23.7905 21.1468 23.7551 20.7569 23.681L19.6909 23.4712C18.029 23.1473 16.4586 22.8408 14.7017 22.2979C14.356 22.1913 14.1637 21.8298 14.2729 21.4902C14.3814 21.1513 14.7531 20.9647 15.0952 21.069C16.7842 21.5905 18.3198 21.8906 19.9457 22.207L21.0117 22.4167C22.6789 22.7325 23.7479 22.1189 23.8535 21.7011C23.929 21.3998 23.447 20.7764 21.8111 20.2914C19.0272 19.4426 17.4078 18.2734 16.1058 17.333C15.2645 16.7258 14.6009 16.2466 13.8452 16.0032C11.9503 15.4267 9.0395 16.2437 7.14284 17.2472C6.82192 17.4135 6.42489 17.2988 6.25381 16.9853C6.08213 16.6719 6.2013 16.2808 6.52046 16.1122C8.72329 14.9487 11.9674 14.0848 14.2428 14.7749C15.2091 15.0849 15.9849 15.6452 16.8828 16.2941C18.1694 17.2229 19.6266 18.2757 22.1952 19.0579C25.3673 19.9983 25.2416 21.5551 25.1272 22.0094C24.8534 23.1004 23.5261 23.7899 21.8996 23.7899V23.7905Z" fill="#002244"/>
    <path d="M2.93321 27.7114C2.62998 27.7114 2.35743 27.504 2.29136 27.2004L0.0141887 16.6239C-0.0217976 16.4564 0.011239 16.2826 0.106809 16.1389C0.20179 15.9958 0.351044 15.8955 0.521537 15.8602L4.18801 15.1023C4.5408 15.0316 4.88945 15.2512 4.96496 15.6L7.24272 26.1766C7.27871 26.344 7.24567 26.5178 7.1501 26.6615C7.05512 26.8047 6.90586 26.9049 6.73537 26.9402L3.0689 27.6981C3.02347 27.7074 2.97805 27.712 2.93321 27.712V27.7114ZM1.43417 16.9883L3.44056 26.3035L5.82274 25.811L3.81635 16.4958L1.43417 16.9883Z" fill="#002244"/>
    <path d="M31.3407 16.7177C31.2298 16.7177 31.1171 16.6905 31.0144 16.6319C30.7006 16.4541 30.592 16.0606 30.7726 15.7518C31.6628 14.2326 32.1135 12.6056 32.1135 10.9178C32.1135 5.60868 27.7155 1.28919 22.3099 1.28919C16.9043 1.28919 12.5069 5.60868 12.5069 10.9178C12.5069 11.5187 12.5529 12.0193 12.6467 12.4503C12.7222 12.7986 12.4968 13.141 12.1429 13.2157C11.7918 13.2899 11.4402 13.0697 11.3635 12.7209C11.2497 12.2 11.1948 11.6102 11.1948 10.9178C11.1936 4.89774 16.1798 0 22.3093 0C28.4388 0 33.4255 4.89774 33.4255 10.9178C33.4255 12.8339 32.9158 14.6764 31.9106 16.3944C31.789 16.6012 31.5684 16.7177 31.3407 16.7177Z" fill="#002244"/>
    <path d="M23.5446 10.8801H21.0362C19.8227 10.8801 18.8357 9.89395 18.8357 8.68125C18.8357 7.46854 19.8233 6.52063 21.0362 6.52063H23.5446C24.4336 6.52063 25.266 7.0589 25.6141 7.85906C25.7569 8.18643 25.6023 8.56478 25.269 8.70442C24.9357 8.84232 24.5498 8.69341 24.4083 8.36547C24.2873 8.08909 23.9522 7.80924 23.5446 7.80924H21.0362C20.5459 7.80924 20.1477 8.20034 20.1477 8.68125C20.1477 9.19113 20.5383 9.59092 21.0362 9.59092H23.5446C23.9068 9.59092 24.2006 9.87946 24.2006 10.2352C24.2006 10.591 23.9068 10.8795 23.5446 10.8795V10.8801Z" fill="#002244"/>
    <path d="M23.5444 13.9121H21.036C20.1464 13.9121 19.3281 13.3681 18.9989 12.5592C18.8638 12.229 19.0284 11.8541 19.3647 11.722C19.7004 11.5905 20.0832 11.7509 20.2171 12.0812C20.3475 12.4005 20.6838 12.623 21.036 12.623H23.5444C24.0335 12.623 24.4323 12.2319 24.4323 11.7509C24.4323 11.27 24.0341 10.8789 23.5444 10.8789C23.1822 10.8789 22.8884 10.5904 22.8884 10.2346C22.8884 9.87888 23.1822 9.59033 23.5444 9.59033C24.7579 9.59033 25.7443 10.5591 25.7443 11.7509C25.7443 12.9428 24.7579 13.9116 23.5444 13.9116V13.9121Z" fill="#002244"/>
    <path d="M22.3091 7.80987C21.9469 7.80987 21.6531 7.52132 21.6531 7.16556V5.57277C21.6531 5.21701 21.9469 4.92847 22.3091 4.92847C22.6713 4.92847 22.9651 5.21701 22.9651 5.57277V7.16556C22.9651 7.52132 22.6713 7.80987 22.3091 7.80987Z" fill="#002244"/>
    <path d="M22.3091 15.5426C21.9469 15.5426 21.6531 15.2541 21.6531 14.8983V13.2678C21.6531 12.9121 21.9469 12.6235 22.3091 12.6235C22.6713 12.6235 22.9651 12.9121 22.9651 13.2678V14.8983C22.9651 15.2541 22.6713 15.5426 22.3091 15.5426Z" fill="#002244"/>
  </g>
  <defs>
    <clipPath id="clip0_406_11500">
      <rect width="34" height="29" fill="white"/>
    </clipPath>
  </defs>
</svg>