<svg xmlns="http://www.w3.org/2000/svg" width="26" height="29" viewBox="0 0 26 29" fill="none">
  <g clip-path="url(#clip0_418_13604)">
    <path d="M12.7845 29C9.66871 29 7.13574 26.4891 7.13574 23.4048C7.13574 21.1365 8.5251 18.6192 10.3996 17.4378L9.99006 15.7901C9.96486 15.6925 9.99006 15.5916 10.0499 15.5129C10.1098 15.4341 10.2043 15.39 10.3051 15.39H15.3049C15.4057 15.39 15.4971 15.4341 15.5601 15.5129C15.6231 15.5916 15.642 15.6925 15.6199 15.7901L15.2104 17.4378C17.0944 18.6318 18.4396 21.0955 18.4396 23.4016C18.4396 26.4891 15.9066 28.9969 12.7908 28.9969L12.7845 29ZM10.7147 16.0359L11.0833 17.5134C11.1179 17.6552 11.0549 17.8001 10.9289 17.8726C9.13313 18.8902 7.78159 21.2688 7.78159 23.4048C7.78159 26.1362 10.0247 28.3573 12.7845 28.3573C15.5443 28.3573 17.7875 26.1362 17.7875 23.4048C17.7875 21.2656 16.4485 18.887 14.6716 17.8757C14.5456 17.8033 14.4826 17.6583 14.5173 17.5166L14.8859 16.0359H10.7115H10.7147Z" fill="#002244"/>
    <path d="M3.70809 11.1274C1.66344 11.1274 0 9.46399 0 7.41934C0 5.37469 1.66344 3.71124 3.70809 3.71124C5.75274 3.71124 7.41619 5.37469 7.41619 7.41934C7.41619 9.46399 5.75274 11.1274 3.70809 11.1274ZM3.70809 4.36024C2.01945 4.36024 0.645845 5.73384 0.645845 7.42249C0.645845 9.11113 2.01945 10.4847 3.70809 10.4847C5.39674 10.4847 6.77034 9.11113 6.77034 7.42249C6.77034 5.73384 5.39674 4.36024 3.70809 4.36024Z" fill="#002244"/>
    <path d="M12.7657 7.41304C10.7211 7.41304 9.05762 5.74959 9.05762 3.70494C9.05762 1.66029 10.7211 0 12.7657 0C14.8104 0 16.4738 1.66344 16.4738 3.70809C16.4738 5.75274 14.8104 7.41619 12.7657 7.41619V7.41304ZM12.7657 0.645845C11.0771 0.645845 9.70346 2.01945 9.70346 3.70809C9.70346 5.39674 11.0771 6.77034 12.7657 6.77034C14.4544 6.77034 15.828 5.39674 15.828 3.70809C15.828 2.01945 14.4544 0.645845 12.7657 0.645845Z" fill="#002244"/>
    <path d="M21.8231 11.1274C19.7785 11.1274 18.1182 9.46399 18.1182 7.41934C18.1182 5.37469 19.7816 3.71124 21.8231 3.71124C23.8646 3.71124 25.5312 5.37469 25.5312 7.41934C25.5312 9.46399 23.8678 11.1274 21.8231 11.1274ZM21.8231 4.36024C20.1345 4.36024 18.7609 5.73384 18.7609 7.42249C18.7609 9.11113 20.1345 10.4847 21.8231 10.4847C23.5118 10.4847 24.8854 9.11113 24.8854 7.42249C24.8854 5.73384 23.5118 4.36024 21.8231 4.36024Z" fill="#002244"/>
    <path d="M3.73035 11.6063C4.30689 12.0915 4.88027 12.5798 5.4379 13.0807L6.28223 13.8274C6.55947 14.0794 6.86191 14.3094 7.12655 14.574C7.25887 14.7063 7.25572 14.9174 7.12655 15.0497C6.99423 15.1821 6.78315 15.1821 6.65398 15.0497C6.38934 14.7851 6.15936 14.4827 5.90732 14.2054L5.16066 13.3611C4.65974 12.8003 4.17142 12.2269 3.68624 11.6536C3.67364 11.641 3.67679 11.6189 3.6894 11.6094C3.702 11.6 3.71775 11.6 3.73035 11.6094V11.6063Z" fill="#002244"/>
    <path d="M8.32034 16.2438C7.39725 15.8216 6.13392 15.412 5.16357 15.3459L6.701 14.6244L7.4193 13.0901C7.48546 14.0605 7.89502 15.3207 8.32034 16.2438Z" fill="#002244"/>
    <path d="M21.8484 11.6536C21.3632 12.2301 20.8749 12.8035 20.3739 13.3611L19.6273 14.2054C19.3752 14.4827 19.1453 14.7851 18.8806 15.0498C18.7483 15.1821 18.5372 15.1789 18.4049 15.0498C18.2726 14.9206 18.2726 14.7064 18.4049 14.5772C18.6695 14.3126 18.972 14.0826 19.2492 13.8305L20.0936 13.0839C20.6543 12.583 21.2277 12.0946 21.8011 11.6095C21.8137 11.5969 21.8358 11.6 21.8452 11.6126C21.8547 11.6252 21.8547 11.641 21.8452 11.6536H21.8484Z" fill="#002244"/>
    <path d="M17.2109 16.2438C17.6331 15.3207 18.0427 14.0574 18.1088 13.087L18.8303 14.6245L20.3645 15.3428C19.3942 15.4089 18.134 15.8185 17.2109 16.2438Z" fill="#002244"/>
    <path d="M12.8161 8.24789C12.8791 8.9977 12.9422 9.74751 12.9831 10.5005L13.0524 11.6252C13.0713 12.0001 13.1217 12.375 13.1217 12.7499C13.1217 12.9358 12.9705 13.0838 12.7846 13.0838C12.5988 13.0838 12.4507 12.9326 12.4507 12.7499C12.4507 12.375 12.5011 12.0001 12.52 11.6252L12.5893 10.5005C12.6303 9.75066 12.6901 9.00085 12.7563 8.24789C12.7563 8.22899 12.772 8.21639 12.7909 8.21954C12.8067 8.21954 12.8193 8.23214 12.8193 8.24789H12.8161Z" fill="#002244"/>
    <path d="M12.7846 14.7757C12.4317 13.8242 11.8268 12.6428 11.1904 11.9088L12.7846 12.4853L14.3787 11.9088C13.7392 12.6428 13.1374 13.8242 12.7846 14.7757Z" fill="#002244"/>
    <path d="M4.09574 7.66823H3.06239C2.56461 7.66823 2.1582 7.25552 2.1582 6.7483C2.1582 6.24107 2.56461 5.84412 3.06239 5.84412H4.09574C4.46119 5.84412 4.80459 6.07095 4.94636 6.4049C5.00622 6.54037 4.94006 6.70104 4.80459 6.75775C4.66912 6.81446 4.50845 6.7546 4.45174 6.61598C4.40133 6.49941 4.26271 6.38285 4.09574 6.38285H3.06239C2.86076 6.38285 2.69693 6.54667 2.69693 6.7483C2.69693 6.96253 2.85761 7.1295 3.06239 7.1295H4.09574C4.24381 7.1295 4.36668 7.24922 4.36668 7.40044C4.36668 7.55167 4.24696 7.67138 4.09574 7.67138V7.66823Z" fill="#002244"/>
    <path d="M4.0958 8.93786H3.06245C2.697 8.93786 2.3599 8.71102 2.22443 8.37077C2.16772 8.23215 2.23703 8.07463 2.37565 8.02107C2.51427 7.96752 2.67179 8.03368 2.72535 8.1723C2.77891 8.30462 2.91753 8.39913 3.06245 8.39913H4.0958C4.29743 8.39913 4.46126 8.2353 4.46126 8.03368C4.46126 7.83205 4.29743 7.66822 4.0958 7.66822C3.94773 7.66822 3.82486 7.5485 3.82486 7.39728C3.82486 7.24606 3.94458 7.12634 4.0958 7.12634C4.59358 7.12634 4.99999 7.53275 4.99999 8.03052C4.99999 8.5283 4.59358 8.93471 4.0958 8.93471V8.93786Z" fill="#002244"/>
    <path d="M3.58832 6.3797C3.44025 6.3797 3.31738 6.25998 3.31738 6.10876V5.44086C3.31738 5.29279 3.4371 5.16992 3.58832 5.16992C3.73954 5.16992 3.85926 5.28964 3.85926 5.44086V6.10876C3.85926 6.25683 3.73954 6.3797 3.58832 6.3797Z" fill="#002244"/>
    <path d="M3.58832 9.62153C3.44025 9.62153 3.31738 9.50181 3.31738 9.35059V8.66694C3.31738 8.51886 3.4371 8.396 3.58832 8.396C3.73954 8.396 3.85926 8.51571 3.85926 8.66694V9.35059C3.85926 9.49866 3.73954 9.62153 3.58832 9.62153Z" fill="#002244"/>
    <path d="M22.3682 7.66823H21.3348C20.8371 7.66823 20.4307 7.25552 20.4307 6.7483C20.4307 6.24107 20.8371 5.84412 21.3348 5.84412H22.3682C22.7337 5.84412 23.0771 6.07095 23.2188 6.4049C23.2787 6.54037 23.2125 6.70104 23.0771 6.75775C22.9416 6.81446 22.7809 6.7546 22.7242 6.61598C22.6738 6.49941 22.5352 6.38285 22.3682 6.38285H21.3348C21.1332 6.38285 20.9694 6.54667 20.9694 6.7483C20.9694 6.96253 21.1301 7.1295 21.3348 7.1295H22.3682C22.5163 7.1295 22.6391 7.24922 22.6391 7.40044C22.6391 7.55167 22.5194 7.67138 22.3682 7.67138V7.66823Z" fill="#002244"/>
    <path d="M22.3683 8.93786H21.3349C20.9695 8.93786 20.6324 8.71102 20.4969 8.37077C20.4402 8.23215 20.5095 8.07463 20.6481 8.02107C20.7867 7.96752 20.9443 8.03368 20.9978 8.1723C21.0514 8.30462 21.19 8.39913 21.3349 8.39913H22.3683C22.5699 8.39913 22.7337 8.2353 22.7337 8.03368C22.7337 7.83205 22.5699 7.66822 22.3683 7.66822C22.2202 7.66822 22.0973 7.5485 22.0973 7.39728C22.0973 7.24606 22.217 7.12634 22.3683 7.12634C22.866 7.12634 23.2724 7.53275 23.2724 8.03052C23.2724 8.5283 22.866 8.93471 22.3683 8.93471V8.93786Z" fill="#002244"/>
    <path d="M21.8608 6.3797C21.7127 6.3797 21.5898 6.25998 21.5898 6.10876V5.44086C21.5898 5.29279 21.7096 5.16992 21.8608 5.16992C22.012 5.16992 22.1317 5.28964 22.1317 5.44086V6.10876C22.1317 6.25683 22.012 6.3797 21.8608 6.3797Z" fill="#002244"/>
    <path d="M21.8608 9.62153C21.7127 9.62153 21.5898 9.50181 21.5898 9.35059V8.66694C21.5898 8.51886 21.7096 8.396 21.8608 8.396C22.012 8.396 22.1317 8.51571 22.1317 8.66694V9.35059C22.1317 9.49866 22.012 9.62153 21.8608 9.62153Z" fill="#002244"/>
    <path d="M13.232 3.88765H12.1986C11.7008 3.88765 11.2944 3.47494 11.2944 2.96772C11.2944 2.4605 11.7008 2.06354 12.1986 2.06354H13.232C13.5974 2.06354 13.9408 2.29037 14.0826 2.62432C14.1425 2.75979 14.0763 2.92046 13.9408 2.97717C13.8054 3.03388 13.6447 2.97402 13.588 2.8354C13.5376 2.71883 13.3989 2.60227 13.232 2.60227H12.1986C11.997 2.60227 11.8332 2.76609 11.8332 2.96772C11.8332 3.18195 11.9938 3.34893 12.1986 3.34893H13.232C13.38 3.34893 13.5029 3.46864 13.5029 3.61987C13.5029 3.77109 13.3832 3.89081 13.232 3.89081V3.88765Z" fill="#002244"/>
    <path d="M13.232 5.15728H12.1987C11.8332 5.15728 11.4961 4.93045 11.3607 4.5902C11.304 4.45158 11.3733 4.29405 11.5119 4.2405C11.6505 4.18694 11.808 4.2531 11.8616 4.39172C11.9151 4.52404 12.0538 4.61855 12.1987 4.61855H13.232C13.4337 4.61855 13.5975 4.45473 13.5975 4.2531C13.5975 4.05147 13.4337 3.88764 13.232 3.88764C13.084 3.88764 12.9611 3.76793 12.9611 3.6167C12.9611 3.46548 13.0808 3.34576 13.232 3.34576C13.7298 3.34576 14.1362 3.75217 14.1362 4.24995C14.1362 4.74772 13.7298 5.15413 13.232 5.15413V5.15728Z" fill="#002244"/>
    <path d="M12.7246 2.59912C12.5765 2.59912 12.4536 2.4794 12.4536 2.32818V1.66028C12.4536 1.51221 12.5733 1.38934 12.7246 1.38934C12.8758 1.38934 12.9955 1.50906 12.9955 1.66028V2.32818C12.9955 2.47625 12.8758 2.59912 12.7246 2.59912Z" fill="#002244"/>
    <path d="M12.7246 5.84095C12.5765 5.84095 12.4536 5.72123 12.4536 5.57001V4.88636C12.4536 4.73829 12.5733 4.61542 12.7246 4.61542C12.8758 4.61542 12.9955 4.73514 12.9955 4.88636V5.57001C12.9955 5.71808 12.8758 5.84095 12.7246 5.84095Z" fill="#002244"/>
    <path d="M13.4745 23.4867H11.9781C11.2535 23.4867 10.6675 22.8881 10.6675 22.1509C10.6675 21.4137 11.2566 20.8403 11.9781 20.8403H13.4745C14.0038 20.8403 14.5016 21.168 14.7095 21.6532C14.7946 21.8516 14.7032 22.0816 14.5047 22.1667C14.3063 22.2517 14.0763 22.1604 13.9912 21.9619C13.9188 21.7949 13.7203 21.6248 13.4777 21.6248H11.9812C11.6882 21.6248 11.4519 21.8611 11.4519 22.1541C11.4519 22.4628 11.6851 22.7054 11.9812 22.7054H13.4777C13.6951 22.7054 13.8683 22.8818 13.8683 23.0961C13.8683 23.3103 13.6919 23.4867 13.4777 23.4867H13.4745Z" fill="#002244"/>
    <path d="M13.4743 25.3297H11.9778C11.4486 25.3297 10.9602 24.9989 10.7649 24.5074C10.683 24.3058 10.7838 24.079 10.9823 24.0002C11.1839 23.9215 11.4108 24.0191 11.4895 24.2176C11.5683 24.4129 11.7668 24.5453 11.9778 24.5453H13.4743C13.7673 24.5453 14.0036 24.309 14.0036 24.016C14.0036 23.723 13.7673 23.4867 13.4743 23.4867C13.2569 23.4867 13.0836 23.3103 13.0836 23.096C13.0836 22.8818 13.2601 22.7054 13.4743 22.7054C14.1989 22.7054 14.7849 23.2945 14.7849 24.016C14.7849 24.7374 14.1958 25.3266 13.4743 25.3266V25.3297Z" fill="#002244"/>
    <path d="M12.7373 21.6248C12.52 21.6248 12.3467 21.4484 12.3467 21.2341V20.2669C12.3467 20.0496 12.5231 19.8763 12.7373 19.8763C12.9516 19.8763 13.128 20.0527 13.128 20.2669V21.2341C13.128 21.4515 12.9516 21.6248 12.7373 21.6248Z" fill="#002244"/>
    <path d="M12.7373 26.319C12.52 26.319 12.3467 26.1425 12.3467 25.9283V24.9391C12.3467 24.7217 12.5231 24.5484 12.7373 24.5484C12.9516 24.5484 13.128 24.7248 13.128 24.9391V25.9283C13.128 26.1457 12.9516 26.319 12.7373 26.319Z" fill="#002244"/>
  </g>
  <defs>
    <clipPath id="clip0_418_13604">
      <rect width="25.5313" height="29" fill="white"/>
    </clipPath>
  </defs>
</svg>