<svg xmlns="http://www.w3.org/2000/svg" width="27" height="29" viewBox="0 0 27 29" fill="none">
  <g clip-path="url(#clip0_418_13676)">
    <path d="M13.0209 25.1893C12.8999 25.1893 12.7789 25.1481 12.681 25.0682C12.5445 24.9549 12.4725 24.7824 12.4879 24.6073L12.748 21.7648C12.7737 21.4712 13.0286 21.255 13.3273 21.2807C13.6208 21.3065 13.8371 21.5665 13.8113 21.86L13.6234 23.9199L15.6086 23.338C15.8918 23.2556 16.1879 23.4178 16.2703 23.701C16.3527 23.9842 16.1905 24.2804 15.9072 24.3627L13.1702 25.1661C13.1213 25.1815 13.0698 25.1867 13.0209 25.1867V25.1893Z" fill="#002244"/>
    <path d="M15.7579 24.386C15.6394 24.386 15.5184 24.3473 15.418 24.2649L12.941 22.2257C12.8329 22.1356 12.7634 22.0068 12.7479 21.8652C12.735 21.7236 12.7762 21.5846 12.8664 21.4739L22.1305 10.2091C22.2206 10.1009 22.3494 10.0314 22.491 10.016C22.6326 10.0031 22.7716 10.0443 22.8823 10.1344L25.3593 12.1737C25.5859 12.3616 25.6194 12.6963 25.434 12.9255L16.1698 24.1903C16.0643 24.319 15.9123 24.386 15.7579 24.386ZM14.0302 21.7416L15.6832 23.1011L24.2702 12.6603L22.6171 11.3008L14.0302 21.7416Z" fill="#002244"/>
    <path d="M25.0221 13.1186C24.9036 13.1186 24.7826 13.08 24.6822 12.9976L22.2052 10.9583C21.9786 10.7704 21.9452 10.4357 22.1305 10.2065L23.2557 8.83671C23.4463 8.60497 23.7141 8.46336 24.0127 8.43246C24.3114 8.40414 24.6024 8.49168 24.8341 8.68222L26.4073 9.97477C26.8836 10.3661 26.9532 11.0742 26.5618 11.5505L25.4366 12.9203C25.331 13.0491 25.1791 13.116 25.0246 13.116L25.0221 13.1186ZM23.2944 10.4743L24.9474 11.8338L25.7353 10.876C25.7533 10.8528 25.7507 10.8193 25.7275 10.8013L24.1543 9.50873C24.1337 9.49328 24.0951 9.49586 24.0797 9.51645L23.2918 10.4743H23.2944Z" fill="#002244"/>
    <path d="M21.4713 29H0.532984C0.236882 29 0 28.7605 0 28.467V0.532984C0 0.239457 0.239457 0 0.532984 0H17.9489C18.2425 0 18.4819 0.239457 18.4819 0.532984C18.4819 0.826512 18.2425 1.06597 17.9489 1.06597H1.06854V27.9315H20.9383V20.5006C20.9383 20.2071 21.1778 19.9676 21.4713 19.9676C21.7648 19.9676 22.0043 20.2071 22.0043 20.5006V28.467C22.0043 28.7605 21.7648 29 21.4713 29Z" fill="#002244"/>
    <path d="M5.05701 11.2364C4.92312 11.2364 4.79438 11.1875 4.69653 11.0974L3.29327 9.81515C3.07441 9.61689 3.06153 9.27959 3.25979 9.06073C3.45805 8.84187 3.79535 8.82643 4.01421 9.02726L5.00036 9.92844L7.48505 6.8876C7.67301 6.65844 8.00773 6.62497 8.23689 6.81293C8.46605 6.99831 8.49952 7.33561 8.31156 7.56477L5.47155 11.0408C5.37886 11.154 5.24239 11.2236 5.0982 11.2364C5.08533 11.2364 5.07246 11.2364 5.05958 11.2364H5.05701Z" fill="#002244"/>
    <path d="M18.3509 10.6108H11.4324C11.1363 10.6108 10.8994 10.3713 10.8994 10.0778C10.8994 9.78426 11.1389 9.5448 11.4324 9.5448H18.3509C18.6444 9.5448 18.8839 9.78426 18.8839 10.0778C18.8839 10.3713 18.6444 10.6108 18.3509 10.6108Z" fill="#002244"/>
    <path d="M15.3435 7.88665H11.4324C11.1363 7.88665 10.8994 7.64719 10.8994 7.35366C10.8994 7.06014 11.1389 6.82068 11.4324 6.82068H15.3435C15.6371 6.82068 15.8765 7.06014 15.8765 7.35366C15.8765 7.64719 15.6371 7.88665 15.3435 7.88665Z" fill="#002244"/>
    <path d="M5.05701 18.5C4.92312 18.5 4.79695 18.4511 4.69653 18.3609L3.29327 17.0787C3.07441 16.8804 3.06153 16.5431 3.25979 16.3243C3.45805 16.1054 3.79535 16.0925 4.01421 16.2908L5.00294 17.192L7.48762 14.1537C7.67558 13.9246 8.01031 13.8911 8.23946 14.079C8.46862 14.2644 8.50209 14.6017 8.31413 14.8309L5.47412 18.3069C5.38143 18.4202 5.24497 18.4897 5.10078 18.5026C5.0879 18.5026 5.07503 18.5026 5.06216 18.5026L5.05701 18.5Z" fill="#002244"/>
    <path d="M12.4108 17.8769H11.4324C11.1363 17.8769 10.8994 17.6374 10.8994 17.3439C10.8994 17.0504 11.1389 16.8109 11.4324 16.8109H12.4108C12.7044 16.8109 12.9438 17.0504 12.9438 17.3439C12.9438 17.6374 12.7044 17.8769 12.4108 17.8769Z" fill="#002244"/>
    <path d="M15.3435 15.1528H11.4324C11.1363 15.1528 10.8994 14.9133 10.8994 14.6198C10.8994 14.3262 11.1389 14.0868 11.4324 14.0868H15.3435C15.6371 14.0868 15.8765 14.3262 15.8765 14.6198C15.8765 14.9133 15.6371 15.1528 15.3435 15.1528Z" fill="#002244"/>
    <path d="M21.4713 4.58831H17.949C17.6555 4.58831 17.416 4.34885 17.416 4.05533V0.532996C17.416 0.316713 17.5448 0.123603 17.7456 0.0386341C17.9438 -0.0437595 18.1756 0.00258692 18.3275 0.1545L21.8498 3.67683C22.0017 3.82874 22.0481 4.0579 21.9657 4.25874C21.8833 4.457 21.6876 4.58831 21.4713 4.58831ZM18.4846 3.51977H20.1839L18.4846 1.8204V3.51977Z" fill="#002244"/>
    <path d="M21.4715 8.37841C21.1779 8.37841 20.9385 8.13895 20.9385 7.84542V4.05789C20.9385 3.76178 21.1779 3.5249 21.4715 3.5249C21.765 3.5249 22.0044 3.76436 22.0044 4.05789V7.84542C22.0044 8.14152 21.765 8.37841 21.4715 8.37841Z" fill="#002244"/>
    <path d="M8.7517 25.1893H3.65359C3.35749 25.1893 3.12061 24.9499 3.12061 24.6563C3.12061 24.3628 3.36006 24.1234 3.65359 24.1234H8.7517C9.0478 24.1234 9.28468 24.3628 9.28468 24.6563C9.28468 24.9499 9.04523 25.1893 8.7517 25.1893Z" fill="#002244"/>
  </g>
  <defs>
    <clipPath id="clip0_418_13676">
      <rect width="26.814" height="29" fill="white"/>
    </clipPath>
  </defs>
</svg>