<svg xmlns="http://www.w3.org/2000/svg" width="31" height="29" viewBox="0 0 31 29" fill="none">
  <g clip-path="url(#clip0_418_13512)">
    <path d="M25.5667 8.87827V19.1443H5.35449V3.44813L8.42554 0.377075H25.5667V7.4604" fill="white"/>
    <path d="M25.5668 19.5214H5.35463C5.14648 19.5214 4.97754 19.3524 4.97754 19.1443V3.44814C4.97754 3.34859 5.01676 3.25205 5.08916 3.18267L8.16021 0.11162C8.22959 0.0422345 8.32613 0 8.42568 0H25.5668C25.775 0 25.9439 0.168938 25.9439 0.377094V7.46042C25.9439 7.66857 25.775 7.83751 25.5668 7.83751C25.3587 7.83751 25.1898 7.66857 25.1898 7.46042V0.754187H8.58255L5.73173 3.60501V18.7672H25.1898V8.87829C25.1898 8.67013 25.3587 8.5012 25.5668 8.5012C25.775 8.5012 25.9439 8.67013 25.9439 8.87829V19.1443C25.9439 19.3524 25.775 19.5214 25.5668 19.5214Z" fill="#002244"/>
    <path d="M8.42554 0.377075V3.44812H5.35449L8.42554 0.377075Z" fill="white"/>
    <path d="M8.42547 3.82521H5.35442C5.20057 3.82521 5.06481 3.73471 5.0075 3.59292C4.95018 3.45113 4.98034 3.29124 5.08895 3.18264L8.16 0.111592C8.2686 0.00298872 8.4315 -0.0271788 8.57027 0.0301395C8.71206 0.0874577 8.80256 0.226228 8.80256 0.380082V3.45113C8.80256 3.65929 8.63363 3.82823 8.42547 3.82823V3.82521ZM6.26246 3.07102H8.04838V1.28511L6.26246 3.07102Z" fill="#002244"/>
    <path d="M15.4605 12.2239C17.4231 12.2239 19.0142 10.6328 19.0142 8.67012C19.0142 6.70745 17.4231 5.11639 15.4605 5.11639C13.4978 5.11639 11.9067 6.70745 11.9067 8.67012C11.9067 10.6328 13.4978 12.2239 15.4605 12.2239Z" fill="white"/>
    <path d="M15.4606 12.601C13.2916 12.601 11.5298 10.8362 11.5298 8.67014C11.5298 6.50412 13.2946 4.73932 15.4606 4.73932C17.6266 4.73932 19.3914 6.50412 19.3914 8.67014C19.3914 10.8362 17.6266 12.601 15.4606 12.601ZM15.4606 5.49049C13.7079 5.49049 12.284 6.91439 12.284 8.66712C12.284 10.4199 13.7109 11.8438 15.4606 11.8438C17.2103 11.8438 18.6372 10.4168 18.6372 8.66712C18.6372 6.91741 17.2133 5.49049 15.4606 5.49049Z" fill="#002244"/>
    <path d="M14.0879 8.67015L14.9989 9.60233L16.8331 7.73798" fill="white"/>
    <path d="M14.9992 9.97944C14.8966 9.97944 14.8001 9.9372 14.7307 9.8648L13.8196 8.93262C13.6748 8.7848 13.6778 8.54346 13.8257 8.39866C13.9735 8.25386 14.2118 8.25687 14.3596 8.40469L15.0022 9.06235L16.5649 7.47252C16.7097 7.3247 16.951 7.32168 17.0988 7.46648C17.2467 7.61129 17.2497 7.85263 17.1049 8.00045L15.2737 9.8648C15.2043 9.9372 15.1048 9.97642 15.0052 9.97642L14.9992 9.97944Z" fill="#002244"/>
    <path d="M30.5481 20.2846L27.4355 11.658L22.603 13.4017L25.7155 22.0282L30.5481 20.2846Z" fill="white"/>
    <path d="M25.7119 22.4054C25.6576 22.4054 25.6033 22.3933 25.552 22.3692C25.4615 22.3269 25.3921 22.2485 25.359 22.155L22.2457 13.5271C22.1763 13.331 22.2758 13.1138 22.4719 13.0444L27.3048 11.3007C27.3983 11.2675 27.5009 11.2706 27.5944 11.3128C27.6849 11.355 27.7543 11.4335 27.7874 11.527L30.9007 20.1549C30.9701 20.351 30.8706 20.5682 30.6745 20.6376L25.8416 22.3812C25.7994 22.3963 25.7572 22.4024 25.7149 22.4024L25.7119 22.4054ZM23.0813 13.6266L25.9382 21.5456L30.0621 20.0583L27.2052 12.1394L23.0813 13.6266Z" fill="#002244"/>
    <path d="M25.5035 21.4762L23.259 15.0415C23.259 15.0415 22.4928 17.4036 20.6616 16.577C18.8304 15.7504 16.3145 14.6342 14.5436 16.1094C13.6718 16.8365 8.25371 22.4627 8.25371 22.4627C7.86455 22.87 8.00935 23.7237 8.4136 24.1129C8.82086 24.502 9.46343 24.4869 9.85259 24.0827C9.46343 24.49 9.47851 25.1325 9.88276 25.5217C10.29 25.9108 10.9326 25.8958 11.3217 25.4915C10.9326 25.8988 10.9477 26.5413 11.3519 26.9305C11.7592 27.3197 12.4017 27.3046 12.7909 26.9003C12.4017 27.3076 12.4168 27.9502 12.8211 28.3393C13.2283 28.7285 13.8709 28.7134 14.2601 28.3092L16.4291 26.0979C18.93 25.1989 23.5969 22.0132 25.4974 21.4762H25.5035Z" fill="white"/>
    <path d="M13.536 29C13.189 29 12.8391 28.8703 12.5706 28.6138C12.281 28.3363 12.1362 27.9622 12.1422 27.5912C12.1181 27.5912 12.0909 27.5912 12.0668 27.5912C11.7048 27.5912 11.3639 27.4554 11.1014 27.202C10.8118 26.9244 10.667 26.5504 10.6731 26.1793C10.6489 26.1793 10.6218 26.1793 10.5976 26.1793C10.2356 26.1793 9.89474 26.0436 9.63228 25.7902C9.34267 25.5126 9.19787 25.1385 9.2039 24.7675C9.17977 24.7675 9.15262 24.7675 9.12848 24.7675C8.76648 24.7675 8.42558 24.6317 8.16313 24.3783C7.90368 24.1309 7.71966 23.7388 7.6714 23.3315C7.61709 22.879 7.73173 22.4627 7.99117 22.1942C8.21441 21.9649 13.4304 16.5438 14.3113 15.8107C16.2782 14.1696 19.0144 15.4065 20.8244 16.224C21.2015 16.396 21.5364 16.4111 21.8411 16.2753C22.553 15.9616 22.906 14.9268 22.909 14.9148C22.9603 14.7609 23.1021 14.6553 23.262 14.6553H23.265C23.4249 14.6553 23.5666 14.7579 23.6209 14.9087L25.8654 21.3435C25.8986 21.443 25.8926 21.5486 25.8443 21.6421C25.796 21.7356 25.7115 21.802 25.612 21.8322C24.6979 22.0916 23.0659 23.0178 21.3373 23.9982C19.6539 24.9545 17.9133 25.944 16.6492 26.4146L14.5405 28.5656C14.269 28.8491 13.904 28.9909 13.536 28.9909V29ZM13.0714 27.1598C12.827 27.4162 12.8361 27.8234 13.0895 28.0678C13.3459 28.3122 13.7501 28.3031 13.9975 28.0497L16.1696 25.8354C16.2088 25.7962 16.2571 25.763 16.3114 25.7449C17.5211 25.3105 19.2708 24.315 20.9632 23.3526C22.5228 22.4657 24.0071 21.621 25.0237 21.2409L23.2016 16.0099C22.9633 16.3749 22.6164 16.7671 22.1427 16.9752C21.6359 17.1985 21.0869 17.1804 20.5107 16.9209C18.773 16.1366 16.3958 15.0626 14.7909 16.399C13.9432 17.1049 8.58547 22.6678 8.53117 22.7251C8.43162 22.8277 8.38938 23.0238 8.41653 23.2501C8.44368 23.4854 8.54625 23.7116 8.68201 23.8413C8.80569 23.959 8.9686 24.0284 9.14055 24.0193C9.31251 24.0163 9.47239 23.9469 9.59005 23.8232C9.73485 23.6724 9.97317 23.6664 10.124 23.8112C10.2024 23.8866 10.2417 23.9831 10.2417 24.0827C10.2417 24.1822 10.2055 24.2697 10.1361 24.3451C9.89172 24.6016 9.90077 25.0088 10.1542 25.2532C10.2779 25.3708 10.4408 25.4402 10.6127 25.4312C10.7847 25.4281 10.9446 25.3588 11.0622 25.2351C11.207 25.0842 11.4453 25.0782 11.5962 25.223C11.6746 25.2984 11.7138 25.395 11.7138 25.4945C11.7138 25.588 11.6776 25.6816 11.6083 25.754C11.3639 26.0104 11.3729 26.4176 11.6264 26.662C11.75 26.7796 11.9099 26.846 12.0849 26.84C12.2569 26.837 12.4167 26.7676 12.5344 26.6439C12.6792 26.4931 12.9175 26.487 13.0684 26.6318C13.1468 26.7072 13.186 26.8038 13.186 26.9033C13.186 26.9969 13.1498 27.0904 13.0804 27.1628L13.0714 27.1598Z" fill="#002244"/>
    <path d="M15.9222 25.4915C15.4788 25.8384 15.4003 26.478 15.7473 26.9215L16.61 28.0226C16.957 28.466 17.5965 28.5445 18.04 28.1975C18.4834 27.8506 18.5619 27.2111 18.215 26.7676L17.3522 25.6665C17.0052 25.223 16.3657 25.1446 15.9222 25.4915Z" fill="white"/>
    <path d="M17.4157 28.7918C17.3584 28.7918 17.3011 28.7888 17.2438 28.7828C16.8727 28.7375 16.5439 28.5505 16.3146 28.2579L15.4518 27.1568C15.2226 26.8641 15.12 26.4991 15.1653 26.1281C15.2105 25.757 15.3975 25.4282 15.6902 25.1989C16.2935 24.7253 17.1744 24.8309 17.648 25.4372L18.5108 26.5383C18.7401 26.831 18.8427 27.196 18.7974 27.567C18.7522 27.9381 18.5651 28.2669 18.2725 28.4962C18.0251 28.6893 17.7265 28.7949 17.4157 28.7949V28.7918ZM16.1547 25.7902C16.019 25.8958 15.9345 26.0466 15.9134 26.2186C15.8923 26.3905 15.9406 26.5564 16.0461 26.6922L16.9089 27.7933C17.0145 27.9291 17.1654 28.0135 17.3373 28.0346C17.5062 28.0558 17.6752 28.0075 17.8109 27.9019C17.9467 27.7963 18.0312 27.6455 18.0523 27.4735C18.0734 27.3046 18.0251 27.1356 17.9195 26.9999L17.0568 25.8988C16.8395 25.6212 16.4353 25.573 16.1578 25.7902H16.1547Z" fill="#002244"/>
    <path d="M17.5243 24.2366C17.0808 24.5835 17.0024 25.2231 17.3493 25.6665L18.2121 26.7676C18.559 27.2111 19.1986 27.2895 19.642 26.9426C20.0855 26.5957 20.1639 25.9561 19.817 25.5127L18.9542 24.4115C18.6073 23.9681 17.9677 23.8897 17.5243 24.2366Z" fill="white"/>
    <path d="M19.0178 27.5339C18.9605 27.5339 18.9032 27.5308 18.8458 27.5248C18.4748 27.4796 18.146 27.2925 17.9167 26.9999L17.0539 25.8988C16.8246 25.6062 16.7221 25.2411 16.7673 24.8701C16.8126 24.499 16.9996 24.1702 17.2922 23.9409C17.5848 23.7116 17.9529 23.6091 18.3209 23.6543C18.692 23.6996 19.0208 23.8866 19.2501 24.1792L20.1129 25.2804C20.5865 25.8867 20.4809 26.7646 19.8746 27.2412C19.6272 27.4343 19.3255 27.5399 19.0178 27.5399V27.5339ZM18.152 24.3964C18.0102 24.3964 17.8714 24.4447 17.7568 24.5322C17.621 24.6378 17.5366 24.7886 17.5155 24.9606C17.4943 25.1295 17.5426 25.2985 17.6482 25.4342L18.511 26.5353C18.7282 26.8129 19.1324 26.8611 19.41 26.6439C19.6875 26.4267 19.7358 26.0225 19.5186 25.7419L18.6558 24.6408C18.5502 24.505 18.3994 24.4206 18.2274 24.3995C18.2003 24.3964 18.1761 24.3934 18.149 24.3934L18.152 24.3964Z" fill="#002244"/>
    <path d="M19.1263 22.9816C18.6829 23.3285 18.6044 23.968 18.9514 24.4115L19.8141 25.5126C20.1611 25.9561 20.8006 26.0345 21.2441 25.6876C21.6875 25.3407 21.766 24.7011 21.4191 24.2577L20.5563 23.1565C20.2093 22.7131 19.5698 22.6346 19.1263 22.9816Z" fill="white"/>
    <path d="M20.6228 26.2789C20.5655 26.2789 20.5081 26.2759 20.4508 26.2699C20.0798 26.2246 19.7509 26.0376 19.5217 25.7449L18.6589 24.6438C18.4296 24.3512 18.327 23.9862 18.3723 23.6151C18.4175 23.2441 18.6046 22.9152 18.8972 22.686C19.5036 22.2123 20.3814 22.3179 20.8551 22.9243L21.7179 24.0254C22.1915 24.6318 22.0859 25.5096 21.4795 25.9863C21.2322 26.1794 20.9305 26.2849 20.6228 26.2849V26.2789ZM19.3618 23.2772C19.226 23.3828 19.1416 23.5337 19.1204 23.7056C19.0993 23.8746 19.1476 24.0435 19.2532 24.1792L20.116 25.2804C20.2215 25.4161 20.3724 25.5006 20.5443 25.5217C20.7133 25.5428 20.8822 25.4946 21.018 25.389C21.2955 25.1718 21.3438 24.7675 21.1266 24.487L20.2638 23.3858C20.0466 23.1083 19.6423 23.057 19.3618 23.2772Z" fill="#002244"/>
    <path d="M20.7308 21.7236C20.2874 22.0705 20.2089 22.7101 20.5559 23.1535L21.4186 24.2546C21.7656 24.6981 22.4051 24.7765 22.8486 24.4296C23.292 24.0827 23.3705 23.4431 23.0236 22.9997L22.1608 21.8985C21.8138 21.4551 21.1743 21.3767 20.7308 21.7236Z" fill="white"/>
    <path d="M22.2243 25.0239C22.167 25.0239 22.1097 25.0209 22.0524 25.0149C21.6813 24.9696 21.3525 24.7826 21.1232 24.49L20.2604 23.3888C19.7868 22.7825 19.8924 21.9046 20.4987 21.431C20.7914 21.2017 21.1564 21.0991 21.5275 21.1444C21.8985 21.1896 22.2273 21.3767 22.4566 21.6693L23.3194 22.7704C23.793 23.3768 23.6874 24.2546 23.0811 24.7313C22.8337 24.9244 22.532 25.03 22.2243 25.03V25.0239ZM21.3585 21.8865C21.2167 21.8865 21.078 21.9348 20.9633 22.0223C20.6858 22.2395 20.6375 22.6437 20.8547 22.9243L21.7175 24.0254C21.8231 24.1611 21.9739 24.2456 22.1459 24.2667C22.3178 24.2878 22.4838 24.2396 22.6195 24.134C22.8971 23.9168 22.9453 23.5125 22.7281 23.232L21.8653 22.1309C21.7597 21.9951 21.6089 21.9106 21.437 21.8895C21.4098 21.8865 21.3857 21.8835 21.3585 21.8835V21.8865Z" fill="#002244"/>
    <path d="M8.38068 15.0415C8.38068 15.0415 9.26761 15.9858 11.865 15.2768C13.0174 14.9631 14.3508 14.1787 15.5756 14.3024C16.7944 14.4261 17.2288 15.8983 18.0071 16.7309C18.4536 17.2106 19.6694 17.8169 19.3254 18.4987C19.0268 19.09 18.1127 19.2831 17.5244 19.1171C16.4445 18.8125 15.6028 17.829 14.6978 17.2166C14.6978 17.2166 10.7428 22.4175 8.8513 22.6558C6.9598 22.8941 5.18896 21.4762 5.18896 21.4762L8.37767 15.0415H8.38068Z" fill="white"/>
    <path d="M8.41985 23.063C6.59471 23.063 5.02902 21.8292 4.95662 21.7719C4.81785 21.6603 4.77561 21.4702 4.85405 21.3103L8.04275 14.8756C8.09705 14.764 8.20264 14.6886 8.32633 14.6705C8.447 14.6524 8.56767 14.6946 8.65214 14.7791C8.67929 14.8032 9.49683 15.5332 11.7654 14.9148C12.1123 14.8213 12.4774 14.6795 12.8665 14.5317C13.7625 14.1908 14.6886 13.8348 15.6148 13.9313C16.6314 14.0339 17.1775 14.8756 17.6601 15.6207C17.8683 15.9405 18.0644 16.2422 18.2846 16.4805C18.3842 16.5861 18.5501 16.7158 18.722 16.8516C19.2832 17.292 20.0554 17.8984 19.6633 18.6737C19.2832 19.4279 18.1971 19.7024 17.4248 19.4852C16.6194 19.2589 15.9647 18.7159 15.3312 18.191C15.1412 18.0341 14.9602 17.8833 14.7761 17.7415C13.847 18.9271 10.6884 22.8096 8.90253 23.0329C8.73962 23.054 8.57973 23.063 8.41985 23.063ZM5.67461 21.3586C6.19952 21.7085 7.49069 22.4506 8.80901 22.2847C10.2299 22.1067 13.3281 18.4052 14.4021 16.9933C14.5227 16.8335 14.749 16.7973 14.9149 16.9089C15.2226 17.117 15.5243 17.3674 15.8139 17.6088C16.3871 18.0854 16.9784 18.5741 17.63 18.7581C18.0855 18.8849 18.7944 18.725 18.9905 18.3328C19.1022 18.1095 18.6134 17.7234 18.2544 17.4428C18.0584 17.289 17.8713 17.1412 17.7325 16.9903C17.4671 16.7037 17.2438 16.3598 17.0266 16.028C16.5983 15.3673 16.197 14.7459 15.5394 14.6795C14.7912 14.6041 13.9495 14.9239 13.138 15.2346C12.7308 15.3884 12.3477 15.5363 11.9675 15.6388C10.1213 16.1426 9.0594 15.8621 8.53147 15.5936L5.67762 21.3556L5.67461 21.3586Z" fill="#002244"/>
    <path d="M4.2779 11.9779L0.378906 20.2787L5.029 22.4629L8.92799 14.1621L4.2779 11.9779Z" fill="white"/>
    <path d="M5.02585 22.8398C4.97154 22.8398 4.91724 22.8277 4.86596 22.8036L0.217149 20.6195C0.0301105 20.532 -0.0513417 20.3057 0.036144 20.1187L3.9368 11.8166C3.97903 11.7261 4.05747 11.6567 4.15099 11.6235C4.24451 11.5904 4.35009 11.5934 4.4406 11.6356L9.08941 13.8197C9.27644 13.9072 9.3579 14.1335 9.27041 14.3205L5.36975 22.6226C5.32752 22.7131 5.24908 22.7825 5.15557 22.8157C5.11333 22.8308 5.0711 22.8368 5.02886 22.8368L5.02585 22.8398ZM0.877817 20.0976L4.84484 21.9619L8.4227 14.3416L4.45568 12.4773L0.877817 20.0976Z" fill="#002244"/>
    <path d="M9.85851 24.4598C9.74991 24.4598 9.64131 24.4115 9.56589 24.321C9.43315 24.1612 9.45729 23.9228 9.61717 23.7901L11.3247 22.3933C11.4845 22.2606 11.7229 22.2847 11.8556 22.4446C11.9883 22.6045 11.9642 22.8428 11.8043 22.9756L10.0968 24.3723C10.0275 24.4296 9.94298 24.4568 9.85851 24.4568V24.4598Z" fill="#002244"/>
    <path d="M11.3278 25.8686C11.2191 25.8686 11.1105 25.8204 11.0351 25.7299C10.9024 25.57 10.9265 25.3316 11.0864 25.1989L12.7939 23.8022C12.9538 23.6694 13.1921 23.6936 13.3248 23.8534C13.4576 24.0133 13.4334 24.2517 13.2736 24.3844L11.5661 25.7811C11.4967 25.8385 11.4122 25.8656 11.3278 25.8656V25.8686Z" fill="#002244"/>
    <path d="M12.7999 27.2774C12.6913 27.2774 12.5827 27.2292 12.5073 27.1387C12.3746 26.9788 12.3987 26.7405 12.5586 26.6077L14.2661 25.211C14.4259 25.0782 14.6643 25.1024 14.797 25.2623C14.9297 25.4221 14.9056 25.6605 14.7457 25.7932L13.0382 27.19C12.9689 27.2473 12.8844 27.2744 12.7999 27.2744V27.2774Z" fill="#002244"/>
  </g>
  <defs>
    <clipPath id="clip0_418_13512">
      <rect width="30.9217" height="29" fill="white"/>
    </clipPath>
  </defs>
</svg>