<svg xmlns="http://www.w3.org/2000/svg" width="31" height="29" viewBox="0 0 31 29" fill="none">
  <g clip-path="url(#clip0_418_13766)">
    <path d="M1.80658 16.4343C1.77468 16.4343 1.74278 16.4314 1.71088 16.4227C1.48468 16.3705 1.34548 16.1443 1.39768 15.9181L2.97528 9.12918C3.02748 8.90298 3.25368 8.76378 3.47988 8.81598C3.70608 8.86818 3.84528 9.09438 3.79308 9.32058L2.21548 16.1095C2.16908 16.3038 1.99798 16.4343 1.80658 16.4343Z" fill="#002244"/>
    <path d="M1.82692 16.501C1.64712 16.501 1.47312 16.4024 1.38322 16.2342L0.0550176 13.9374C0.00281761 13.8446 -0.0145824 13.7373 0.00861761 13.6329L0.713318 10.6082C0.736518 10.5067 0.797418 10.4168 0.884418 10.3559L3.09712 8.84499C3.30882 8.69129 3.60172 8.72609 3.77572 8.92619L6.63802 12.3627C6.78592 12.5396 6.76272 12.8064 6.58292 12.9543C6.40602 13.1022 6.13922 13.079 5.99132 12.8992L3.32912 9.70339L1.49342 10.9591L0.864118 13.6648L1.96322 15.5701L5.83472 13.8446C6.04642 13.7489 6.29582 13.8446 6.38862 14.0563C6.48432 14.268 6.38862 14.5174 6.17692 14.6102L2.02992 16.4604C1.96322 16.4923 1.89362 16.5068 1.82692 16.5068V16.501ZM1.69352 15.6861C1.69352 15.6861 1.68482 15.689 1.68192 15.6919L1.69352 15.6861Z" fill="#002244"/>
    <path d="M21.4744 22.1241C20.8306 22.1241 20.1839 22.0603 19.5546 21.9298C19.427 21.9037 19.3197 21.8196 19.2617 21.7036C19.2037 21.5876 19.2037 21.4484 19.2617 21.3324L20.5551 18.7311C20.6595 18.5223 20.9089 18.4382 21.1177 18.5426C21.3265 18.647 21.4106 18.8993 21.3062 19.1052L20.2651 21.199C20.6653 21.2541 21.0684 21.2831 21.4744 21.2831C23.7886 21.2831 25.9636 20.3812 27.5992 18.7456C29.2348 17.11 30.1367 14.935 30.1367 12.6208C30.1367 7.84449 26.2536 3.96139 21.4773 3.96139C19.0645 3.96139 16.7909 4.95319 15.1553 6.70479L17.1331 7.47329C18.3453 6.44669 19.8794 5.88409 21.4802 5.88409C23.2811 5.88409 24.9718 6.58589 26.2449 7.85899C27.518 9.13209 28.2169 10.8228 28.2169 12.6237C28.2169 14.9379 27.0511 17.0636 25.0965 18.3077C24.9022 18.4324 24.6412 18.3744 24.5165 18.1801C24.3918 17.9858 24.4498 17.7248 24.6441 17.6001C26.3551 16.5097 27.3759 14.6479 27.3759 12.6237C27.3759 11.049 26.764 9.56709 25.6475 8.45349C24.5339 7.33989 23.052 6.72509 21.4773 6.72509C20.0012 6.72509 18.586 7.27319 17.5014 8.26789C17.3825 8.37519 17.2143 8.40709 17.0664 8.34909L14.294 7.27029C14.1693 7.22099 14.0736 7.11659 14.0388 6.98609C14.004 6.85559 14.0359 6.71639 14.12 6.61489C15.9354 4.39639 18.615 3.12329 21.4773 3.12329C26.7147 3.12329 30.9777 7.38629 30.9777 12.6237C30.9777 15.1612 29.9888 17.5479 28.1966 19.3401C26.4015 21.1352 24.0177 22.1212 21.4802 22.1212L21.4744 22.1241Z" fill="#002244"/>
    <path d="M15.3758 19.7722C15.2714 19.7722 15.1728 19.7345 15.0945 19.662C13.1109 17.864 11.9741 15.2975 11.9741 12.6208C11.9741 12.1394 12.0118 11.658 12.0814 11.1882C12.1017 11.0635 12.1771 10.9504 12.2873 10.8866C12.3975 10.8228 12.5309 10.8112 12.6498 10.8576L15.3178 11.8958C15.486 11.9625 15.5933 12.1249 15.5846 12.3076C15.5788 12.412 15.5759 12.5164 15.5759 12.6208C15.5759 13.5923 15.8166 14.558 16.2748 15.4077C16.385 15.6107 16.3067 15.8659 16.1037 15.9761C15.8978 16.0863 15.6455 16.008 15.5353 15.805C15.0133 14.8335 14.7378 13.7315 14.7378 12.6208C14.7378 12.6034 14.7378 12.5889 14.7378 12.5715L12.8499 11.8378C12.8267 12.0988 12.8151 12.3598 12.8151 12.6208C12.8151 14.8712 13.6996 17.0404 15.2569 18.6499L16.3009 16.5474C16.4053 16.3386 16.6547 16.2545 16.8635 16.3589C17.0723 16.4633 17.1564 16.7127 17.052 16.9215L15.7528 19.5373C15.6948 19.6562 15.5846 19.7374 15.4541 19.7635C15.428 19.7693 15.4019 19.7722 15.3758 19.7722Z" fill="#002244"/>
    <path d="M20.1754 17.8292C20.1116 17.8292 20.0478 17.8147 19.9898 17.7857L17.9627 16.7794C17.7916 16.6953 17.6988 16.5068 17.7394 16.3183C17.8003 16.0138 17.8322 15.7006 17.8322 15.3874C17.8322 14.5029 17.5828 13.6445 17.1101 12.9021C16.9854 12.7078 17.0434 12.4468 17.2377 12.3221C17.432 12.1974 17.693 12.2554 17.8177 12.4497C18.3774 13.3255 18.6703 14.3434 18.6703 15.3874C18.6703 15.6484 18.6529 15.9094 18.6152 16.1675L19.8941 16.8026C19.9898 16.3415 20.0391 15.8659 20.0391 15.3874C20.0391 13.3516 19.1285 11.4231 17.5741 10.1268L16.939 11.7566C16.8549 11.9741 16.6113 12.0785 16.3967 11.9944C16.1792 11.9103 16.0748 11.6667 16.1589 11.4521L16.997 9.30028C17.0434 9.17848 17.1449 9.08858 17.2667 9.05088C17.3914 9.01318 17.5248 9.03638 17.6292 9.10888C19.665 10.5502 20.8801 12.8963 20.8801 15.3845C20.8801 16.1124 20.7786 16.8316 20.5785 17.5247C20.5437 17.6436 20.4567 17.7422 20.3436 17.7915C20.2885 17.8147 20.2334 17.8263 20.1754 17.8263V17.8292Z" fill="#002244"/>
    <path d="M13.1977 23.0695C8.96082 23.0695 5.51562 19.6214 5.51562 15.3845C5.51562 11.7856 8.06763 8.62458 11.5853 7.87058C11.7274 7.84158 11.8753 7.88508 11.9739 7.98948C12.0754 8.09388 12.116 8.24178 12.0812 8.38388L11.4548 10.9127C11.3997 11.1389 11.1706 11.2752 10.9473 11.2201C10.7211 11.165 10.5848 10.9359 10.6399 10.7126L11.0952 8.87398C8.31122 9.77588 6.35662 12.412 6.35662 15.3874C6.35662 19.1603 9.42772 22.2314 13.2006 22.2314C14.0561 22.2314 14.9087 22.069 15.6975 21.7616L14.088 20.7901C13.798 20.8394 13.5022 20.8626 13.2006 20.8626C10.1817 20.8626 7.72542 18.4063 7.72542 15.3874C7.72542 14.8799 7.79502 14.3782 7.93132 13.8939C7.99512 13.6706 8.22712 13.5401 8.45042 13.6039C8.67372 13.6677 8.80422 13.8997 8.74042 14.123C8.62442 14.5319 8.56643 14.9582 8.56643 15.3874C8.56643 17.9423 10.6457 20.0216 13.2006 20.0216C13.5022 20.0216 13.8009 19.9926 14.088 19.9375C14.1895 19.9172 14.2997 19.9375 14.3867 19.9897L16.8111 21.4513C16.9416 21.5296 17.017 21.6717 17.0141 21.8225C17.0112 21.9733 16.9242 22.1096 16.7908 22.1821C15.6946 22.765 14.4534 23.0724 13.2006 23.0724L13.1977 23.0695Z" fill="#002244"/>
    <path d="M11.084 4.3703C10.939 4.3703 10.7969 4.2949 10.7186 4.1615L9.07425 1.3166C8.95825 1.1165 9.02785 0.858404 9.22795 0.742404C9.42805 0.626404 9.68615 0.696004 9.80215 0.896104L11.4465 3.741C11.5625 3.9411 11.4929 4.1992 11.2928 4.3152C11.2261 4.3529 11.1536 4.3703 11.084 4.3703Z" fill="#002244"/>
    <path d="M14.7406 4.0136C14.7058 4.0136 14.6681 4.0078 14.6304 3.9991C14.4071 3.9382 14.2737 3.7091 14.3346 3.4858L15.1843 0.310301C15.2452 0.0870015 15.4743 -0.0463985 15.6976 0.0145015C15.9209 0.0754015 16.0543 0.304502 15.9934 0.527802L15.1437 3.7033C15.0944 3.8918 14.9233 4.0136 14.7377 4.0136H14.7406Z" fill="#002244"/>
    <path d="M8.9522 7.3573C8.9174 7.3573 8.8797 7.3515 8.842 7.3428L5.6665 6.4931C5.4432 6.4322 5.3098 6.2031 5.3707 5.9798C5.4316 5.7565 5.6607 5.6231 5.884 5.684L9.0595 6.5337C9.2828 6.5946 9.4162 6.8237 9.3553 7.047C9.306 7.2355 9.1349 7.3573 8.9493 7.3573H8.9522Z" fill="#002244"/>
    <path d="M18.589 29C18.357 29 18.1685 28.8115 18.1685 28.5795V25.2938C18.1685 25.0618 18.357 24.8733 18.589 24.8733C18.821 24.8733 19.0095 25.0618 19.0095 25.2938V28.5795C19.0095 28.8115 18.821 29 18.589 29Z" fill="#002244"/>
    <path d="M12.9222 26.5176C12.8149 26.5176 12.7076 26.477 12.6264 26.3958C12.4611 26.2305 12.4611 25.9666 12.6264 25.8013L14.9493 23.4784C15.1146 23.3131 15.3785 23.3131 15.5438 23.4784C15.7091 23.6437 15.7091 23.9076 15.5438 24.0729L13.2209 26.3958C13.1397 26.477 13.0324 26.5176 12.9251 26.5176H12.9222Z" fill="#002244"/>
    <path d="M24.2529 26.5176C24.1456 26.5176 24.0383 26.477 23.9571 26.3958L21.6342 24.0729C21.4689 23.9076 21.4689 23.6437 21.6342 23.4784C21.7995 23.3131 22.0634 23.3131 22.2287 23.4784L24.5516 25.8013C24.7169 25.9666 24.7169 26.2305 24.5516 26.3958C24.4704 26.477 24.3631 26.5176 24.2558 26.5176H24.2529Z" fill="#002244"/>
  </g>
  <defs>
    <clipPath id="clip0_418_13766">
      <rect width="30.9749" height="29" fill="white"/>
    </clipPath>
  </defs>
</svg>