<svg xmlns="http://www.w3.org/2000/svg" width="32" height="29" viewBox="0 0 32 29" fill="none">
  <g clip-path="url(#clip0_418_14041)">
    <path d="M26.5209 18.9081C26.5209 18.9081 26.514 18.9904 26.514 19.0007C26.322 21.9429 25.9997 23.438 25.8111 23.7946C25.4442 23.9112 24.0176 24.0209 21.2949 23.8803C21.2881 23.8803 21.2263 23.8803 21.2195 23.8769C21.0309 23.87 20.8663 23.9421 20.7394 24.0689C20.6125 24.1958 20.5405 24.3673 20.5405 24.5456V28.3279C20.5405 28.6982 20.8389 28.9966 21.2092 28.9966C21.5795 28.9966 21.8779 28.6982 21.8779 28.3279V25.2451C25.9002 25.4131 26.4283 25.0188 26.6375 24.8645C26.8878 24.6759 27.4639 24.2438 27.8102 19.6488H29.2573C29.5659 19.6488 30.0049 19.6111 30.2621 19.2956C30.5021 19.0041 30.5467 18.5275 30.4061 17.8005C30.3032 17.2827 29.8677 16.0345 29.0687 13.9839C28.935 13.641 28.5475 13.4696 28.2046 13.6033C27.8617 13.737 27.6902 14.1245 27.824 14.4674C28.8184 17.0221 29.0482 17.8108 29.0962 18.0543C29.1167 18.1537 29.1305 18.2394 29.1373 18.3115H27.1861C26.8467 18.3115 26.562 18.5686 26.5243 18.9047L26.5209 18.9081Z" fill="#002244"/>
    <path d="M9.18656 28.3313C9.18656 28.7017 9.4849 29 9.85524 29C10.2256 29 10.5239 28.7017 10.5239 28.3313V21.2056C10.5239 20.9862 10.4176 20.7838 10.2393 20.657L10.0301 20.5095C9.05969 19.834 8.21956 19.0041 7.52687 18.0508C7.31084 17.7525 6.89249 17.6874 6.59416 17.9034C6.29582 18.1194 6.22724 18.5378 6.4467 18.8361C7.20797 19.8889 8.13383 20.801 9.18999 21.552V28.3279L9.18656 28.3313Z" fill="#002244"/>
    <path d="M2.1913 12.2042C1.88268 12.0019 1.46776 12.0876 1.26544 12.3962C-0.154209 14.56 0.600195 15.7431 1.17972 16.254C1.87582 16.8712 3.00057 17.1284 4.36193 17.1284C4.75971 17.1284 5.18149 17.101 5.61356 17.0598C5.6307 17.0598 5.64785 17.0667 5.66499 17.0667C5.70957 17.0667 5.75072 17.0496 5.7953 17.0393C8.12024 16.7924 10.8532 16.0208 13.2982 15.0881C13.6445 14.9578 13.816 14.5703 13.6857 14.2274C13.5554 13.8811 13.1679 13.7096 12.825 13.8399C10.1126 14.8721 7.84934 15.4413 6.0902 15.6745C5.84331 15.0367 5.65471 14.3783 5.53469 13.7062C5.46953 13.3427 5.12662 13.1026 4.75971 13.1644C4.39622 13.2295 4.15618 13.5759 4.21791 13.9393C4.33107 14.5703 4.49567 15.1875 4.70827 15.7911C3.38463 15.8322 2.48278 15.6299 2.061 15.2561C1.49862 14.7555 1.92383 13.8262 2.3799 13.1301C2.58222 12.8215 2.49649 12.4065 2.18787 12.2042H2.1913Z" fill="#002244"/>
    <path d="M29.8814 6.32671C29.5693 6.13126 29.1578 6.22727 28.9624 6.53932C28.7669 6.85137 28.8629 7.26286 29.175 7.45832C29.8985 7.90754 30.6975 8.58307 30.406 9.2346C30.142 9.83127 29.2333 10.3971 27.8445 10.8703L27.7004 10.5171C27.6284 9.92385 27.5153 9.33062 27.361 8.75796C27.2649 8.40133 26.898 8.19215 26.5414 8.28817C26.1848 8.38418 25.9756 8.7511 26.0716 9.10772C26.2156 9.64267 26.3219 10.1982 26.3837 10.7571C26.3905 10.8154 26.4042 10.8737 26.4282 10.932L26.5551 11.2441C24.7377 11.7001 22.3819 12.019 19.6797 12.1116C25.2623 9.03571 29.0652 5.55516 29.4047 3.09306C29.5144 2.29751 29.2744 1.61511 28.7052 1.11103C27.865 0.363489 26.3665 0.0891596 24.2542 0.291477C23.8873 0.325768 23.6164 0.651534 23.6541 1.02188C23.6884 1.38879 24.0141 1.65969 24.3845 1.62197C26.6511 1.40251 27.5084 1.83458 27.8205 2.10891C28.0502 2.31122 28.1291 2.55812 28.0811 2.90789C27.817 4.83162 23.757 8.70309 16.7547 12.1219C15.8666 12.0979 14.9579 12.0568 14.0251 11.9848C10.5137 11.7104 7.61613 11.124 5.47636 10.4245C5.78841 8.16472 6.82743 6.04553 8.45969 4.4167C9.44727 3.42912 10.596 2.66099 11.8751 2.12948C14.344 1.10418 17.1765 1.06646 19.6797 2.02661C21.3532 2.66785 22.8414 3.73431 23.9867 5.10595C24.2233 5.39057 24.6451 5.42829 24.9263 5.19168C25.2109 4.95507 25.2486 4.53329 25.012 4.2521C23.7192 2.70557 22.0424 1.50538 20.1564 0.78184C17.3377 -0.301759 14.1452 -0.257181 11.3607 0.89843C9.91706 1.49852 8.62429 2.36609 7.51326 3.47712C5.74726 5.24312 4.59165 7.51662 4.19387 9.95814C2.76051 9.36834 1.82436 8.73052 1.47459 8.14414C1.27227 7.80123 1.32714 7.57148 1.39915 7.40688C1.66319 6.81022 2.67478 6.18612 4.1733 5.69919C4.52307 5.58603 4.7151 5.20882 4.60194 4.85563C4.48878 4.50586 4.11158 4.31383 3.75838 4.42699C1.82093 5.05794 0.61731 5.8775 0.178384 6.86166C-0.106232 7.5029 -0.0547957 8.18186 0.325836 8.82311C1.62547 11.0075 6.9646 12.7734 13.9223 13.3187C14.8653 13.3941 15.8289 13.4318 16.7959 13.4558C16.8302 13.4627 16.8644 13.4696 16.8987 13.4696C16.9159 13.4696 16.933 13.4593 16.9467 13.4593C17.3034 13.4661 17.6634 13.4798 18.0201 13.4798C24.3639 13.4798 30.4917 12.3242 31.6233 9.77983C31.932 9.08715 32.1137 7.71893 29.8779 6.32671H29.8814Z" fill="#002244"/>
  </g>
  <defs>
    <clipPath id="clip0_418_14041">
      <rect width="31.8084" height="29" fill="white"/>
    </clipPath>
  </defs>
</svg>