<svg xmlns="http://www.w3.org/2000/svg" width="27" height="29" viewBox="0 0 27 29" fill="none">
  <g clip-path="url(#clip0_418_13887)">
    <path d="M25.9726 16.9853H9.12359C8.96119 16.9853 8.83069 16.8548 8.83069 16.6924C8.83069 16.53 8.96119 16.3995 9.12359 16.3995H25.9697C26.0161 16.3995 26.0538 16.3618 26.0538 16.3125V6.6265C26.0538 6.5801 26.0161 6.5424 25.9697 6.5424H4.59959C4.55319 6.5424 4.51549 6.5801 4.51549 6.6265V9.8339C4.51549 9.9963 4.38499 10.1268 4.22259 10.1268C4.06019 10.1268 3.92969 9.9963 3.92969 9.8339V6.6265C3.92969 6.2582 4.23129 5.9566 4.59959 5.9566H25.9726C26.3409 5.9566 26.6425 6.2582 26.6425 6.6265V16.3154C26.6425 16.6837 26.3409 16.9853 25.9726 16.9853ZM9.13229 15.4628C8.96989 15.4628 8.83939 15.3323 8.83939 15.1699C8.83939 14.674 8.43629 14.2709 7.94039 14.2709C7.77799 14.2709 7.64749 14.1404 7.64749 13.978C7.64749 13.8156 7.77799 13.6851 7.94039 13.6851C8.75819 13.6851 9.42229 14.3492 9.42229 15.167C9.42229 15.3294 9.29179 15.4599 9.12939 15.4599L9.13229 15.4628Z" fill="#002244"/>
    <path d="M25.1806 4.7357H5.38811C5.22571 4.7357 5.09521 4.6052 5.09521 4.4428C5.09521 4.2804 5.22571 4.1499 5.38811 4.1499H25.1806C25.343 4.1499 25.4735 4.2804 25.4735 4.4428C25.4735 4.6052 25.343 4.7357 25.1806 4.7357Z" fill="#002244"/>
    <path d="M23.7682 2.6593H6.80315C6.64075 2.6593 6.51025 2.5288 6.51025 2.3664C6.51025 2.204 6.64075 2.0735 6.80315 2.0735H23.7682C23.9306 2.0735 24.0611 2.204 24.0611 2.3664C24.0611 2.5288 23.9306 2.6593 23.7682 2.6593Z" fill="#002244"/>
    <path d="M21.8571 0.582901H8.71429C8.55189 0.582901 8.42139 0.452401 8.42139 0.290001C8.42139 0.127601 8.55189 -0.00289917 8.71429 -0.00289917H21.8571C22.0195 -0.00289917 22.15 0.127601 22.15 0.290001C22.15 0.452401 22.0195 0.582901 21.8571 0.582901Z" fill="#002244"/>
    <path d="M15.2861 14.4768C13.6302 14.4768 12.2817 13.1283 12.2817 11.4724C12.2817 9.8165 13.6302 8.468 15.2861 8.468C16.942 8.468 18.2905 9.8165 18.2905 11.4724C18.2905 13.1283 16.942 14.4768 15.2861 14.4768ZM15.2861 9.0509C13.9521 9.0509 12.8646 10.1355 12.8646 11.4724C12.8646 12.8093 13.9492 13.8939 15.2861 13.8939C16.623 13.8939 17.7076 12.8093 17.7076 11.4724C17.7076 10.1355 16.623 9.0509 15.2861 9.0509Z" fill="#002244"/>
    <path d="M5.75921 9.3815C5.59681 9.3815 5.46631 9.251 5.46631 9.0886V7.7749C5.46631 7.6125 5.59681 7.482 5.75921 7.482C5.92161 7.482 6.05211 7.6125 6.05211 7.7749V9.0886C6.05211 9.251 5.92161 9.3815 5.75921 9.3815Z" fill="#002244"/>
    <path d="M24.8095 9.3815C24.6471 9.3815 24.5166 9.251 24.5166 9.0886V7.7749C24.5166 7.6125 24.6471 7.482 24.8095 7.482C24.9719 7.482 25.1024 7.6125 25.1024 7.7749V9.0886C25.1024 9.251 24.9719 9.3815 24.8095 9.3815Z" fill="#002244"/>
    <path d="M24.8095 15.4628C24.6471 15.4628 24.5166 15.3323 24.5166 15.1699V13.8562C24.5166 13.6938 24.6471 13.5633 24.8095 13.5633C24.9719 13.5633 25.1024 13.6938 25.1024 13.8562V15.1699C25.1024 15.3323 24.9719 15.4628 24.8095 15.4628Z" fill="#002244"/>
    <path d="M22.6318 14.2709C22.4694 14.2709 22.3389 14.1404 22.3389 13.978V8.9639C22.3389 8.8015 22.4694 8.671 22.6318 8.671C22.7942 8.671 22.9247 8.8015 22.9247 8.9639V13.978C22.9247 14.1404 22.7942 14.2709 22.6318 14.2709Z" fill="#002244"/>
    <path d="M7.94036 14.2709C7.77796 14.2709 7.64746 14.1404 7.64746 13.978V9.0857C7.64746 8.9233 7.77796 8.7928 7.94036 8.7928C8.10276 8.7928 8.23326 8.9233 8.23326 9.0857V13.978C8.23326 14.1404 8.10276 14.2709 7.94036 14.2709Z" fill="#002244"/>
    <path d="M21.4398 15.4628H9.12933C8.96693 15.4628 8.83643 15.3323 8.83643 15.1699C8.83643 15.0075 8.96693 14.877 9.12933 14.877H21.4398C21.6022 14.877 21.7327 15.0075 21.7327 15.1699C21.7327 15.3323 21.6022 15.4628 21.4398 15.4628Z" fill="#002244"/>
    <path d="M21.4398 8.0649H9.12347C8.96107 8.0649 8.83057 7.9344 8.83057 7.772C8.83057 7.6096 8.96107 7.4791 9.12347 7.4791H21.4398C21.6022 7.4791 21.7327 7.6096 21.7327 7.772C21.7327 7.9344 21.6022 8.0649 21.4398 8.0649Z" fill="#002244"/>
    <path d="M22.6318 9.2568C21.814 9.2568 21.1499 8.5927 21.1499 7.7749C21.1499 7.6125 21.2804 7.482 21.4428 7.482C21.6052 7.482 21.7357 7.6125 21.7357 7.7749C21.7357 8.2708 22.1388 8.6739 22.6347 8.6739C22.7971 8.6739 22.9276 8.8044 22.9276 8.9668C22.9276 9.1292 22.7971 9.2597 22.6347 9.2597L22.6318 9.2568Z" fill="#002244"/>
    <path d="M7.94036 9.3815C7.77796 9.3815 7.64746 9.251 7.64746 9.0886C7.64746 8.9262 7.77796 8.7957 7.94036 8.7957C8.43626 8.7957 8.83936 8.3926 8.83936 7.8967C8.83936 7.8648 8.83936 7.8329 8.83356 7.801C8.81616 7.6415 8.93506 7.4965 9.09456 7.482C9.25406 7.4675 9.39906 7.5835 9.41356 7.743C9.41936 7.7923 9.42226 7.8445 9.42226 7.8967C9.42226 8.7145 8.75816 9.3815 7.94036 9.3815Z" fill="#002244"/>
    <path d="M21.4399 15.4628C21.2775 15.4628 21.147 15.3323 21.147 15.1699C21.147 14.3521 21.8111 13.688 22.6289 13.688C22.7913 13.688 22.9218 13.8185 22.9218 13.9809C22.9218 14.1433 22.7913 14.2738 22.6289 14.2738C22.133 14.2738 21.7299 14.6769 21.7299 15.1728C21.7299 15.3352 21.5994 15.4657 21.437 15.4657L21.4399 15.4628Z" fill="#002244"/>
    <path d="M2.268 19.2705C2.1056 19.2705 1.9751 19.14 1.9751 18.9776V12.2931C1.9751 12.1307 2.1056 12.0002 2.268 12.0002C2.4304 12.0002 2.5609 12.1307 2.5609 12.2931V18.9776C2.5609 19.14 2.4304 19.2705 2.268 19.2705Z" fill="#002244"/>
    <path d="M6.76311 19.2705C6.60071 19.2705 6.47021 19.14 6.47021 18.9776V16.6924C6.47021 16.5358 6.59202 16.4082 6.74862 16.3995C6.90232 16.3908 7.03861 16.5068 7.05311 16.6634V16.6721C7.05311 16.6895 7.05601 16.7098 7.05311 16.7272V18.9776C7.05311 19.14 6.92261 19.2705 6.76021 19.2705H6.76311Z" fill="#002244"/>
    <path d="M4.51545 24.6529C4.42555 24.6529 4.34145 24.6123 4.28635 24.5398L0.0610507 19.1603C-0.00854928 19.0733 -0.0201493 18.9515 0.0291507 18.8529C0.0784507 18.7514 0.179951 18.6876 0.293051 18.6876H2.26795C2.43035 18.6876 2.56085 18.8181 2.56085 18.9805C2.56085 19.1429 2.43035 19.2734 2.26795 19.2734H0.893351L4.51545 23.8873L8.13755 19.2734H6.76295C6.60055 19.2734 6.47005 19.1429 6.47005 18.9805C6.47005 18.8181 6.60055 18.6876 6.76295 18.6876H8.73785C8.85095 18.6876 8.95245 18.7514 9.00175 18.8529C9.05105 18.9544 9.03655 19.0733 8.96985 19.1603L4.74745 24.5398C4.69235 24.6094 4.60825 24.6529 4.51835 24.6529H4.51545Z" fill="#002244"/>
    <path d="M8.08782 25.2155C7.92542 25.2155 7.79492 25.085 7.79492 24.9226V22.8491C7.79492 22.6867 7.92542 22.5562 8.08782 22.5562C8.25022 22.5562 8.38072 22.6867 8.38072 22.8491V24.9226C8.38072 25.085 8.25022 25.2155 8.08782 25.2155Z" fill="#002244"/>
    <path d="M11.2518 25.2155C11.0894 25.2155 10.9589 25.085 10.9589 24.9226V23.316L10.9473 18.9805C10.9473 18.8181 11.0778 18.6876 11.2373 18.6876C11.3997 18.6876 11.5302 18.8181 11.5302 18.9776L11.5418 23.3131V24.9226C11.5418 25.085 11.4113 25.2155 11.2489 25.2155H11.2518Z" fill="#002244"/>
    <path d="M9.67134 29C9.58144 29 9.49734 28.9594 9.44224 28.8869L6.46974 25.1024C6.40014 25.0154 6.38854 24.8936 6.43784 24.795C6.48714 24.6935 6.58864 24.6297 6.70174 24.6297H8.09084C8.25324 24.6297 8.38374 24.7602 8.38374 24.9226C8.38374 25.085 8.25324 25.2155 8.09084 25.2155H7.30204L9.67134 28.2373L12.0406 25.2155H11.2518C11.0894 25.2155 10.9589 25.085 10.9589 24.9226C10.9589 24.7602 11.0894 24.6297 11.2518 24.6297H12.6409C12.754 24.6297 12.8555 24.6935 12.9048 24.795C12.9541 24.8965 12.9396 25.0154 12.8729 25.1024L9.90044 28.8869C9.84534 28.9565 9.76124 29 9.67134 29Z" fill="#002244"/>
    <path d="M14.4159 21.0859C14.2535 21.0859 14.123 20.9554 14.123 20.793V18.3889C14.123 18.2265 14.2535 18.096 14.4159 18.096C14.5783 18.096 14.7088 18.2265 14.7088 18.3889V20.793C14.7088 20.9554 14.5783 21.0859 14.4159 21.0859Z" fill="#002244"/>
    <path d="M17.58 21.0859C17.4176 21.0859 17.2871 20.9554 17.2871 20.793V18.3889C17.2871 18.2265 17.4176 18.096 17.5771 18.096C17.7395 18.096 17.87 18.2265 17.87 18.3889V20.793C17.87 20.9554 17.7395 21.0859 17.58 21.0859Z" fill="#002244"/>
    <path d="M15.9965 24.8733C15.9066 24.8733 15.8225 24.8327 15.7674 24.7602L12.7949 20.9757C12.7253 20.8887 12.7137 20.7669 12.763 20.6683C12.8123 20.5668 12.9138 20.503 13.0269 20.503H14.416C14.5784 20.503 14.7089 20.6335 14.7089 20.7959C14.7089 20.9583 14.5784 21.0888 14.416 21.0888H13.6272L15.9965 24.1106L18.3658 21.0888H17.577C17.4146 21.0888 17.2841 20.9583 17.2841 20.7959C17.2841 20.6335 17.4146 20.503 17.577 20.503H18.9661C19.0792 20.503 19.1807 20.5668 19.23 20.6683C19.2793 20.7698 19.2648 20.8887 19.1981 20.9757L16.2256 24.7602C16.1705 24.8298 16.0864 24.8733 15.9965 24.8733Z" fill="#002244"/>
  </g>
  <defs>
    <clipPath id="clip0_418_13887">
      <rect width="26.6423" height="29" fill="white"/>
    </clipPath>
  </defs>
</svg>