<svg xmlns="http://www.w3.org/2000/svg" width="31" height="29" viewBox="0 0 31 29" fill="none">
  <g clip-path="url(#clip0_418_13827)">
    <path d="M8.89407 17.719C8.65917 17.719 8.46777 17.5276 8.46777 17.2927V1.5631C8.46777 0.7018 9.16957 0 10.0309 0H24.4236C25.2849 0 25.9867 0.7018 25.9867 1.5631V12.3946C25.9867 12.6295 25.7953 12.8209 25.5604 12.8209C25.3255 12.8209 25.1341 12.6295 25.1341 12.3946V1.5631C25.1341 1.1716 24.8151 0.8497 24.4207 0.8497H10.028C9.63647 0.8497 9.31457 1.1687 9.31457 1.5631V17.2956C9.31457 17.5305 9.12317 17.7219 8.88827 17.7219L8.89407 17.719Z" fill="#002244"/>
    <path d="M23.6672 12.8209C23.4323 12.8209 23.2409 12.6295 23.2409 12.3946V2.7463H16.5303C16.2954 2.7463 16.104 2.5549 16.104 2.32C16.104 2.0851 16.2954 1.8937 16.5303 1.8937H23.6672C23.9021 1.8937 24.0935 2.0851 24.0935 2.32V12.3946C24.0935 12.6295 23.9021 12.8209 23.6672 12.8209Z" fill="#002244"/>
    <path d="M10.791 15.7557C10.5561 15.7557 10.3647 15.5643 10.3647 15.3294V7.9605C10.3647 7.7256 10.5561 7.5342 10.791 7.5342C11.0259 7.5342 11.2173 7.7256 11.2173 7.9605V15.3294C11.2173 15.5643 11.0259 15.7557 10.791 15.7557Z" fill="#002244"/>
    <path d="M5.86666 22.3155C5.66076 22.3155 5.48096 22.1647 5.44616 21.9559L2.64186 4.0542C2.56936 3.5989 2.67956 3.1436 2.95216 2.7695C3.22476 2.3983 3.62496 2.1518 4.08026 2.0822L6.19146 1.7516C6.42346 1.7139 6.64096 1.8734 6.67866 2.1054C6.71636 2.3374 6.55686 2.5549 6.32486 2.5926L4.21366 2.9232C3.73806 2.9986 3.41036 3.4481 3.48576 3.9237L6.29296 21.8254C6.33066 22.0574 6.17116 22.2749 5.93916 22.3126C5.91596 22.3155 5.89566 22.3184 5.87246 22.3184L5.86666 22.3155Z" fill="#002244"/>
    <path d="M5.09522 26.7293C4.27162 26.7293 3.54082 26.1377 3.39582 25.2996L0.0260217 5.9334C-0.136378 4.9967 0.492922 4.1006 1.42962 3.9382C1.66162 3.8976 1.88202 4.0542 1.92262 4.2833C1.96322 4.5153 1.80662 4.7357 1.57752 4.7763C1.10192 4.8604 0.782922 5.3128 0.864122 5.7884L4.23392 25.1546C4.31802 25.6302 4.77042 25.9492 5.24602 25.868L8.29682 25.3373C8.52882 25.2967 8.74922 25.4533 8.78982 25.6824C8.83042 25.9115 8.67382 26.1348 8.44472 26.1754L5.39392 26.7061C5.29532 26.7235 5.19382 26.7322 5.09812 26.7322L5.09522 26.7293Z" fill="#002244"/>
    <path d="M11.5189 6.7744C11.4638 6.7744 11.4058 6.7628 11.3536 6.7396C11.1361 6.6468 11.0375 6.3974 11.1274 6.1828L12.9283 1.9372C13.0211 1.7197 13.2705 1.6211 13.4851 1.711C13.7026 1.8038 13.8012 2.0532 13.7113 2.2678L11.9104 6.5134C11.8408 6.6758 11.6842 6.7715 11.5189 6.7715V6.7744Z" fill="#002244"/>
    <path d="M15.1208 6.77441C14.9555 6.77441 14.7989 6.67581 14.7293 6.51631L12.9284 2.27071C12.8356 2.05321 12.9371 1.80381 13.1546 1.71391C13.3721 1.62111 13.6215 1.72261 13.7114 1.94011L15.5123 6.18571C15.6051 6.40321 15.5036 6.65261 15.2861 6.74251C15.231 6.76571 15.1759 6.77731 15.1208 6.77731V6.77441Z" fill="#002244"/>
    <path d="M14.4799 5.3679H12.1831C11.9482 5.3679 11.7568 5.1765 11.7568 4.9416C11.7568 4.7067 11.9482 4.5153 12.1831 4.5153H14.4799C14.7148 4.5153 14.9062 4.7067 14.9062 4.9416C14.9062 5.1765 14.7148 5.3679 14.4799 5.3679Z" fill="#002244"/>
    <path d="M17.2287 15.5353C17.0576 15.5353 16.9039 15.4338 16.8372 15.2772L16.4457 14.3637C16.0513 13.4473 15.4916 12.6295 14.7782 11.9335L14.6999 11.8581C14.6187 11.7769 14.5723 11.6696 14.5723 11.5536C14.5723 11.4376 14.6187 11.3303 14.6999 11.2491L14.7782 11.1737C15.4916 10.4777 16.0513 9.6599 16.4457 8.7435L16.8372 7.83C16.9039 7.6734 17.0576 7.5719 17.2287 7.5719C17.3998 7.5719 17.5535 7.6734 17.6202 7.83L18.0117 8.7435C18.4061 9.6599 18.9658 10.4777 19.6792 11.1737L19.7575 11.2491C19.8387 11.3303 19.8851 11.4376 19.8851 11.5536C19.8851 11.6696 19.8387 11.7769 19.7575 11.8581L19.6792 11.9335C18.9658 12.6295 18.4061 13.4473 18.0117 14.3637L17.6202 15.2772C17.5535 15.4338 17.3998 15.5353 17.2287 15.5353ZM15.596 11.5565C16.2833 12.2786 16.8285 13.1109 17.2258 14.0302V14.036L17.2287 14.0302C17.6231 13.1109 18.1712 12.2786 18.8585 11.5565C18.1712 10.8344 17.626 10.0021 17.2287 9.0828V9.077L17.2258 9.0828C16.8314 10.0021 16.2833 10.8344 15.596 11.5565Z" fill="#002244"/>
    <path d="M15.6108 29C12.0032 29 9.06836 26.0652 9.06836 22.4576C9.06836 18.85 12.0032 15.9152 15.6108 15.9152C19.2184 15.9152 22.1532 18.85 22.1532 22.4576C22.1532 26.0652 19.2184 29 15.6108 29ZM15.6108 16.7649C12.473 16.7649 9.91806 19.3169 9.91806 22.4576C9.91806 25.5983 12.4701 28.1503 15.6108 28.1503C18.7515 28.1503 21.3035 25.5983 21.3035 22.4576C21.3035 19.3169 18.7515 16.7649 15.6108 16.7649Z" fill="#002244"/>
    <path d="M15.6107 26.3349C13.4734 26.3349 11.7334 24.5949 11.7334 22.4576C11.7334 20.3203 13.4734 18.5803 15.6107 18.5803C17.748 18.5803 19.488 20.3203 19.488 22.4576C19.488 24.5949 17.748 26.3349 15.6107 26.3349ZM15.6107 19.43C13.9403 19.43 12.5831 20.7872 12.5831 22.4576C12.5831 24.128 13.9403 25.4852 15.6107 25.4852C17.2811 25.4852 18.6383 24.128 18.6383 22.4576C18.6383 20.7872 17.2811 19.43 15.6107 19.43Z" fill="#002244"/>
    <path d="M15.6109 19.43C15.376 19.43 15.1846 19.2386 15.1846 19.0037V16.3386C15.1846 16.1037 15.376 15.9123 15.6109 15.9123C15.8458 15.9123 16.0372 16.1037 16.0372 16.3386V19.0037C16.0372 19.2386 15.8458 19.43 15.6109 19.43Z" fill="#002244"/>
    <path d="M18.6005 21.1555C18.4526 21.1555 18.3105 21.0801 18.2322 20.9438C18.1133 20.7408 18.1858 20.4798 18.3888 20.3638L20.6972 19.0327C20.9002 18.9138 21.1612 18.9863 21.2772 19.1893C21.3961 19.3923 21.3236 19.6533 21.1206 19.7693L18.8122 21.1004C18.7455 21.1381 18.673 21.1584 18.6005 21.1584V21.1555Z" fill="#002244"/>
    <path d="M20.9091 25.9405C20.8366 25.9405 20.7641 25.9231 20.6974 25.8825L18.389 24.5514C18.186 24.4325 18.1164 24.1744 18.2324 23.9714C18.3513 23.7684 18.6094 23.6988 18.8124 23.8148L21.1208 25.1459C21.3238 25.2648 21.3934 25.5229 21.2774 25.7259C21.1991 25.8622 21.057 25.9376 20.9091 25.9376V25.9405Z" fill="#002244"/>
    <path d="M15.6109 29C15.376 29 15.1846 28.8086 15.1846 28.5737V25.9086C15.1846 25.6737 15.376 25.4823 15.6109 25.4823C15.8458 25.4823 16.0372 25.6737 16.0372 25.9086V28.5737C16.0372 28.8086 15.8458 29 15.6109 29Z" fill="#002244"/>
    <path d="M10.3126 25.9405C10.1647 25.9405 10.0226 25.8651 9.94427 25.7288C9.82827 25.5258 9.89787 25.2648 10.1009 25.1488L12.4093 23.8177C12.6123 23.6988 12.8733 23.7713 12.9893 23.9743C13.1053 24.1773 13.0357 24.4383 12.8327 24.5543L10.5243 25.8854C10.4576 25.9231 10.3851 25.9434 10.3126 25.9434V25.9405Z" fill="#002244"/>
    <path d="M12.621 21.1555C12.5485 21.1555 12.476 21.1381 12.4093 21.0975L10.1009 19.7664C9.89787 19.6475 9.82827 19.3894 9.94427 19.1864C10.0632 18.9834 10.3213 18.9138 10.5243 19.0298L12.8327 20.3609C13.0357 20.4798 13.1053 20.7379 12.9893 20.9409C12.911 21.0772 12.7689 21.1526 12.621 21.1526V21.1555Z" fill="#002244"/>
    <path d="M24.2729 27.5239C23.6726 27.5239 23.0781 27.4427 22.5068 27.2832C22.2806 27.2194 22.1472 26.9845 22.211 26.7583C22.2748 26.5321 22.5097 26.3987 22.7359 26.4625C23.2347 26.6017 23.7509 26.6713 24.2729 26.6713C27.4107 26.6713 29.9656 24.1193 29.9656 20.9786C29.9656 17.8379 27.4136 15.2859 24.2729 15.2859C22.9708 15.2859 21.7441 15.7151 20.7291 16.5242C20.5464 16.6692 20.2767 16.6402 20.1317 16.4575C19.9867 16.2748 20.0157 16.0051 20.1984 15.8601C21.3671 14.9292 22.7765 14.4362 24.2729 14.4362C27.8805 14.4362 30.8153 17.371 30.8153 20.9786C30.8153 24.5862 27.8805 27.521 24.2729 27.521V27.5239Z" fill="#002244"/>
    <path d="M24.2727 24.8588C23.771 24.8588 23.2838 24.766 22.8256 24.5804C22.6081 24.4934 22.5008 24.244 22.5907 24.0265C22.6777 23.809 22.9271 23.7046 23.1446 23.7916C23.5042 23.9366 23.8841 24.0091 24.2756 24.0091C25.946 24.0091 27.3032 22.6519 27.3032 20.9815C27.3032 19.3111 25.946 17.9539 24.2756 17.9539C23.6231 17.9539 23.0025 18.1569 22.4805 18.5426C22.292 18.6818 22.0252 18.6412 21.886 18.4527C21.7468 18.2642 21.7874 17.9974 21.9759 17.8582C22.6458 17.3652 23.4404 17.1042 24.2756 17.1042C26.4129 17.1042 28.1529 18.8442 28.1529 20.9815C28.1529 23.1188 26.4129 24.8588 24.2756 24.8588H24.2727Z" fill="#002244"/>
    <path d="M24.273 17.9539C24.0381 17.9539 23.8467 17.7625 23.8467 17.5276V14.8625C23.8467 14.6276 24.0381 14.4362 24.273 14.4362C24.5079 14.4362 24.6993 14.6276 24.6993 14.8625V17.5276C24.6993 17.7625 24.5079 17.9539 24.273 17.9539Z" fill="#002244"/>
    <path d="M27.2655 19.6794C27.1176 19.6794 26.9755 19.604 26.8972 19.4677C26.7783 19.2647 26.8508 19.0037 27.0538 18.8877L29.3622 17.5566C29.5652 17.4377 29.8262 17.5102 29.9422 17.7132C30.0611 17.9162 29.9886 18.1772 29.7856 18.2932L27.4772 19.6243C27.4105 19.662 27.338 19.6823 27.2655 19.6823V19.6794Z" fill="#002244"/>
    <path d="M29.5712 24.4644C29.4987 24.4644 29.4262 24.447 29.3595 24.4064L27.0511 23.0753C26.8481 22.9564 26.7785 22.6983 26.8945 22.4953C27.0134 22.2923 27.2715 22.2227 27.4745 22.3387L29.7829 23.6698C29.9859 23.7887 30.0555 24.0468 29.9395 24.2498C29.8612 24.3861 29.7191 24.4615 29.5712 24.4615V24.4644Z" fill="#002244"/>
    <path d="M24.273 27.5239C24.0381 27.5239 23.8467 27.3325 23.8467 27.0976V24.4325C23.8467 24.1976 24.0381 24.0062 24.273 24.0062C24.5079 24.0062 24.6993 24.1976 24.6993 24.4325V27.0976C24.6993 27.3325 24.5079 27.5239 24.273 27.5239Z" fill="#002244"/>
  </g>
  <defs>
    <clipPath id="clip0_418_13827">
      <rect width="30.8183" height="29" fill="white"/>
    </clipPath>
  </defs>
</svg>