<svg width="26" height="26" viewBox="0 0 26 26" fill="none" xmlns="http://www.w3.org/2000/svg"><path d="M9.50867 22.6622C18.606 29.1207 24.5348 24.8885 25.9164 21.0042C26.2058 20.1899 25.7164 19.3147 24.8762 19.1142C23.2591 18.7283 21.5431 17.7911 20.0371 17.1238C19.3258 16.8089 18.4925 17.1058 18.1431 17.8011L17.0475 19.6815C16.7895 20.1944 16.1982 20.4493 15.6504 20.2774C14.3458 19.8685 12.3933 18.9068 9.7411 16.2591C7.09288 13.6074 6.13166 11.6544 5.72278 10.3498C5.55083 9.80199 5.80576 9.21067 6.31861 8.95274L8.19905 7.85707C8.89435 7.50767 9.19126 6.67442 8.87636 5.96313C8.20955 4.45708 7.27183 2.74109 6.88594 1.12407C6.6855 0.283323 5.81026 -0.206031 4.996 0.0838827C1.11114 1.46497 -3.12062 7.39371 3.33798 16.491C5.03298 18.8788 7.12137 20.9667 9.50917 22.6622H9.50867Z"></path></svg>