<svg width="26" height="26" viewBox="0 0 26 26" fill="none" xmlns="http://www.w3.org/2000/svg"><path d="M14.1602 1.50591C13.6601 1.17573 13.1249 0.894035 12.5696 0.668844C12.0247 0.44783 11.455 0.279023 10.8765 0.167066C10.3039 0.0561527 9.71744 0 9.13352 0C8.54961 0 7.96313 0.0561527 7.39047 0.167066C6.81189 0.27914 6.24224 0.447946 5.6973 0.668844C5.14204 0.894035 4.60685 1.17561 4.10669 1.50591C3.59424 1.84434 3.11253 2.23764 2.67503 2.67515C2.23752 3.11265 1.84422 3.59424 1.5058 4.10681C1.17561 4.60696 0.893919 5.14215 0.668728 5.69742C0.447714 6.24235 0.278908 6.812 0.16695 7.39058C0.0561528 7.96313 0 8.54961 0 9.13352C0 9.71744 0.0561527 10.3039 0.167066 10.8766C0.27914 11.4552 0.447946 12.0248 0.668844 12.5697C0.894035 13.125 1.17561 13.6602 1.50591 14.1604C1.84434 14.6728 2.23764 15.1545 2.67515 15.592C3.11265 16.0295 3.59424 16.4228 4.10681 16.7612C4.60696 17.0914 5.14215 17.3731 5.69742 17.5983C6.24235 17.8193 6.812 17.9881 7.39058 18.1001C7.96325 18.211 8.54961 18.2672 9.13364 18.2672C9.71756 18.2672 10.304 18.211 10.8767 18.1001C11.4553 17.988 12.0249 17.8192 12.5699 17.5983C13.1251 17.3731 13.6603 17.0916 14.1605 16.7612C14.4411 16.576 14.7124 16.3741 14.9723 16.1576L16.7796 17.9649L16.6896 18.055C16.3782 18.3664 16.3782 18.876 16.6896 19.1874L23.2686 25.7665C23.58 26.0779 24.0896 26.0779 24.401 25.7665L25.7666 24.4009C26.078 24.0895 26.078 23.5799 25.7666 23.2685L19.1875 16.6894C18.8761 16.378 18.3665 16.378 18.0551 16.6894L17.9651 16.7795L16.1577 14.9721C16.3742 14.7123 16.5761 14.4409 16.7614 14.1604C17.0916 13.6602 17.3732 13.125 17.5984 12.5697C17.8195 12.0248 17.9883 11.4552 18.1002 10.8766C18.2111 10.3039 18.2673 9.71756 18.2673 9.13352C18.2673 8.54961 18.2111 7.96313 18.1002 7.39047C17.9881 6.81189 17.8193 6.24224 17.5984 5.6973C17.3732 5.14204 17.0917 4.60685 16.7614 4.10669C16.4229 3.59424 16.0296 3.11253 15.5921 2.67503C15.1546 2.23752 14.673 1.84422 14.1605 1.5058L14.1602 1.50591ZM14.4844 14.4844C11.5292 17.4396 6.73787 17.4396 3.78265 14.4844C0.827441 11.5292 0.827441 6.73787 3.78265 3.78265C6.73787 0.827441 11.5292 0.827441 14.4844 3.78265C17.4396 6.73787 17.4396 11.5292 14.4844 14.4844Z"></path></svg>