<svg xmlns="http://www.w3.org/2000/svg" width="27" height="29" viewBox="0 0 27 29" fill="none">
  <g clip-path="url(#clip0_418_14053)">
    <path d="M16.1903 25.3866C15.9844 25.3866 15.7756 25.3547 15.5668 25.2851L11.4053 23.8902C11.2458 23.838 11.1588 23.664 11.2139 23.5016C11.269 23.3421 11.4401 23.2551 11.6025 23.3102L15.764 24.7051C16.4687 24.9429 17.2372 24.5601 17.4721 23.8554C17.7099 23.1507 17.3271 22.3822 16.6224 22.1473L12.4609 20.7524C12.2927 20.6944 12.1187 20.6741 11.9418 20.6857L5.64297 21.7732L5.53857 21.17L11.8519 20.0796C11.8519 20.0796 11.8693 20.0796 11.878 20.0767C12.1419 20.0535 12.4029 20.0883 12.6552 20.1724L16.8167 21.5673C17.8433 21.9124 18.3972 23.026 18.0521 24.0497C17.7766 24.8704 17.011 25.3866 16.1903 25.3866Z" fill="#002244"/>
    <path d="M16.7385 29C16.4601 29 16.1817 28.9739 15.9033 28.9246L5.5358 27.0367C5.3705 27.0077 5.2603 26.8482 5.2893 26.68C5.3183 26.5147 5.4778 26.4045 5.646 26.4335L16.0135 28.3214C16.9589 28.4925 17.9391 28.3214 18.7685 27.8429L25.4733 23.9743C26.2273 23.5393 26.4854 22.5707 26.0504 21.8167C25.6154 21.0627 24.6468 20.8046 23.8928 21.2396L17.2692 25.0618C17.1242 25.1459 16.9357 25.0966 16.8516 24.9487C16.7675 24.8008 16.8168 24.6152 16.9647 24.5311L23.5883 20.7089C24.6352 20.1057 25.9779 20.4653 26.5811 21.5122C27.1843 22.5591 26.8247 23.9018 25.7778 24.505L19.073 28.3736C18.3596 28.7854 17.5505 28.9971 16.7356 28.9971L16.7385 29Z" fill="#002244"/>
    <path d="M3.39285 28.4577H1.68475C1.22075 28.4577 0.84375 28.0807 0.84375 27.6167V20.5929C0.84375 20.1289 1.22075 19.7519 1.68475 19.7519H3.39285C3.85685 19.7519 4.23385 20.1289 4.23385 20.5929V27.6167C4.23385 28.0807 3.85685 28.4577 3.39285 28.4577ZM1.68475 20.3609C1.55715 20.3609 1.45565 20.4653 1.45565 20.59V27.6138C1.45565 27.7414 1.56005 27.8429 1.68475 27.8429H3.39285C3.52045 27.8429 3.62195 27.7385 3.62195 27.6138V20.59C3.62195 20.4624 3.51755 20.3609 3.39285 20.3609H1.68475Z" fill="#002244"/>
    <path d="M17.4408 9.947C14.6974 9.947 12.4673 7.7169 12.4673 4.9735C12.4673 2.2301 14.6974 0 17.4408 0C20.1842 0 22.4143 2.2301 22.4143 4.9735C22.4143 7.7169 20.1842 9.947 17.4408 9.947ZM17.4408 0.6119C15.0367 0.6119 13.0792 2.5694 13.0792 4.9735C13.0792 7.3776 15.0367 9.3351 17.4408 9.3351C19.8449 9.3351 21.8024 7.3776 21.8024 4.9735C21.8024 2.5694 19.8449 0.6119 17.4408 0.6119Z" fill="#002244"/>
    <path d="M17.3595 7.4385C17.2551 7.4385 17.1449 7.4298 17.0376 7.4124C16.7186 7.3602 16.4257 7.2326 16.1821 7.047C16.0487 6.9426 16.0226 6.7512 16.127 6.6178C16.2314 6.4844 16.4228 6.4583 16.5562 6.5627C16.7186 6.6874 16.9187 6.7715 17.1362 6.8092C17.7075 6.902 18.2295 6.6352 18.2991 6.2147C18.331 6.0233 18.2614 5.8232 18.1077 5.6492C17.9337 5.4578 17.6814 5.3244 17.3914 5.278C16.4866 5.1301 15.8544 4.3935 15.9791 3.6395C16.0429 3.2596 16.2778 2.9377 16.649 2.7318C16.9941 2.5375 17.4204 2.4708 17.8438 2.5404C18.1628 2.5926 18.4586 2.7202 18.6993 2.9058C18.8327 3.0102 18.8588 3.2016 18.7544 3.335C18.65 3.4684 18.4586 3.4945 18.3252 3.3901C18.1628 3.2654 17.9627 3.1813 17.7452 3.1436C17.4552 3.0972 17.1739 3.1407 16.9477 3.2654C16.7447 3.3785 16.6142 3.5467 16.5852 3.7381C16.5156 4.1615 16.9245 4.5791 17.4929 4.6748C17.9192 4.7444 18.2991 4.9445 18.563 5.2403C18.8443 5.5535 18.9661 5.9363 18.9052 6.3133C18.795 6.9774 18.1338 7.4385 17.3624 7.4385H17.3595Z" fill="#002244"/>
    <path d="M6.3568 18.2352C2.8507 18.2352 0 15.3845 0 11.8813C0 8.37811 2.8507 5.52451 6.3568 5.52451C9.8629 5.52451 12.7136 8.37521 12.7136 11.8813C12.7136 15.3874 9.8629 18.2381 6.3568 18.2381V18.2352ZM6.3568 6.13641C3.19 6.13641 0.6119 8.71161 0.6119 11.8813C0.6119 15.051 3.1871 17.6262 6.3568 17.6262C9.5265 17.6262 12.1017 15.051 12.1017 11.8813C12.1017 8.71161 9.5265 6.13641 6.3568 6.13641Z" fill="#002244"/>
    <path d="M3.90625 15.254C3.83955 15.254 3.77285 15.2308 3.71485 15.1873C3.58145 15.0829 3.56115 14.8886 3.66555 14.7581L8.56365 8.62461C8.66805 8.49121 8.86235 8.47091 8.99285 8.57531C9.12625 8.67971 9.14655 8.87401 9.04215 9.00451L4.14405 15.138C4.08315 15.2134 3.99325 15.254 3.90335 15.254H3.90625Z" fill="#002244"/>
    <path d="M4.43676 11.1041C3.63346 11.1041 2.98096 10.4516 2.98096 9.64831C2.98096 8.84501 3.63346 8.1925 4.43676 8.1925C5.24006 8.1925 5.89256 8.84501 5.89256 9.64831C5.89256 10.4516 5.24006 11.1041 4.43676 11.1041ZM4.43676 8.80731C3.97276 8.80731 3.59286 9.1843 3.59286 9.6512C3.59286 10.1181 3.96986 10.4951 4.43676 10.4951C4.90366 10.4951 5.28066 10.1181 5.28066 9.6512C5.28066 9.1843 4.90366 8.80731 4.43676 8.80731Z" fill="#002244"/>
    <path d="M8.27367 15.5672C7.47037 15.5672 6.81787 14.9147 6.81787 14.1114C6.81787 13.3081 7.47037 12.6556 8.27367 12.6556C9.07697 12.6556 9.72947 13.3081 9.72947 14.1114C9.72947 14.9147 9.07697 15.5672 8.27367 15.5672ZM8.27367 13.2704C7.80967 13.2704 7.42977 13.6474 7.42977 14.1143C7.42977 14.5812 7.80677 14.9582 8.27367 14.9582C8.74057 14.9582 9.11757 14.5812 9.11757 14.1143C9.11757 13.6474 8.74057 13.2704 8.27367 13.2704Z" fill="#002244"/>
    <path d="M20.8508 18.7137C19.5197 18.7137 18.438 17.632 18.438 16.3009C18.438 14.9698 19.5197 13.8881 20.8508 13.8881C22.1819 13.8881 23.2636 14.9698 23.2636 16.3009C23.2636 17.632 22.1819 18.7137 20.8508 18.7137ZM20.8508 14.5029C19.859 14.5029 19.0499 15.3091 19.0499 16.3038C19.0499 17.2985 19.8561 18.1047 20.8508 18.1047C21.8455 18.1047 22.6517 17.2985 22.6517 16.3038C22.6517 15.3091 21.8455 14.5029 20.8508 14.5029Z" fill="#002244"/>
  </g>
  <defs>
    <clipPath id="clip0_418_14053">
      <rect width="26.8743" height="29" fill="white"/>
    </clipPath>
  </defs>
</svg>