<svg xmlns="http://www.w3.org/2000/svg" width="27" height="29" viewBox="0 0 27 29" fill="none">
  <g clip-path="url(#clip0_410_12298)">
    <path d="M15.679 29C13.6201 29 11.6636 28.2266 10.1733 26.8225C8.68033 25.4158 7.85838 23.5725 7.85838 21.6348V17.8835C5.82641 17.7083 3.94266 16.7705 2.4901 15.1967C0.883933 13.4557 0 11.1462 0 8.69113C0 6.23607 0.883933 3.92922 2.4901 2.1883C2.71648 1.94306 3.09915 1.92689 3.34439 2.15327C3.58963 2.37964 3.6058 2.76232 3.37943 3.00755C1.98076 4.5221 1.21002 6.54059 1.21002 8.69113C1.21002 10.8417 1.98076 12.8575 3.37943 14.3747C4.76461 15.8758 6.60524 16.7031 8.55906 16.7031C10.5129 16.7031 12.3535 15.8758 13.7387 14.3747C15.1373 12.8602 15.9081 10.8417 15.9081 8.69113C15.9081 6.54059 15.1373 4.52479 13.7387 3.00755C13.5123 2.76232 13.5285 2.37964 13.7737 2.15327C14.019 1.92689 14.4016 1.94306 14.628 2.1883C16.2342 3.92922 17.1181 6.23607 17.1181 8.69113C17.1181 11.1462 16.2342 13.4531 14.628 15.194C13.1296 16.8163 11.1731 17.7649 9.07109 17.897V21.6348C9.07109 24.9711 12.1002 27.79 15.6817 27.79C19.2633 27.79 22.2627 25.087 22.2627 21.7669C22.2627 21.7507 22.2627 21.7345 22.2627 21.7184C20.3628 21.4004 18.9129 19.743 18.9129 17.7568C18.9129 15.5416 20.7158 13.7387 22.931 13.7387C25.1463 13.7387 26.9492 15.5416 26.9492 17.7568C26.9492 19.7888 25.4319 21.4758 23.47 21.7399C23.47 21.7507 23.47 21.7588 23.47 21.7696C23.47 25.758 19.9747 29.0027 15.679 29.0027V29Z" fill="#002244"/>
    <path d="M22.9311 14.946C21.3816 14.946 20.123 16.2073 20.123 17.7541C20.123 19.301 21.3843 20.5623 22.9311 20.5623C24.478 20.5623 25.7393 19.301 25.7393 17.7541C25.7393 16.2073 24.478 14.946 22.9311 14.946Z" fill="white"/>
    <path fill-rule="evenodd" clip-rule="evenodd" d="M3.67056 0.603638C4.16104 0.603638 4.55719 0.99979 4.55719 1.49027C4.55719 1.98074 4.16104 2.37689 3.67056 2.37689C3.18009 2.37689 2.78394 1.98074 2.78394 1.49027C2.78394 0.99979 3.18009 0.603638 3.67056 0.603638Z" fill="#002244"/>
    <path d="M3.67046 2.98058C2.84852 2.98058 2.18018 2.31224 2.18018 1.49029C2.18018 0.668339 2.84852 0 3.67046 0C4.49241 0 5.16075 0.668339 5.16075 1.49029C5.16075 2.31224 4.49241 2.98058 3.67046 2.98058ZM3.6516 1.20732C3.50607 1.20732 3.39019 1.31781 3.39019 1.45256C3.39019 1.58731 3.50877 1.6978 3.6516 1.6978C3.79443 1.6978 3.91301 1.58731 3.91301 1.45256C3.91301 1.31781 3.79443 1.20732 3.6516 1.20732Z" fill="#002244"/>
    <path fill-rule="evenodd" clip-rule="evenodd" d="M13.445 0.603638C13.9355 0.603638 14.3316 0.99979 14.3316 1.49027C14.3316 1.98074 13.9355 2.37689 13.445 2.37689C12.9545 2.37689 12.5583 1.98074 12.5583 1.49027C12.5583 0.99979 12.9545 0.603638 13.445 0.603638Z" fill="#002244"/>
    <path d="M13.4449 2.98058C12.6229 2.98058 11.9546 2.31224 11.9546 1.49029C11.9546 0.668339 12.6229 0 13.4449 0C14.2668 0 14.9352 0.668339 14.9352 1.49029C14.9352 2.31224 14.2668 2.98058 13.4449 2.98058ZM13.4449 1.20732C13.2886 1.20732 13.1619 1.33398 13.1619 1.49029C13.1619 1.64659 13.2886 1.77326 13.4449 1.77326C13.6012 1.77326 13.7278 1.64659 13.7278 1.49029C13.7278 1.33398 13.6012 1.20732 13.4449 1.20732Z" fill="#002244"/>
    <path fill-rule="evenodd" clip-rule="evenodd" d="M22.9176 17.0507C23.2437 17.0507 23.5078 17.3148 23.5078 17.6408C23.5078 17.9669 23.2437 18.231 22.9176 18.231C22.5915 18.231 22.3301 17.9669 22.3301 17.6408C22.3301 17.3148 22.5942 17.0507 22.9176 17.0507Z" fill="#324C5E"/>
    <path d="M22.9175 18.832C22.2599 18.832 21.7236 18.2957 21.7236 17.6382C21.7236 16.9806 22.2599 16.4443 22.9175 16.4443C23.575 16.4443 24.1113 16.9806 24.1113 17.6382C24.1113 18.2957 23.575 18.832 22.9175 18.832ZM22.9175 17.622C22.9175 17.622 22.9013 17.6301 22.9013 17.6382C22.9013 17.6544 22.9336 17.6544 22.9336 17.6382C22.9336 17.6301 22.9256 17.622 22.9175 17.622Z" fill="#002244"/>
  </g>
  <defs>
    <clipPath id="clip0_410_12298">
      <rect width="26.9492" height="29" fill="white"/>
    </clipPath>
  </defs>
</svg>