<svg xmlns="http://www.w3.org/2000/svg" width="33" height="29" viewBox="0 0 33 29" fill="none">
  <g clip-path="url(#clip0_410_12324)">
    <path d="M31.8102 29H18.0156C17.4727 29 17.0315 28.5588 17.0315 28.0159V25.5191C17.0315 25.1464 17.334 24.8439 17.7068 24.8439H32.1181C32.4908 24.8439 32.7934 25.1464 32.7934 25.5191V28.0159C32.7934 28.5588 32.3522 29 31.8093 29H31.8102ZM18.382 27.6494H31.4428V26.1953H18.382V27.6494Z" fill="#002244"/>
    <path d="M12.5296 29H8.07097C5.08895 29 2.45087 27.4397 1.01388 24.8268C-0.423114 22.2139 -0.326775 19.15 1.27048 16.6316L5.81105 9.47458C5.9353 9.2792 6.15048 9.16125 6.38098 9.16125H14.2187C14.4501 9.16125 14.6653 9.2792 14.7886 9.47458L16.15 11.6202C16.3499 11.9353 16.2562 12.3522 15.942 12.552C15.6269 12.7519 15.21 12.6583 15.0101 12.3441L13.8477 10.5118H6.75283L2.41035 17.3555C1.0805 19.4516 1.00037 22.0014 2.19606 24.1767C3.39175 26.352 5.58775 27.6503 8.07007 27.6503H12.5287C13.3147 27.6503 14.0764 27.5216 14.7922 27.2686C15.1434 27.1443 15.5296 27.328 15.6539 27.6801C15.7781 28.0312 15.5945 28.4175 15.2424 28.5417C14.3808 28.846 13.4678 29.0009 12.5278 29.0009L12.5296 29Z" fill="#002244"/>
    <path d="M14.9931 10.5109H5.60762C5.02868 10.5109 4.55688 10.04 4.55688 9.46015V7.15071C4.55688 6.57177 5.02778 6.09998 5.60762 6.09998H14.994C15.5729 6.09998 16.0447 6.57087 16.0447 7.15071V9.46015C16.0447 10.0391 15.5738 10.5109 14.994 10.5109H14.9931ZM5.90654 9.16033H14.6923V7.45053H5.90654V9.16033Z" fill="#002244"/>
    <path d="M13.8388 7.45141C13.7713 7.45141 13.7028 7.44151 13.6353 7.4199C13.2797 7.30735 13.0825 6.9283 13.195 6.57265L14.5348 2.32921C13.602 1.98167 11.7139 1.35051 10.3003 1.35051C8.88677 1.35051 6.99779 1.98167 6.06591 2.32921L7.40566 6.57265C7.5182 6.9283 7.32102 7.30735 6.96538 7.4199C6.60973 7.53245 6.23068 7.33526 6.11813 6.97962L4.5884 2.13473C4.48396 1.80249 4.64873 1.44505 4.96926 1.30999C5.09531 1.25687 8.08454 0.000854492 10.3012 0.000854492C12.518 0.000854492 15.5072 1.25597 15.6332 1.30999C15.9538 1.44595 16.1185 1.80339 16.0141 2.13473L14.4844 6.97962C14.3934 7.26774 14.1278 7.45141 13.8406 7.45141H13.8388Z" fill="#002244"/>
    <path d="M31.8102 23.3897H18.0156C17.4727 23.3897 17.0315 22.9486 17.0315 22.4056V20.2177C17.0315 19.6748 17.4727 19.2336 18.0156 19.2336H31.8102C32.3531 19.2336 32.7943 19.6748 32.7943 20.2177V22.4056C32.7943 22.9477 32.3531 23.3897 31.8102 23.3897ZM18.382 22.0392H31.4428V20.5851H18.382V22.0392Z" fill="#002244"/>
    <path d="M28.6173 26.1944H14.8227C14.2798 26.1944 13.8386 25.7533 13.8386 25.2103V23.0224C13.8386 22.4804 14.2798 22.0383 14.8227 22.0383H28.6173C29.1602 22.0383 29.6014 22.4795 29.6014 23.0224V25.2103C29.6014 25.7533 29.1602 26.1944 28.6173 26.1944ZM15.1892 24.8439H28.2499V23.3898H15.1892V24.8439Z" fill="#002244"/>
    <path d="M25.0401 20.2466C20.694 20.2466 17.1592 16.7109 17.1592 12.3657C17.1592 8.02049 20.6949 4.48474 25.0401 4.48474C29.3853 4.48474 32.921 8.02049 32.921 12.3657C32.921 16.7109 29.3853 20.2466 25.0401 20.2466ZM25.0401 5.8344C21.4395 5.8344 18.5097 8.7642 18.5097 12.3648C18.5097 15.9654 21.4395 18.8952 25.0401 18.8952C28.6407 18.8952 31.5705 15.9654 31.5705 12.3648C31.5705 8.7642 28.6407 5.8344 25.0401 5.8344Z" fill="#002244"/>
    <path d="M11.1556 19.8441H8.4068C7.07695 19.8441 5.99561 18.7438 5.99561 17.3915C5.99561 16.0391 7.07695 14.9812 8.4068 14.9812H11.1556C12.1298 14.9812 13.0419 15.5817 13.4237 16.4749C13.5803 16.8396 13.4101 17.2627 13.0455 17.4185C12.6808 17.5725 12.2577 17.4059 12.1019 17.0403C11.9696 16.7324 11.6022 16.42 11.1556 16.42H8.4068C7.87018 16.42 7.4335 16.8567 7.4335 17.3924C7.4335 17.9614 7.86117 18.4071 8.4068 18.4071H11.1556C11.5527 18.4071 11.875 18.7294 11.875 19.1265C11.875 19.5236 11.5527 19.8459 11.1556 19.8459V19.8441Z" fill="#002244"/>
    <path d="M11.1555 23.2268H8.40668C7.43158 23.2268 6.53571 22.62 6.17467 21.7178C6.02701 21.3496 6.20708 20.9309 6.57533 20.7841C6.94358 20.6374 7.36315 20.8165 7.50901 21.1848C7.65217 21.5413 8.02042 21.7898 8.40668 21.7898H11.1555C11.6912 21.7898 12.1279 21.3532 12.1279 20.8174C12.1279 20.2817 11.6912 19.845 11.1555 19.845C10.7584 19.845 10.4361 19.5227 10.4361 19.1256C10.4361 18.7286 10.7584 18.4062 11.1555 18.4062C12.4854 18.4062 13.5658 19.4876 13.5658 20.8165C13.5658 22.1455 12.4845 23.2268 11.1555 23.2268Z" fill="#002244"/>
    <path d="M9.8024 16.4191C9.40534 16.4191 9.08301 16.0967 9.08301 15.6997V13.9233C9.08301 13.5262 9.40534 13.2039 9.8024 13.2039C10.1995 13.2039 10.5218 13.5262 10.5218 13.9233V15.6997C10.5218 16.0967 10.1995 16.4191 9.8024 16.4191Z" fill="#002244"/>
    <path d="M9.8024 25.0465C9.40534 25.0465 9.08301 24.7241 9.08301 24.3271V22.5083C9.08301 22.1113 9.40534 21.7889 9.8024 21.7889C10.1995 21.7889 10.5218 22.1113 10.5218 22.5083V24.3271C10.5218 24.7241 10.1995 25.0465 9.8024 25.0465Z" fill="#002244"/>
    <path d="M26.2755 12.9059H24.0678C23 12.9059 22.1311 12.0227 22.1311 10.9359C22.1311 9.84917 23 9.00012 24.0678 9.00012H26.2755C27.0579 9.00012 27.7899 9.48182 28.097 10.1994C28.223 10.4929 28.0861 10.8315 27.7935 10.9566C27.5 11.08 27.1606 10.9467 27.0363 10.6532C26.9301 10.4056 26.6348 10.1544 26.2764 10.1544H24.0687C23.6374 10.1544 23.2872 10.5046 23.2872 10.935C23.2872 11.3915 23.6302 11.7499 24.0687 11.7499H26.2764C26.5951 11.7499 26.8535 12.0083 26.8535 12.327C26.8535 12.6457 26.5951 12.9041 26.2764 12.9041L26.2755 12.9059Z" fill="#002244"/>
    <path d="M26.2755 15.6223H24.0678C23.2854 15.6223 22.5651 15.1352 22.2752 14.4104C22.1564 14.1142 22.3013 13.7783 22.5966 13.6604C22.892 13.5424 23.2287 13.6865 23.3466 13.9818C23.461 14.2681 23.7572 14.4671 24.0678 14.4671H26.2755C26.7059 14.4671 27.0562 14.1169 27.0562 13.6865C27.0562 13.2561 26.7059 12.9059 26.2755 12.9059C25.9568 12.9059 25.6984 12.6475 25.6984 12.3287C25.6984 12.01 25.9568 11.7516 26.2755 11.7516C27.3434 11.7516 28.2113 12.6195 28.2113 13.6874C28.2113 14.7552 27.3434 15.6232 26.2755 15.6232V15.6223Z" fill="#002244"/>
    <path d="M25.1887 10.1544C24.87 10.1544 24.6116 9.89595 24.6116 9.57722V8.15013C24.6116 7.8314 24.87 7.573 25.1887 7.573C25.5074 7.573 25.7658 7.8314 25.7658 8.15013V9.57722C25.7658 9.89595 25.5074 10.1544 25.1887 10.1544Z" fill="#002244"/>
    <path d="M25.1887 17.0836C24.87 17.0836 24.6116 16.8252 24.6116 16.5065V15.0452C24.6116 14.7264 24.87 14.468 25.1887 14.468C25.5074 14.468 25.7658 14.7264 25.7658 15.0452V16.5065C25.7658 16.8252 25.5074 17.0836 25.1887 17.0836Z" fill="#002244"/>
  </g>
  <defs>
    <clipPath id="clip0_410_12324">
      <rect width="32.9211" height="29" fill="white"/>
    </clipPath>
  </defs>
</svg>