<svg xmlns="http://www.w3.org/2000/svg" width="34" height="29" viewBox="0 0 34 29" fill="none">
  <g clip-path="url(#clip0_418_13742)">
    <path d="M11.7763 10.4859C13.4549 11.5726 11.9402 14.184 10.2014 13.1709C8.46271 12.1577 10.0109 9.55632 11.7763 10.4859C12.2144 10.7166 12.6022 10.0545 12.1642 9.82382C11.0474 9.23532 9.64304 9.52957 8.98433 10.6531C8.32562 11.7765 8.72687 13.1943 9.81357 13.8329C10.9003 14.4716 12.3548 14.0904 12.9934 13.0037C13.6321 11.917 13.2208 10.5126 12.1642 9.82382C11.7496 9.55632 11.3651 10.2184 11.7763 10.4859Z" fill="#002244"/>
    <path d="M12.7261 8.86752C14.6855 10.0579 15.6852 12.4052 15.0633 14.6388C14.3845 17.0696 12.0339 18.5643 9.55956 18.3436C9.42916 18.3302 9.29207 18.4238 9.22854 18.5342L8.39595 19.9519C8.37923 19.9787 8.22208 20.1893 8.23211 20.2328C8.21539 20.1693 8.56648 20.1258 8.3157 20.1291C8.0248 20.1291 7.64027 20.3264 7.36274 20.4067C6.89463 20.5438 6.33288 20.6006 6.4031 21.2192C6.45994 21.7141 6.74416 22.2791 6.71072 22.7573L6.90131 22.4263C6.45326 22.7205 5.38327 22.6302 5.08233 23.1452C4.7814 23.6601 5.38327 24.5662 5.34649 25.0879L5.53708 24.7568C5.09237 25.0511 4.01903 24.9608 3.7181 25.4757C3.57766 25.7165 3.7181 26.0676 3.77494 26.315C3.81172 26.4722 3.91538 27.4686 4.05916 27.5388L4.06585 27.5722C4.12269 27.3047 4.11266 27.2512 4.03241 27.4151C4.04244 27.4151 3.94547 27.5388 3.92875 27.5522C3.86188 27.599 3.7181 27.6124 3.6412 27.6324L2.30705 28.0069C2.17331 28.0437 1.54135 28.3246 1.40425 28.261C1.26716 28.1975 1.22704 27.6859 1.19026 27.5421L0.879291 26.2515C0.839166 26.0876 0.715449 25.8001 0.745542 25.6396C0.802385 25.3219 1.18357 24.8906 1.34407 24.6197C2.22346 23.1218 3.09951 21.6204 3.97891 20.1225C4.65434 18.9689 5.33311 17.8119 6.00854 16.6584C6.07542 16.5447 6.08545 16.3808 6.00854 16.2705C4.55068 14.1339 4.79478 11.2449 6.74081 9.48277C8.38926 7.99147 10.8168 7.80088 12.7294 8.8809C13.1607 9.12499 13.5486 8.46293 13.1173 8.21884C10.897 6.96495 8.10505 7.21907 6.19913 8.94108C4.01569 10.9172 3.70807 14.2509 5.34649 16.6584V16.2705C3.86857 18.795 2.39065 21.3195 0.909384 23.844C0.651918 24.282 0.37439 24.7134 0.136987 25.1614C-0.100417 25.6095 0.0233006 25.984 0.136987 26.4588C0.294141 27.1141 0.397796 27.8264 0.621825 28.4617C0.936134 29.3611 1.86234 28.9331 2.51102 28.7492C3.1597 28.5653 4.33 28.4784 4.69446 27.8063C5.05893 27.1342 4.39019 26.3451 4.43031 25.6764L4.23972 26.0074C4.69112 25.7198 5.75776 25.8034 6.0587 25.2885C6.35963 24.7736 5.76445 23.8708 5.79454 23.3458L5.60395 23.6768C6.05535 23.3893 7.122 23.4729 7.42293 22.9579C7.72387 22.443 7.12868 21.5402 7.15878 21.0152L6.96819 21.3462C7.49315 21.0085 8.43942 21.1557 8.8741 20.6641C9.30878 20.1726 9.56959 19.4805 9.88725 18.9321L9.55622 19.1227C12.3683 19.3768 15.0299 17.5946 15.7989 14.8561C16.5178 12.2948 15.3576 9.58642 13.1106 8.21884C12.6893 7.96138 12.3014 8.62343 12.7227 8.8809L12.7261 8.86752Z" fill="#002244"/>
    <path d="M2.47415 25.9338C3.75145 23.7504 5.02875 21.5703 6.30939 19.3868C6.56017 18.9588 5.89811 18.5743 5.64733 18.999C4.37004 21.1824 3.09274 23.3625 1.8121 25.5459C1.56132 25.9739 2.22337 26.3585 2.47415 25.9338Z" fill="#002244"/>
    <path d="M12.5422 13.0137C9.28876 10.3989 8.99117 5.44355 12.0808 2.57464C14.7758 0.070204 19.1026 0.220671 21.6505 2.85551C23.3892 4.65443 23.9543 7.26587 23.2488 9.64659C23.1083 10.1214 23.8473 10.322 23.9877 9.85056C25.2851 5.4703 22.453 0.785758 17.9022 0.0869224C13.766 -0.548383 9.78698 2.37736 9.19848 6.53025C8.82065 9.19519 9.91069 11.8768 12.0005 13.5587C12.3817 13.8664 12.9267 13.3247 12.5422 13.017V13.0137Z" fill="#002244"/>
    <path d="M22.2994 11.6796C22.3095 11.5826 22.0319 11.917 22.0286 11.9203C21.9383 12.0307 21.8447 12.1377 21.7477 12.2413C21.5538 12.4486 21.3465 12.6492 21.1291 12.8331C20.6176 13.2645 20.0391 13.6189 19.4239 13.8797C18.1934 14.4047 16.8592 14.5518 15.5418 14.3378C15.0603 14.2609 14.8497 14.9999 15.3378 15.0768C16.9261 15.3342 18.501 15.157 19.9689 14.4749C20.6476 14.1606 21.2796 13.7326 21.8347 13.2344C22.2092 12.8967 23.0117 12.2212 23.0652 11.6829C23.1153 11.1914 22.3463 11.1947 22.2994 11.6829V11.6796Z" fill="#002244"/>
    <path d="M26.4788 22.7004C24.3488 23.6367 22.2189 24.5729 20.0889 25.5092L20.6139 25.6462C19.5305 23.1853 18.4472 20.721 17.3671 18.26C17.3036 18.1129 17.0796 18.0326 16.9325 18.0828L15.1436 18.6947L15.5783 18.8719L15.0767 17.735V18.1229C17.0428 15.254 19.0123 12.3884 20.9784 9.51953L20.5437 9.69675C23.8172 10.1615 27.0907 10.6263 30.3642 11.0911C30.3876 11.0944 30.8557 11.1847 30.8657 11.1613C30.8089 11.2783 30.6216 10.7734 30.7119 11.1446C30.742 11.2616 30.8189 11.3853 30.8657 11.499L31.1399 12.1243L31.277 11.5993L29.6185 12.5021C29.4212 12.6091 29.4012 12.8432 29.4814 13.0271C30.5648 15.4881 31.6481 17.9524 32.7282 20.4133L32.8652 19.8884C30.7353 20.8246 28.6054 21.7609 26.4754 22.6971C26.024 22.8944 26.4152 23.5564 26.8633 23.3591C28.9932 22.4229 31.1232 21.4867 33.2531 20.5504C33.4571 20.4602 33.4671 20.196 33.3902 20.0255C32.3068 17.5645 31.2235 15.1002 30.1435 12.6392L30.0064 13.1642L31.6649 12.2614C31.8621 12.1544 31.8822 11.9203 31.8019 11.7364C31.5879 11.2516 31.4709 10.5059 30.8958 10.3989C30.2137 10.2685 29.5148 10.2016 28.8294 10.1047L22.3794 9.1885L20.741 8.95445C20.557 8.9277 20.4133 8.97451 20.3063 9.13166C18.397 11.917 16.4844 14.7023 14.5752 17.4876C14.4514 17.6648 14.3277 17.7986 14.3645 18.0326C14.428 18.4372 14.739 18.8886 14.9028 19.2631C14.9664 19.4102 15.1904 19.4905 15.3375 19.4403L17.1264 18.8284L16.6917 18.6512C17.7751 21.1122 18.8584 23.5765 19.9385 26.0375C20.0287 26.2414 20.2929 26.2515 20.4634 26.1746C22.5934 25.2383 24.7233 24.3021 26.8533 23.3658C27.3047 23.1686 26.9134 22.5065 26.4654 22.7038L26.4788 22.7004Z" fill="#002244"/>
    <path d="M27.1005 18.8686C25.8099 19.437 24.5192 20.0021 23.2285 20.5705L23.7535 20.7076C23.1851 19.4169 22.62 18.1262 22.0515 16.8356L21.9144 17.3605C23.2051 16.7921 24.4958 16.227 25.7865 15.6586L25.2615 15.5215C25.8299 16.8122 26.395 18.1028 26.9634 19.3935C27.1607 19.8449 27.8228 19.4537 27.6255 19.0056C27.0571 17.715 26.492 16.4243 25.9236 15.1336C25.8333 14.9297 25.5691 14.9196 25.3986 14.9965L21.5266 16.6985C21.3226 16.7888 21.3126 17.0529 21.3895 17.2234C21.9579 18.5141 22.523 19.8048 23.0914 21.0955C23.1817 21.2994 23.4459 21.3095 23.6164 21.2326C24.9071 20.6641 26.1977 20.099 27.4884 19.5306C27.9398 19.3333 27.5486 18.6713 27.1005 18.8686Z" fill="#002244"/>
    <path d="M22.4999 12.0206C22.7741 12.2814 22.8577 12.6794 22.6102 12.9937C22.3795 13.2879 21.9281 13.3381 21.6372 13.104C20.9417 12.5456 21.8011 11.4656 22.4999 12.0206C22.8844 12.3249 23.4294 11.7832 23.0416 11.479C22.4196 10.9874 21.5369 10.9707 20.9818 11.5893C20.4268 12.2079 20.497 13.1241 21.0922 13.649C21.6874 14.174 22.6169 14.1305 23.1519 13.5387C23.6869 12.9468 23.62 12.024 23.0416 11.479C22.6838 11.1412 22.1388 11.6829 22.4999 12.0206Z" fill="#002244"/>
  </g>
  <defs>
    <clipPath id="clip0_418_13742">
      <rect width="33.4371" height="29" fill="white"/>
    </clipPath>
  </defs>
</svg>