<?xml version="1.0" encoding="utf-8"?>
<!-- Generator: Adobe Illustrator 28.2.0, SVG Export Plug-In . SVG Version: 6.00 Build 0)  -->
<svg version="1.1" id="Layer_1" xmlns="http://www.w3.org/2000/svg" xmlns:xlink="http://www.w3.org/1999/xlink" x="0px" y="0px"
	 viewBox="0 0 150 150" style="enable-background:new 0 0 150 150;" xml:space="preserve">
<style type="text/css">
	.st0{fill:none;stroke:#002244;stroke-width:3.5033;stroke-linecap:round;stroke-linejoin:round;stroke-miterlimit:10;}
</style>
<g>
	<path class="st0" d="M53.5,33.2c0.7,1.3,1.2,2.8,1.2,4.4v4.4c0,4.8-3.9,8.8-8.8,8.8s-8.8-3.9-8.8-8.8v-4.4c0-1.6,0.4-3.1,1.2-4.4"
		/>
	<path class="st0" d="M109.5,46.3v2.2c0,4.8-3.9,8.8-8.8,8.8S92,53.3,92,48.5v-2.2"/>
	<line class="st0" x1="59.1" y1="33.2" x2="32.8" y2="33.2"/>
	<path class="st0" d="M37.2,33.2c0,0,1-8.8,4.4-8.8c2.5,0,2.1,1.2,4.4,1.2c2.3,0,1.9-1.2,4.4-1.2c3.4,0,4.4,8.8,4.4,8.8"/>
	<path class="st0" d="M100.7,35.5c3.3,0,7.3,1.8,8.8,4.4c0.8,1.4,0.9,6.4,0,6.4c-1.4,0-4.7-1-6.8-3c-1.1-1-2.8-1-3.9,0
		c-2.1,2-5.4,3-6.8,3c-0.9,0-0.8-5,0-6.4C93.4,37.3,97.4,35.5,100.7,35.5z"/>
	<path class="st0" d="M95.5,36.8c-4.8-4.8-1.3-10.2,5.2-10.2c6.4,0,10,5.4,5.2,10.2"/>
	<path class="st0" d="M52.8,47.4c7.3,2.3,13.2,8.2,15.3,15.9l7.4,27.1c0.3,1,0.1,2.1-0.6,2.9c-0.6,0.8-1.6,1.3-2.6,1.3
		c-2.6,0-5-1.7-6-4.2l-7.2-19.4v32.3v21.9c0,2.4-2,4.4-4.4,4.4h-2.2c-3.6,0-6.6-2.9-6.6-6.6c0,3.6-2.9,6.6-6.6,6.6h-2.2
		c-2.4,0-4.4-2-4.4-4.4v-21.9V70.9l-7.2,19.4c-0.9,2.5-3.3,4.2-6,4.2c-1,0-2-0.5-2.6-1.3c-0.6-0.8-0.8-1.9-0.6-2.9l7.4-27.1
		c2.1-7.7,7.9-13.6,15.3-15.9"/>
	<path class="st0" d="M95.6,55.6L95.6,55.6c-7,1.6-13,6.5-15.7,13.4l-6,15.5"/>
	<path class="st0" d="M113.9,72.6l7.7,19.7c0.7,1.4,2.1,2.2,3.5,2.2c1.4,0,2.8-0.7,3.6-1.9c0.8-1.2,1-2.6,0.5-4L121.5,69
		c-2.7-6.9-8.6-11.9-15.6-13.4h0"/>
	<path class="st0" d="M87.6,72.6l-7.4,19.3c-0.8,1.6-2.5,2.6-4.2,2.6c-0.7,0-1.3-0.2-1.9-0.5"/>
	<polyline class="st0" points="113.7,83.4 120.4,118.6 100.7,118.6 89.8,118.6 81,118.6 87.7,83.4 	"/>
	<path class="st0" d="M24.1,98.9c0-2.4-2-4.4-4.4-4.4c-2.4,0-4.4,2-4.4,4.4v30.7"/>
	<path class="st0" d="M124.8,98.9c0-2.4,2-4.4,4.4-4.4c2.4,0,4.4,2,4.4,4.4v30.7"/>
	<path class="st0" d="M111.7,120.8v5.5c0,1.8-1.5,3.3-3.3,3.3h-1.1c-3.6,0-6.6-2.9-6.6-6.6v-4.4"/>
	<path class="st0" d="M89.8,120.8v5.5c0,1.8,1.5,3.3,3.3,3.3h1.1c3.6,0,6.6-2.9,6.6-6.6"/>
	<path class="st0" d="M107.2,85.5c0.5,0.1,1,0.2,1.6,0.2c4.1,0,8.2-4.9,5-13.1"/>
	<path class="st0" d="M94.1,85.5c-0.5,0.1-1,0.2-1.6,0.2c-4.1,0-8.2-4.9-5-13.1"/>
	<line class="st0" x1="46" y1="122.9" x2="46" y2="101.1"/>
</g>
</svg>
