<?xml version="1.0" encoding="UTF-8"?>
<svg id="Layer_1" data-name="Layer 1" xmlns="http://www.w3.org/2000/svg" version="1.1" viewBox="0 0 200 200">
  <defs>
    <style>
      .cls-1, .cls-2 {
        stroke: #63ce4d;
      }

      .cls-1, .cls-2, .cls-3, .cls-4, .cls-5 {
        stroke-linecap: round;
        stroke-linejoin: round;
      }

      .cls-1, .cls-2, .cls-4 {
        stroke-width: 4px;
      }

      .cls-1, .cls-3, .cls-4, .cls-5 {
        fill: none;
      }

      .cls-2 {
        fill: #fff;
      }

      .cls-3 {
        stroke-width: 4px;
      }

      .cls-3, .cls-4, .cls-5 {
        stroke: #024;
      }

      .cls-5 {
        stroke-width: 4px;
      }
    </style>
  </defs>
  <g>
    <polyline class="cls-1" points="37.7 86.5 37.7 31.2 56.7 12.2 162.9 12.2 162.9 56"/>
    <line class="cls-1" x1="162.9" y1="64.8" x2="162.9" y2="85.4"/>
    <polygon class="cls-2" points="56.7 12.2 56.7 31.2 37.7 31.2 56.7 12.2"/>
  </g>
  <g>
    <circle class="cls-2" cx="100.3" cy="63.5" r="22"/>
    <polyline class="cls-2" points="91.8 63.5 97.4 69.3 108.8 57.8"/>
  </g>
  <g>
    <rect class="cls-3" x="153.2" y="85.8" width="31.8" height="56.8" transform="translate(-28.7 64.1) rotate(-19.8)"/>
    <path class="cls-4" d="M54.9,150.6c-2.4,2.5-.8,6.2,1.7,8.6s6.5,2.3,8.9-.2c-2.4,2.5-2.3,6.5.2,8.9,2.5,2.4,6.5,2.3,8.9-.2-2.4,2.5-2.3,6.5.2,8.9s6.5,2.3,8.9-.2c-2.4,2.5-2.3,6.5.2,8.9s6.5,2.3,8.9-.2l7.7-7.8"/>
    <path class="cls-4" d="M146.6,150.3c6.4-3.5,11.6-6.7,15.5-7.8l-13.9-39.9s-4.4,15-15.7,9.9c-6.8-3.1-14.6-6.9-22.6-7.4"/>
    <g>
      <path class="cls-4" d="M103.1,167.8c-2.7,2.1-3.2,6.1-1.1,8.9l5.3,6.8c2.1,2.7,6.1,3.2,8.9,1.1,2.7-2.1,3.2-6.1,1.1-8.9l-5.3-6.8c-2.2-2.8-6.1-3.3-8.9-1.1Z"/>
      <path class="cls-4" d="M113.1,160c-2.7,2.1-3.2,6.1-1.1,8.9l5.3,6.8c2.1,2.7,6.1,3.2,8.9,1.1,2.7-2.1,3.2-6.1,1.1-8.9l-5.3-6.8c-2.2-2.8-6.2-3.3-8.9-1.1Z"/>
      <path class="cls-4" d="M123,152.2c-2.7,2.1-3.2,6.1-1.1,8.9l5.3,6.8c2.1,2.7,6.1,3.2,8.9,1.1,2.7-2.1,3.2-6.1,1.1-8.9l-5.3-6.8c-2.2-2.8-6.2-3.3-8.9-1.1Z"/>
      <path class="cls-4" d="M132.9,144.4c-2.7,2.1-3.2,6.1-1.1,8.9l5.3,6.8c2.1,2.7,6.1,3.2,8.9,1.1,2.7-2.1,3.2-6.1,1.1-8.9l-5.3-6.8c-2.2-2.8-6.1-3.2-8.9-1.1Z"/>
    </g>
    <g>
      <path class="cls-4" d="M57.4,103s4.5,5.9,20.6,1.5c7.1-1.9,15.4-6.8,23-6,7.5.8,10.2,9.9,15.1,15.1,2.8,3,10.3,6.7,8.2,11-1.8,3.7-7.5,4.9-11.2,3.8-6.7-1.9-11.9-8-17.5-11.8,0,0-24.5,32.2-36.2,33.7s-21.5-6.1-21.5-6.1l19.6-41.2Z"/>
      <rect class="cls-5" x="4.9" y="100.6" width="56.8" height="31.8" transform="translate(-86.3 97.1) rotate(-64.8)"/>
    </g>
    <line class="cls-4" x1="65.6" y1="159" x2="76.1" y2="150.4"/>
    <line class="cls-4" x1="74.7" y1="167.8" x2="85.3" y2="159.1"/>
    <line class="cls-4" x1="83.8" y1="176.5" x2="94.4" y2="167.8"/>
  </g>
</svg>