<svg width="80" height="81" viewBox="0 0 80 81" fill="none" xmlns="http://www.w3.org/2000/svg">
<circle cx="40" cy="40.019" r="40" fill="#002244"/>
<path d="M39.6836 42.0476H32.9998C32.7795 42.0476 32.5592 41.9154 32.471 41.7098C32.3682 41.5041 32.3976 41.2691 32.5298 41.0781L34.0575 39.0363C33.2936 37.9198 32.897 36.6125 32.897 35.2463C32.897 31.5005 35.9378 28.4597 39.6836 28.4597C43.4294 28.4597 46.4702 31.5005 46.4702 35.2463C46.4702 38.9922 43.4294 42.0329 39.6836 42.0329V42.0476ZM34.2044 40.8578H39.6836C42.7684 40.8578 45.2656 38.3458 45.2656 35.2757C45.2656 32.2056 42.7537 29.6937 39.6836 29.6937C36.6135 29.6937 34.1016 32.2056 34.1016 35.2757C34.1016 36.5243 34.5129 37.7142 35.2767 38.6984C35.4383 38.9187 35.4383 39.2125 35.2767 39.4182L34.2044 40.8578Z" fill="white"/>
<path d="M52.3613 37.5966H45.6776C45.3544 37.5966 45.0753 37.3322 45.0753 36.9943C45.0753 36.6564 45.3397 36.392 45.6776 36.392H51.1568L50.0844 34.9524C49.9228 34.7321 49.9228 34.4383 50.0844 34.2327C50.8483 33.2485 51.2596 32.0586 51.2596 30.81C51.2596 27.7252 48.7477 25.2279 45.6776 25.2279C43.2097 25.2279 40.9916 26.8879 40.3159 29.2529C40.2277 29.5761 39.8899 29.7523 39.5814 29.6642C39.2582 29.5761 39.0819 29.2382 39.1701 28.9297C40.0074 26.0506 42.6809 24.0381 45.6922 24.0381C49.4381 24.0381 52.4788 27.0788 52.4788 30.8247C52.4788 32.1908 52.0822 33.4835 51.3183 34.6146L52.8461 36.6564C52.9783 36.8327 53.0076 37.0824 52.9048 37.2881C52.802 37.4937 52.5963 37.626 52.376 37.626L52.3613 37.5966Z" fill="white"/>
<path d="M51.7302 39.9175C53.3167 39.9175 54.6093 41.2102 54.6093 42.7967V44.8679C54.6093 46.4544 53.3167 47.7471 51.7302 47.7471C50.1437 47.7471 48.851 46.4544 48.851 44.8679V42.7967C48.851 41.2102 50.1437 39.9175 51.7302 39.9175ZM51.7302 38.7277C49.4827 38.7277 47.6465 40.5639 47.6465 42.8114V44.8826C47.6465 47.1301 49.4827 48.9663 51.7302 48.9663C53.9777 48.9663 55.8139 47.1301 55.8139 44.8826V42.8114C55.8139 40.5639 53.9777 38.7277 51.7302 38.7277Z" fill="white"/>
<path d="M55.3577 48.8634C57.2673 48.8634 58.8244 50.4205 58.8244 52.3302V54.563C58.8244 54.989 58.4866 55.3268 58.0606 55.3268H45.3834C44.9574 55.3268 44.6196 54.989 44.6196 54.563V52.3302C44.6196 50.4205 46.1767 48.8634 48.0863 48.8634H55.3577ZM55.3577 47.6736H48.0863C45.5157 47.6736 43.415 49.7595 43.415 52.3448V54.5777C43.415 55.6647 44.2964 56.5314 45.3688 56.5314H58.0459C59.1329 56.5314 59.9996 55.65 59.9996 54.5777V52.3448C59.9996 49.7742 57.9137 47.6736 55.3283 47.6736H55.3577Z" fill="white"/>
<path d="M49.8493 43.0023C49.482 43.0023 49.0854 42.9435 48.6447 42.7966C48.3363 42.6938 48.16 42.3559 48.2628 42.0328C48.3656 41.7243 48.7035 41.548 49.0267 41.6508C50.5838 42.165 51.5973 41.0192 51.6414 40.9751C51.7442 40.8576 51.9058 40.7695 52.0674 40.7695C52.229 40.7695 52.3906 40.8135 52.5081 40.9311C52.5375 40.9457 53.2279 41.5627 54.5353 41.4452C54.8584 41.4011 55.1522 41.6508 55.1816 41.9887C55.211 42.3266 54.9759 42.6057 54.6381 42.635C53.4776 42.7526 52.6256 42.4147 52.1408 42.1356C51.7002 42.5028 50.8922 43.0023 49.8346 43.0023H49.8493Z" fill="white"/>
<path d="M28.2985 39.9175C29.885 39.9175 31.1777 41.2102 31.1777 42.7967V44.8679C31.1777 46.4544 29.885 47.7471 28.2985 47.7471C26.7121 47.7471 25.4194 46.4544 25.4194 44.8679V42.7967C25.4194 41.2102 26.7121 39.9175 28.2985 39.9175ZM28.2985 38.7277C26.051 38.7277 24.2148 40.5639 24.2148 42.8114V44.8826C24.2148 47.1301 26.051 48.9663 28.2985 48.9663C30.5461 48.9663 32.3822 47.1301 32.3822 44.8826V42.8114C32.3822 40.5639 30.5461 38.7277 28.2985 38.7277Z" fill="white"/>
<path d="M31.9426 48.8634C33.8523 48.8634 35.4094 50.4205 35.4094 52.3302V54.563C35.4094 54.989 35.0715 55.3268 34.6455 55.3268H21.9537C21.5277 55.3268 21.1899 54.989 21.1899 54.563V52.3302C21.1899 50.4205 22.747 48.8634 24.6566 48.8634H31.9279M31.9279 47.6736H24.6713C22.1006 47.6736 20 49.7595 20 52.3448V54.5777C20 55.6647 20.8814 56.5314 21.9537 56.5314H34.6308C35.7179 56.5314 36.5845 55.65 36.5845 54.5777V52.3448C36.5845 49.7742 34.4986 47.6736 31.9132 47.6736H31.9279Z" fill="white"/>
<path d="M26.4333 43.0024C26.066 43.0024 25.6694 42.9437 25.2287 42.7968C24.9202 42.6939 24.744 42.3561 24.8468 42.0329C24.9496 41.7244 25.2875 41.5481 25.6106 41.651C27.1971 42.1798 28.2107 40.9899 28.2254 40.9752C28.3282 40.843 28.4898 40.7696 28.6514 40.7549C28.813 40.7402 28.9746 40.799 29.0921 40.9165C29.1215 40.9312 29.8119 41.5481 31.1192 41.4306C31.4571 41.3866 31.7362 41.6363 31.7656 41.9741C31.795 42.312 31.5599 42.5911 31.2221 42.6205C30.0616 42.7233 29.2096 42.4001 28.7248 42.121C28.2841 42.4883 27.4762 42.9877 26.4186 42.9877L26.4333 43.0024Z" fill="white"/>
</svg>
