<svg width="80" height="81" viewBox="0 0 80 81" fill="none" xmlns="http://www.w3.org/2000/svg">
<circle cx="40" cy="40.019" r="40" fill="#002244"/>
<path d="M59.3237 25.3001C51.6779 25.3001 45.528 22.5605 40.513 16.915C40.5015 16.9035 40.49 16.8978 40.4843 16.8863C40.4728 16.8749 40.4671 16.8634 40.4556 16.8577C40.4499 16.8519 40.4385 16.8462 40.4327 16.8405C40.4155 16.8233 40.3926 16.8118 40.3754 16.8004C40.3582 16.7889 40.341 16.7774 40.3181 16.766C40.3009 16.7545 40.278 16.7488 40.255 16.7373C40.2321 16.7316 40.2149 16.7201 40.192 16.7144C40.1691 16.7087 40.1519 16.7029 40.129 16.6972C40.106 16.6972 40.0831 16.6915 40.0602 16.6857C40.0372 16.6857 40.0201 16.6857 39.9971 16.6857C39.9742 16.6857 39.9513 16.6857 39.9341 16.6857C39.9112 16.6857 39.894 16.6915 39.871 16.6972C39.8481 16.6972 39.8309 16.7029 39.808 16.7144C39.7851 16.7201 39.7679 16.7259 39.7449 16.7373C39.722 16.743 39.7048 16.7545 39.6819 16.766C39.6647 16.7774 39.6418 16.7889 39.6246 16.8004C39.6074 16.8118 39.5845 16.829 39.5673 16.8405C39.5615 16.8462 39.5501 16.8519 39.5443 16.8577C39.5329 16.8691 39.5271 16.8806 39.5157 16.8863C39.5042 16.8921 39.4928 16.9035 39.487 16.915C34.4777 22.5605 28.3221 25.3001 20.682 25.3001C20.3038 25.3001 20 25.6039 20 25.9822V43.595C20 52.1922 30.5574 58.1587 37.5498 62.1134C38.3063 62.5376 39.017 62.9445 39.659 63.3171C39.6762 63.3285 39.6934 63.3342 39.7106 63.3457C39.722 63.3457 39.7277 63.3572 39.7392 63.3572C39.7507 63.3572 39.7679 63.3686 39.7793 63.3686C39.7965 63.3686 39.808 63.3801 39.8252 63.3858C39.8825 63.403 39.9398 63.4088 39.9971 63.4088C40.0544 63.4088 40.1118 63.403 40.1691 63.3858C40.1691 63.3858 40.1977 63.3744 40.2149 63.3686C40.2264 63.3686 40.2436 63.3629 40.255 63.3572C40.2665 63.3572 40.2722 63.3457 40.2837 63.3457C40.3009 63.34 40.3181 63.3285 40.3353 63.3171C40.9772 62.9445 41.6936 62.5376 42.4445 62.1134C49.4311 58.1645 59.9943 52.1922 59.9943 43.595V25.9822C59.9943 25.6039 59.6905 25.3001 59.3122 25.3001H59.3237ZM58.6416 43.595C58.6416 51.4013 48.4969 57.1328 41.7853 60.927C41.1549 61.2824 40.5588 61.6205 40.0029 61.9415C39.4469 61.6205 38.8508 61.2824 38.2204 60.927C31.5088 57.1328 21.3641 51.3956 21.3641 43.595V26.6528C28.8494 26.498 34.9649 23.787 40.0029 18.3765C45.0466 23.787 51.1563 26.498 58.6416 26.6528V43.595Z" fill="white"/>
<path d="M27.3242 40.5621C27.3242 47.5545 33.0099 53.2402 40.0023 53.2402C46.9947 53.2402 52.6803 47.5545 52.6803 40.5621C52.6803 33.5697 46.9947 27.8841 40.0023 27.8841C33.0099 27.8841 27.3242 33.5697 27.3242 40.5621ZM51.3219 40.5621C51.3219 46.8037 46.2438 51.8818 40.0023 51.8818C33.7607 51.8818 28.6826 46.8037 28.6826 40.5621C28.6826 34.3205 33.7607 29.2425 40.0023 29.2425C46.2438 29.2425 51.3219 34.3205 51.3219 40.5621Z" fill="white"/>
<path d="M39.1894 32.0796V33.6385C36.788 33.8621 35.1602 35.2892 35.1602 37.2494C35.1488 39.1923 36.7134 40.7112 39.1894 41.227V46.3051C37.8082 46.1274 36.5243 45.411 36.5186 44.0584C36.5186 43.6858 36.2148 43.382 35.8365 43.382C35.4583 43.382 35.1602 43.6915 35.1602 44.0641C35.166 46.03 36.7937 47.4457 39.1952 47.6749V47.9844C39.1952 47.9844 39.1952 48.0131 39.1952 48.0303V49.2339C39.1952 49.6122 39.4989 49.9159 39.8772 49.9159C40.2555 49.9159 40.5593 49.6122 40.5593 49.2339V47.6864C40.5593 47.6864 40.5593 47.6806 40.5593 47.6749C41.5852 47.5775 42.485 47.2622 43.19 46.7407C44.0899 46.0758 44.5885 45.1244 44.5885 44.0641C44.6 42.1211 43.0353 40.6023 40.5535 40.0807V35.0026C41.9406 35.1746 43.2244 35.8967 43.2301 37.2494C43.2301 37.6219 43.5339 37.9257 43.9122 37.9257C44.2905 37.9257 44.5885 37.6162 44.5885 37.2436C44.5828 35.2777 42.9493 33.8563 40.5535 33.6328V32.0738C40.5535 31.6956 40.2498 31.3918 39.8715 31.3918C39.4932 31.3918 39.1894 31.6956 39.1894 32.0738V32.0796ZM36.5243 37.2551C36.5243 36.0744 37.5904 35.2032 39.1894 35.0083V39.8343C37.5216 39.4159 36.5186 38.4644 36.5243 37.2494V37.2551ZM43.2244 44.0698C43.2244 44.8665 42.7659 45.3709 42.3762 45.6574C41.9062 46.0013 41.2757 46.2306 40.5535 46.3166V41.4906C42.2271 41.909 43.2301 42.8605 43.2244 44.0755V44.0698Z" fill="white"/>
</svg>
