<svg width="80" height="81" viewBox="0 0 80 81" fill="none" xmlns="http://www.w3.org/2000/svg">
<circle cx="40" cy="40.019" r="40" fill="#002244"/>
<path d="M28.966 56.1465C28.858 56.1465 28.75 56.1285 28.642 56.0565C28.426 55.9305 28.2821 55.7145 28.2821 55.4625V50.4409H27.6701C25.2763 50.4409 23.3145 48.4971 23.3145 46.0853V28.3747C23.3325 25.9629 25.2763 24.019 27.6881 24.019H52.3102C54.704 24.019 56.6658 25.9629 56.6658 28.3747V46.1033C56.6658 48.4971 54.722 50.4589 52.3102 50.4589H38.0013L29.344 56.0565C29.236 56.1285 29.11 56.1645 28.984 56.1645L28.966 56.1465ZM27.6881 25.3689C26.0322 25.3689 24.6823 26.7188 24.6823 28.3747V46.1033C24.6823 47.7591 26.0322 49.109 27.6881 49.109H28.966C29.344 49.109 29.65 49.415 29.65 49.793V54.2566L37.4253 49.235C37.5333 49.163 37.6593 49.127 37.7853 49.127H52.3102C53.966 49.127 55.3159 47.7771 55.3159 46.1213V28.3747C55.3159 26.7188 53.966 25.3689 52.3102 25.3689H27.6881Z" fill="white"/>
<path d="M50.2762 34.8002H38.3072C38.0732 34.8002 37.8752 34.4942 37.8752 34.1162C37.8752 33.7383 38.0732 33.4323 38.3072 33.4323H50.2762C50.5102 33.4323 50.7082 33.7383 50.7082 34.1162C50.7082 34.4942 50.5102 34.8002 50.2762 34.8002Z" fill="white"/>
<path d="M50.2762 38.4179H38.3072C38.0732 38.4179 37.8752 38.1119 37.8752 37.734C37.8752 37.356 38.0732 37.05 38.3072 37.05H50.2762C50.5102 37.05 50.7082 37.356 50.7082 37.734C50.7082 38.1119 50.5102 38.4179 50.2762 38.4179Z" fill="white"/>
<path d="M50.2762 42.0716H38.3072C38.0732 42.0716 37.8752 41.7656 37.8752 41.3877C37.8752 41.0097 38.0732 40.7037 38.3072 40.7037H50.2762C50.5102 40.7037 50.7082 41.0097 50.7082 41.3877C50.7082 41.7656 50.5102 42.0716 50.2762 42.0716Z" fill="white"/>
<path d="M35.2481 32.4604C35.968 33.1263 36.328 34.0262 36.328 35.1421C36.328 36.384 35.95 37.32 35.1761 37.9139C34.4021 38.5079 33.3582 38.8139 32.0443 38.8139L31.9903 40.5057H30.5864L30.5144 37.6799H31.0364C32.2063 37.6799 33.1422 37.5 33.8082 37.14C34.4741 36.78 34.7981 36.1141 34.7981 35.1242C34.7981 34.4042 34.5821 33.8463 34.1502 33.4323C33.7182 33.0183 33.1422 32.8023 32.4223 32.8023C31.7023 32.8023 31.1084 33.0003 30.6764 33.3963C30.2625 33.7923 30.0465 34.3322 30.0465 35.0342H28.5166C28.5166 34.3142 28.6786 33.7023 29.0026 33.1443C29.3265 32.6044 29.7765 32.1904 30.3705 31.8844C30.9644 31.5964 31.6304 31.4344 32.4043 31.4344C33.5742 31.4344 34.5281 31.7584 35.2661 32.4244L35.2481 32.4604ZM30.4784 43.8354C30.2625 43.6195 30.1545 43.3675 30.1545 43.0435C30.1545 42.7195 30.2625 42.4676 30.4784 42.2516C30.6944 42.0356 30.9464 41.9276 31.2704 41.9276C31.5944 41.9276 31.8283 42.0356 32.0263 42.2516C32.2243 42.4676 32.3323 42.7195 32.3323 43.0435C32.3323 43.3675 32.2243 43.6195 32.0263 43.8354C31.8283 44.0514 31.5584 44.1594 31.2704 44.1594C30.9824 44.1594 30.6944 44.0514 30.4784 43.8354Z" fill="white"/>
</svg>
