<svg xmlns="http://www.w3.org/2000/svg" width="30" height="29" viewBox="0 0 30 29" fill="none">
  <g clip-path="url(#clip0_418_13799)">
    <path d="M12.528 28.1561H1.0643C1.0411 28.1561 1.015 28.1561 0.9918 28.1561C0.986 28.1561 0.9831 28.1561 0.9773 28.1561C0.9715 28.1561 0.9686 28.1561 0.9628 28.1561C0.8642 28.1561 1.0382 28.1764 0.9715 28.159C0.9541 28.1532 0.8439 28.1184 0.9164 28.1474C0.9889 28.1764 0.9048 28.1358 0.8903 28.1271C0.8352 28.0981 0.9164 28.1474 0.9222 28.1532C0.9164 28.1445 0.8961 28.1329 0.8903 28.1242C0.8787 28.1126 0.8178 28.0401 0.8671 28.101C0.9193 28.1648 0.8526 28.0604 0.8439 28.0517C0.8439 28.0517 0.8729 28.1387 0.8642 28.101C0.8613 28.0865 0.8555 28.072 0.8497 28.0575C0.8468 28.0459 0.8439 28.0343 0.841 28.0256C0.8236 27.9618 0.8497 28.0633 0.8468 28.0691C0.8497 28.0575 0.8468 28.0314 0.8468 28.0227C0.8468 28.0111 0.8468 28.0024 0.8468 27.9908C0.8468 27.8168 0.8468 27.6399 0.8468 27.4659V12.7368C0.8468 12.5802 0.8468 12.4236 0.8468 12.2641C0.8468 12.2612 0.8468 12.2554 0.8468 12.2525C0.8468 12.2496 0.8468 12.2467 0.8468 12.2409C0.8468 12.2206 0.8555 12.1684 0.8439 12.2409C0.8323 12.3192 0.8439 12.2409 0.8497 12.2293C0.8555 12.2119 0.8874 12.122 0.8584 12.1945C0.8323 12.2641 0.87 12.1858 0.8787 12.1684C0.9077 12.1133 0.8584 12.1945 0.8526 12.2003C0.8613 12.1945 0.8729 12.1742 0.8816 12.1684C0.8903 12.1626 0.899 12.1539 0.9048 12.1452C0.9541 12.093 0.9048 12.1568 0.8787 12.1626C0.8961 12.1597 0.9309 12.1365 0.9454 12.122C0.9831 12.0901 0.8555 12.151 0.9048 12.1394C0.9193 12.1365 0.9338 12.1307 0.9483 12.1249C0.9599 12.122 0.9715 12.1191 0.9802 12.1162C1.044 12.0988 0.9425 12.1249 0.9367 12.122C0.9454 12.1249 0.9773 12.122 0.9831 12.122C1.0237 12.122 1.0672 12.122 1.1078 12.122H9.3467C9.9035 12.122 10.4603 12.122 11.02 12.122H12.4555C12.4787 12.122 12.499 12.122 12.5222 12.122C12.5251 12.122 12.5309 12.122 12.5338 12.122C12.5802 12.122 12.615 12.1452 12.5135 12.1133C12.5396 12.122 12.5657 12.1249 12.5889 12.1307C12.6005 12.1307 12.6092 12.1394 12.6208 12.1423C12.5338 12.1307 12.5512 12.1075 12.5889 12.1336C12.6005 12.1423 12.6121 12.151 12.6266 12.1568C12.6614 12.1713 12.586 12.1249 12.586 12.122C12.6005 12.1423 12.6295 12.1655 12.6498 12.1829C12.6991 12.2293 12.6005 12.1017 12.6411 12.1771C12.6469 12.1887 12.6527 12.2032 12.6614 12.2148C12.6846 12.2438 12.6295 12.1162 12.6498 12.1858C12.6556 12.2119 12.6643 12.2351 12.6701 12.2612C12.6817 12.3134 12.6643 12.1626 12.6643 12.2177C12.6643 12.2293 12.6643 12.2409 12.6643 12.2525C12.6643 12.2641 12.6643 12.2757 12.6643 12.2873V27.8574C12.6643 27.9067 12.6643 27.956 12.6643 28.0053C12.6643 28.0082 12.6643 28.014 12.6643 28.0169C12.6643 27.9792 12.6643 28.0633 12.6643 28.0517C12.6643 28.0952 12.673 27.9966 12.673 27.9966C12.6643 28.0227 12.6585 28.0546 12.6498 28.0836C12.6382 28.1271 12.6208 28.0923 12.6672 28.043C12.6614 28.0488 12.6585 28.0633 12.6527 28.072C12.644 28.0836 12.6353 28.0952 12.6295 28.1097C12.615 28.1445 12.6614 28.0691 12.6643 28.0691C12.644 28.0836 12.6208 28.1155 12.6034 28.1329C12.557 28.1822 12.6846 28.0836 12.6092 28.1242C12.5976 28.13 12.5831 28.1358 12.5715 28.1445C12.5425 28.1677 12.6179 28.1242 12.6208 28.1242C12.5947 28.1242 12.5599 28.1445 12.5338 28.1503C12.5193 28.1532 12.4758 28.1619 12.5454 28.1503C12.6237 28.1387 12.5454 28.1474 12.5309 28.1503C12.3105 28.1561 12.0988 28.3417 12.1075 28.5737C12.1162 28.8057 12.2931 29 12.5309 28.9971C13.0732 28.9855 13.4995 28.5563 13.5082 28.014C13.5082 27.9705 13.5082 27.9241 13.5082 27.8806V12.4526C13.5082 12.3946 13.5082 12.3337 13.5082 12.2757C13.5082 11.9248 13.34 11.6087 13.0442 11.4202C12.7803 11.252 12.4787 11.2752 12.1829 11.2752H1.0875C1.0353 11.2752 0.9831 11.2752 0.9309 11.2752C0.4089 11.3129 0.0087 11.7305 0.0029 12.2583C0 12.4091 0 12.557 0 12.7049V27.4978C0 27.666 0 27.8342 0 28.0024C0 28.3591 0.1827 28.7071 0.5017 28.8782C0.6728 28.9681 0.8555 29 1.0469 29H12.5251C12.7455 29 12.9572 28.8057 12.9485 28.5766C12.9398 28.3475 12.7629 28.1532 12.5251 28.1532L12.528 28.1561Z" fill="#002244"/>
    <path d="M0.423659 17.6436H12.5689C12.7342 17.6436 12.8995 17.6436 13.0619 17.6436C13.0677 17.6436 13.0764 17.6436 13.0822 17.6436C13.3026 17.6436 13.5143 17.4493 13.5056 17.2202C13.4969 16.9911 13.32 16.7968 13.0822 16.7968H0.936959C0.771659 16.7968 0.606359 16.7968 0.443959 16.7968C0.438159 16.7968 0.429459 16.7968 0.423659 16.7968C0.203259 16.7968 -0.00844078 16.9911 0.000259217 17.2202C0.00895922 17.4493 0.185859 17.6436 0.423659 17.6436Z" fill="#002244"/>
    <path d="M0.423659 21.9211H12.5689C12.7342 21.9211 12.8995 21.9211 13.0619 21.9211C13.0677 21.9211 13.0764 21.9211 13.0822 21.9211C13.3026 21.9211 13.5143 21.7268 13.5056 21.4977C13.4969 21.2686 13.32 21.0743 13.0822 21.0743H0.936959C0.771659 21.0743 0.606359 21.0743 0.443959 21.0743C0.438159 21.0743 0.429459 21.0743 0.423659 21.0743C0.203259 21.0743 -0.00844078 21.2686 0.000259217 21.4977C0.00895922 21.7268 0.185859 21.9211 0.423659 21.9211Z" fill="#002244"/>
    <path d="M0.42363 25.6157H7.72293C8.05933 25.6157 8.39573 25.6215 8.73213 25.6157C8.73793 25.6157 8.74083 25.6157 8.74663 25.6157C8.96703 25.6157 9.17873 25.4214 9.17003 25.1923C9.16133 24.9632 8.98443 24.7689 8.74663 24.7689H1.44443C1.10803 24.7689 0.77163 24.7631 0.43523 24.7689C0.42943 24.7689 0.42653 24.7689 0.42073 24.7689C0.20033 24.7689 -0.0113705 24.9632 -0.00267047 25.1923C0.00602953 25.4214 0.18293 25.6157 0.42073 25.6157H0.42363Z" fill="#002244"/>
    <path d="M1.76074 13.5749V15.4512C1.76074 15.6716 1.95504 15.8833 2.18414 15.8746C2.41324 15.8659 2.60754 15.689 2.60754 15.4512V13.5749C2.60754 13.3545 2.41324 13.1428 2.18414 13.1515C1.95504 13.1602 1.76074 13.3371 1.76074 13.5749Z" fill="#002244"/>
    <path d="M4.15869 17.2231V28.1184C4.15869 28.2663 4.15869 28.4113 4.15869 28.5592C4.15869 28.565 4.15869 28.5708 4.15869 28.5795C4.15869 28.7999 4.35299 29.0116 4.58209 29.0029C4.81119 28.9942 5.00549 28.8173 5.00549 28.5795V17.6842C5.00549 17.5363 5.00549 17.3913 5.00549 17.2434C5.00549 17.2376 5.00549 17.2318 5.00549 17.2231C5.00549 17.0027 4.81119 16.791 4.58209 16.7997C4.35299 16.8084 4.15869 16.9853 4.15869 17.2231Z" fill="#002244"/>
    <path d="M8.32324 17.2231V28.1184C8.32324 28.2663 8.32324 28.4113 8.32324 28.5592C8.32324 28.565 8.32324 28.5708 8.32324 28.5795C8.32324 28.7999 8.51754 29.0116 8.74664 29.0029C8.97574 28.9942 9.17004 28.8173 9.17004 28.5795V17.6842C9.17004 17.5363 9.17004 17.3913 9.17004 17.2434C9.17004 17.2376 9.17004 17.2318 9.17004 17.2231C9.17004 17.0027 8.97574 16.791 8.74664 16.7997C8.51754 16.8084 8.32324 16.9853 8.32324 17.2231Z" fill="#002244"/>
    <path d="M16.5011 28.9826H27.5385C28.0489 28.9826 28.5622 28.9971 29.0697 28.9826C29.0755 28.9826 29.0842 28.9826 29.09 28.9826C29.3191 28.9826 29.5134 28.7883 29.5134 28.5592V8.7812C29.5134 8.4158 29.5134 8.0504 29.5134 7.685C29.5105 6.96 29.1306 6.2727 28.5013 5.9073C28.0402 5.6405 27.5501 5.6318 27.0397 5.6318C25.9377 5.6318 24.8328 5.6318 23.7308 5.6318H23.4669L23.8903 6.0552V2.2301C23.8903 1.8734 23.8526 1.5341 23.7047 1.2006C23.4495 0.623503 22.8956 0.171104 22.2721 0.0493036C21.9531 -0.0115964 21.6283 0.00580358 21.3064 0.00580358H12.3251C11.3652 0.00580358 10.4024 -0.00869642 9.44249 0.00580358C9.42799 0.00580358 9.41349 0.00580358 9.39899 0.00580358C9.16989 0.00580358 8.97559 0.200104 8.97559 0.429204V8.7377C8.97559 8.9581 9.16989 9.1698 9.39899 9.1611C9.62809 9.1524 9.82239 8.9755 9.82239 8.7377V0.429204L9.39899 0.852604H20.8917C21.1991 0.852604 21.5036 0.852604 21.811 0.852604C21.8371 0.852604 21.8632 0.852604 21.8893 0.852604C21.927 0.852604 21.9676 0.855504 22.0053 0.858404C22.1271 0.867104 21.927 0.835204 22.043 0.864204C22.1039 0.878704 22.1648 0.890304 22.2257 0.910604C22.2605 0.922204 22.2953 0.933804 22.3301 0.948304C22.2431 0.913504 22.3533 0.959904 22.3649 0.965704C22.4316 1.0005 22.4896 1.0382 22.5534 1.0788C22.652 1.1397 22.4983 1.0237 22.5853 1.102C22.6114 1.1252 22.6404 1.1484 22.6665 1.1745C22.71 1.218 22.7506 1.2615 22.7912 1.3079C22.8666 1.3949 22.7535 1.2412 22.8144 1.3398C22.8347 1.3717 22.855 1.4007 22.8724 1.4326C22.8869 1.4587 22.9043 1.4848 22.9159 1.5138C22.9246 1.5312 22.9768 1.6501 22.942 1.5631C22.9681 1.6327 22.9913 1.7052 23.0087 1.7777C23.0145 1.8009 23.0174 1.827 23.0261 1.8502C23.0551 1.9662 23.0261 1.769 23.0319 1.8879C23.0348 1.9459 23.0377 2.001 23.0406 2.059C23.0493 3.3495 23.0406 4.64 23.0406 5.9334V6.0581C23.0406 6.2872 23.2349 6.4815 23.464 6.4815H26.2654C26.6598 6.4815 27.0571 6.4815 27.4515 6.4815C27.4602 6.4815 27.4689 6.4815 27.4747 6.4815C27.5008 6.4815 27.5269 6.4815 27.553 6.4815C27.5791 6.4815 27.6052 6.4844 27.6313 6.4873C27.7125 6.4931 27.6023 6.4815 27.6516 6.4902C27.756 6.5134 27.8575 6.5395 27.9561 6.5772C27.8749 6.5453 28.0025 6.6033 28.0228 6.612C28.0721 6.6381 28.1185 6.6671 28.1649 6.6961C28.1736 6.7019 28.2374 6.7483 28.1968 6.7164C28.1475 6.6787 28.2403 6.7541 28.2403 6.7512C28.278 6.7831 28.3128 6.8179 28.3447 6.8527C28.3766 6.8875 28.4114 6.9252 28.4404 6.9629C28.3882 6.8962 28.4781 7.0238 28.4897 7.0412C28.5158 7.0818 28.539 7.1253 28.5593 7.1688C28.568 7.1891 28.5999 7.2645 28.568 7.1862C28.5767 7.2094 28.5854 7.2326 28.5941 7.2558C28.6115 7.3022 28.6231 7.3515 28.6347 7.4008C28.6405 7.424 28.6463 7.4501 28.6521 7.4733C28.6695 7.5516 28.6521 7.4414 28.6579 7.4936C28.6898 7.8126 28.6666 8.1461 28.6666 8.468V27.2658C28.6666 27.6805 28.6579 28.0952 28.6666 28.5099C28.6666 28.5273 28.6666 28.5447 28.6666 28.565L29.09 28.1416H18.0526C17.5422 28.1416 17.0289 28.1271 16.5214 28.1416C16.5156 28.1416 16.5069 28.1416 16.5011 28.1416C16.2807 28.1416 16.069 28.3359 16.0777 28.565C16.0864 28.7941 16.2633 28.9884 16.5011 28.9884V28.9826Z" fill="#002244"/>
    <path d="M24.8852 3.5206C25.2564 3.8744 25.6276 4.2311 26.0017 4.5849C26.5933 5.1504 27.1878 5.7159 27.7794 6.2814C27.9157 6.4119 28.052 6.5424 28.1883 6.67C28.3478 6.8237 28.6291 6.8411 28.7857 6.67C28.9423 6.4989 28.9568 6.235 28.7857 6.0726C28.4145 5.7188 28.0433 5.3621 27.6692 5.0083C27.0776 4.4428 26.4831 3.8773 25.8915 3.3118C25.7552 3.1813 25.6189 3.0508 25.4826 2.9232C25.3231 2.7695 25.0418 2.7521 24.8852 2.9232C24.7286 3.0943 24.7141 3.3582 24.8852 3.5206Z" fill="#002244"/>
    <path d="M18.7226 16.1095C18.7226 16.1733 18.7168 16.24 18.711 16.3038L18.7255 16.1907C18.7081 16.3212 18.6733 16.4488 18.6211 16.5706L18.6646 16.4691C18.6269 16.5532 18.5834 16.6344 18.5312 16.7127C18.5254 16.7214 18.4964 16.7736 18.4877 16.7736C18.4964 16.7736 18.5631 16.6779 18.508 16.7446C18.479 16.7794 18.4471 16.8142 18.4152 16.8461C18.3833 16.878 18.3485 16.9099 18.3137 16.9389C18.2876 16.9592 18.2325 16.9911 18.3427 16.9186C18.3224 16.9331 18.3021 16.9476 18.2818 16.9621C18.2064 17.0143 18.1252 17.0578 18.0382 17.0955L18.1397 17.052C18.0179 17.1042 17.8903 17.139 17.7598 17.1564L17.8729 17.1419C17.7424 17.1593 17.6148 17.1593 17.4843 17.1419L17.5974 17.1564C17.4669 17.139 17.3393 17.1042 17.2175 17.052L17.319 17.0955C17.2349 17.0578 17.1537 17.0143 17.0754 16.9621C17.0667 16.9563 17.0145 16.9273 17.0145 16.9186C17.0145 16.9273 17.1102 16.994 17.0435 16.9389C17.0087 16.9099 16.9739 16.878 16.942 16.8461C16.9101 16.8142 16.8782 16.7794 16.8492 16.7446C16.8289 16.7185 16.797 16.6634 16.8695 16.7736C16.855 16.7533 16.8405 16.733 16.826 16.7127C16.7738 16.6373 16.7303 16.5561 16.6926 16.4691L16.7361 16.5706C16.6839 16.4488 16.6491 16.3212 16.6317 16.1907L16.6462 16.3038C16.6288 16.1733 16.6288 16.0457 16.6462 15.9152L16.6317 16.0283C16.6491 15.8978 16.6839 15.7702 16.7361 15.6484L16.6926 15.7499C16.7303 15.6658 16.7738 15.5846 16.826 15.5063C16.8318 15.4976 16.8608 15.4454 16.8695 15.4454C16.8608 15.4454 16.7941 15.5411 16.8492 15.4744C16.8782 15.4396 16.9101 15.4048 16.942 15.3729C16.9739 15.341 17.0087 15.3091 17.0435 15.2801C17.0696 15.2598 17.1247 15.2279 17.0145 15.3004C17.0348 15.2859 17.0551 15.2714 17.0754 15.2569C17.1508 15.2047 17.232 15.1612 17.319 15.1235L17.2175 15.167C17.3393 15.1148 17.4669 15.08 17.5974 15.0626L17.4843 15.0771C17.6148 15.0597 17.7424 15.0597 17.8729 15.0771L17.7598 15.0626C17.8903 15.08 18.0179 15.1148 18.1397 15.167L18.0382 15.1235C18.1223 15.1612 18.2035 15.2047 18.2818 15.2569C18.2905 15.2627 18.3427 15.2917 18.3427 15.3004C18.3427 15.2917 18.247 15.225 18.3137 15.2801C18.3485 15.3091 18.3833 15.341 18.4152 15.3729C18.4471 15.4048 18.479 15.4396 18.508 15.4744C18.5283 15.5005 18.5602 15.5556 18.4877 15.4454C18.5022 15.4657 18.5167 15.486 18.5312 15.5063C18.5834 15.5817 18.6269 15.6629 18.6646 15.7499L18.6211 15.6484C18.6733 15.7702 18.7081 15.8978 18.7255 16.0283L18.711 15.9152C18.7197 15.979 18.7226 16.0428 18.7226 16.1095C18.7226 16.3299 18.9169 16.5416 19.146 16.5329C19.3751 16.5242 19.5694 16.3473 19.5694 16.1095C19.5694 15.7354 19.4563 15.3468 19.2359 15.0423C18.9981 14.7117 18.6878 14.4739 18.3079 14.3318C17.6003 14.0679 16.7274 14.2999 16.2489 14.8857C15.9879 15.2047 15.8342 15.573 15.7994 15.9848C15.7675 16.3589 15.8661 16.7591 16.0604 17.081C16.2547 17.4029 16.5331 17.6639 16.8666 17.8147C17.2494 17.9887 17.6554 18.038 18.0701 17.9597C18.798 17.8205 19.4215 17.1854 19.5346 16.4488C19.552 16.3386 19.5665 16.2255 19.5665 16.1153C19.5665 15.8949 19.3722 15.6832 19.1431 15.6919C18.914 15.7006 18.7226 15.8775 18.7197 16.1153L18.7226 16.1095Z" fill="#002244"/>
    <path d="M23.1186 21.5093C23.1186 21.5731 23.1128 21.6398 23.107 21.7036L23.1215 21.5905C23.1041 21.721 23.0693 21.8486 23.0171 21.9704L23.0606 21.8689C23.0229 21.953 22.9794 22.0342 22.9272 22.1125C22.9214 22.1212 22.8924 22.1734 22.8837 22.1734C22.8924 22.1734 22.9591 22.0777 22.904 22.1444C22.875 22.1792 22.8431 22.214 22.8112 22.2459C22.7793 22.2778 22.7445 22.3097 22.7097 22.3387C22.6836 22.359 22.6285 22.3909 22.7387 22.3184C22.7184 22.3329 22.6981 22.3474 22.6778 22.3619C22.6024 22.4141 22.5212 22.4576 22.4342 22.4953L22.5357 22.4518C22.4139 22.504 22.2863 22.5388 22.1558 22.5562L22.2689 22.5417C22.1384 22.5591 22.0108 22.5591 21.8803 22.5417L21.9934 22.5562C21.8629 22.5388 21.7353 22.504 21.6135 22.4518L21.715 22.4953C21.6309 22.4576 21.5497 22.4141 21.4714 22.3619C21.4627 22.3561 21.4105 22.3271 21.4105 22.3184C21.4105 22.3271 21.5062 22.3938 21.4395 22.3387C21.4047 22.3097 21.3699 22.2778 21.338 22.2459C21.3061 22.214 21.2742 22.1792 21.2452 22.1444C21.2249 22.1183 21.193 22.0632 21.2655 22.1734C21.251 22.1531 21.2365 22.1328 21.222 22.1125C21.1698 22.0371 21.1263 21.9559 21.0886 21.8689L21.1321 21.9704C21.0799 21.8486 21.0451 21.721 21.0277 21.5905L21.0422 21.7036C21.0248 21.5731 21.0248 21.4455 21.0422 21.315L21.0277 21.4281C21.0451 21.2976 21.0799 21.17 21.1321 21.0482L21.0886 21.1497C21.1263 21.0656 21.1698 20.9844 21.222 20.9061C21.2278 20.8974 21.2568 20.8452 21.2655 20.8452C21.2568 20.8452 21.1901 20.9409 21.2452 20.8742C21.2742 20.8394 21.3061 20.8046 21.338 20.7727C21.3699 20.7408 21.4047 20.7089 21.4395 20.6799C21.4656 20.6596 21.5207 20.6277 21.4105 20.7002C21.4308 20.6857 21.4511 20.6712 21.4714 20.6567C21.5468 20.6045 21.628 20.561 21.715 20.5233L21.6135 20.5668C21.7353 20.5146 21.8629 20.4798 21.9934 20.4624L21.8803 20.4769C22.0108 20.4595 22.1384 20.4595 22.2689 20.4769L22.1558 20.4624C22.2863 20.4798 22.4139 20.5146 22.5357 20.5668L22.4342 20.5233C22.5183 20.561 22.5995 20.6045 22.6778 20.6567C22.6865 20.6625 22.7387 20.6915 22.7387 20.7002C22.7387 20.6915 22.643 20.6248 22.7097 20.6799C22.7445 20.7089 22.7793 20.7408 22.8112 20.7727C22.8431 20.8046 22.875 20.8394 22.904 20.8742C22.9243 20.9003 22.9562 20.9554 22.8837 20.8452C22.8982 20.8655 22.9127 20.8858 22.9272 20.9061C22.9794 20.9815 23.0229 21.0627 23.0606 21.1497L23.0171 21.0482C23.0693 21.17 23.1041 21.2976 23.1215 21.4281L23.107 21.315C23.1157 21.3788 23.1186 21.4426 23.1186 21.5093C23.1186 21.7297 23.3129 21.9414 23.542 21.9327C23.7711 21.924 23.9654 21.7471 23.9654 21.5093C23.9654 21.1352 23.8523 20.7466 23.6319 20.4421C23.3941 20.1115 23.0838 19.8737 22.7039 19.7316C21.9963 19.4677 21.1234 19.6997 20.6449 20.2855C20.3839 20.6045 20.2302 20.9728 20.1954 21.3846C20.1635 21.7587 20.2621 22.1589 20.4564 22.4808C20.6507 22.8027 20.9291 23.0637 21.2626 23.2145C21.6454 23.3885 22.0514 23.4378 22.4661 23.3595C23.194 23.2203 23.8175 22.5852 23.9306 21.8486C23.948 21.7384 23.9625 21.6253 23.9625 21.5151C23.9625 21.2947 23.7682 21.083 23.5391 21.0917C23.31 21.1004 23.1186 21.2773 23.1157 21.5151L23.1186 21.5093Z" fill="#002244"/>
    <path d="M22.681 15.602C22.4664 15.7992 22.2518 15.9964 22.0372 16.1907L20.4886 17.6059C19.8651 18.1772 19.2387 18.7485 18.6152 19.3198L16.997 20.7988C16.736 21.0366 16.4692 21.2715 16.214 21.5151C16.2111 21.518 16.2082 21.5209 16.2024 21.5238C16.04 21.6717 16.04 21.9704 16.2024 22.1212C16.3764 22.2807 16.6258 22.2807 16.7998 22.1212C17.0144 21.924 17.229 21.7268 17.4436 21.5325L18.9922 20.1173C19.6157 19.546 20.2421 18.9747 20.8656 18.4034L22.4838 16.9244C22.7448 16.6866 23.0116 16.4517 23.2668 16.2081C23.2697 16.2052 23.2726 16.2023 23.2784 16.1994C23.4408 16.0515 23.4408 15.7528 23.2784 15.602C23.1044 15.4425 22.855 15.4425 22.681 15.602Z" fill="#002244"/>
  </g>
  <defs>
    <clipPath id="clip0_418_13799">
      <rect width="29.5133" height="29" fill="white"/>
    </clipPath>
  </defs>
</svg>