<svg xmlns="http://www.w3.org/2000/svg" width="35" height="29" viewBox="0 0 35 29" fill="none">
  <g clip-path="url(#clip0_418_13488)">
    <path d="M24.7158 29H23.5621C23.2642 29 23.0233 28.7591 23.0233 28.4612V25.8989C22.3082 26.0135 21.5755 26.082 20.835 26.1028C18.6714 26.1636 16.5824 25.9804 14.6135 25.5587V25.6818C14.6135 27.5122 13.1249 29.0008 11.2946 29.0008H10.1408C9.84293 29.0008 9.60201 28.7598 9.60201 28.462V23.7983C8.13111 23.0302 6.88805 22.0965 5.90052 21.0174H2.17209C0.974441 21.0174 0 20.043 0 18.8453V14.8236C0 13.626 0.974441 12.6515 2.17209 12.6515H3.34589C3.77538 9.62123 5.46256 6.79643 8.15344 4.5974C6.77875 3.40359 5.55647 2.43608 4.51352 1.71718C4.2195 1.51398 3.52985 1.03908 3.8054 0.446406C4.11251 -0.213997 5.29169 -0.0823781 7.81862 0.46257C9.56738 0.839723 11.6363 1.38005 13.1203 1.78261C14.3788 1.31771 15.7011 0.983657 17.0535 0.789692C17.3052 0.753517 17.5476 0.89822 17.6354 1.1376L18.9777 4.78983C19.0293 4.93068 19.0201 5.08616 18.9523 5.21932L16.9565 9.14864L18.1488 14.7336L19.8182 10.2262C19.8521 10.1339 19.9114 10.053 19.9883 9.99146L22.837 7.72392V1.69024C22.837 1.52322 22.9148 1.36543 23.0471 1.26383C23.1795 1.16146 23.3519 1.12682 23.5136 1.16915C29.3564 2.70779 34.1716 7.35216 34.7127 11.9734C35.2831 16.8472 32.6699 21.6062 28.0363 24.1832V25.681C28.0363 27.5114 26.5477 29 24.7174 29H24.7158ZM24.1009 27.9224H24.7158C25.952 27.9224 26.9572 26.9172 26.9572 25.681V23.8622C26.9572 23.6621 27.0681 23.4789 27.2443 23.3858C31.6601 21.0567 34.1708 16.6263 33.6405 12.0981C33.4096 10.1285 32.252 8.04104 30.3808 6.2207C28.6098 4.49811 26.3345 3.15883 23.9131 2.40529V7.98254C23.9131 8.14649 23.8384 8.30197 23.7099 8.40434L20.775 10.7404L18.5136 16.8472C18.4305 17.0719 18.2096 17.2143 17.9694 17.1974C17.73 17.1805 17.5315 17.0073 17.4814 16.7725L15.862 9.18635C15.8366 9.06551 15.8527 8.94005 15.9082 8.82998L17.884 4.93992L16.7749 1.92192C15.5918 2.11973 14.4373 2.43146 13.3366 2.85018C13.2304 2.89097 13.1134 2.89636 13.0033 2.86634C9.14866 1.8157 6.78645 1.3077 5.56416 1.13837C6.66714 1.93193 7.93869 2.96487 9.3534 4.21563C9.47501 4.32262 9.54121 4.47887 9.53505 4.6405C9.52889 4.80214 9.44961 4.95223 9.3203 5.04998C6.42084 7.23055 4.65977 10.1392 4.35958 13.2411C4.33264 13.5175 4.10096 13.7284 3.8231 13.7284H2.17132C1.56788 13.7284 1.07681 14.2194 1.07681 14.8229V18.8446C1.07681 19.448 1.56788 19.9391 2.17132 19.9391H6.14067C6.29615 19.9391 6.44393 20.006 6.5463 20.123C7.52998 21.2468 8.82 22.2097 10.3802 22.9848C10.5634 23.0756 10.6796 23.2626 10.6796 23.4674V27.9224H11.2946C12.5307 27.9224 13.536 26.9172 13.536 25.681V24.8813C13.536 24.7158 13.6122 24.5596 13.7422 24.4572C13.8723 24.3548 14.0424 24.3187 14.2033 24.3579C16.2707 24.8659 18.4921 25.0899 20.805 25.0253C21.7079 24.9999 22.5999 24.899 23.4543 24.7243C23.6129 24.692 23.7776 24.7328 23.903 24.8351C24.0285 24.9375 24.1009 25.0907 24.1009 25.2523V27.9216V27.9224Z" fill="#002244"/>
  </g>
  <defs>
    <clipPath id="clip0_418_13488">
      <rect width="34.7889" height="29" fill="white"/>
    </clipPath>
  </defs>
</svg>