<svg xmlns="http://www.w3.org/2000/svg" width="17" height="29" viewBox="0 0 17 29" fill="none">
  <g clip-path="url(#clip0_410_12282)">
    <path d="M9.46864 21.8591C9.24536 22.0221 9.15297 22.3082 9.23766 22.5713L9.53151 23.4759L8.76417 22.9177C8.53833 22.7522 8.2355 22.7522 8.01222 22.9177L7.24231 23.4772L7.53616 22.5725C7.62085 22.3095 7.52846 22.0233 7.3039 21.8591L6.53527 21.3009H7.48611C7.76457 21.3009 8.00837 21.1238 8.09306 20.8595L8.38691 19.9548L8.68076 20.8595C8.76673 21.1238 9.01054 21.3009 9.28771 21.3009H10.2385L9.46864 21.8604V21.8591ZM11.4961 20.436C11.4011 20.3821 11.2933 20.3552 11.1817 20.3552H9.51098L8.99386 18.7666C8.90788 18.5023 8.66408 18.3252 8.38691 18.3252C8.10974 18.3252 7.86594 18.5023 7.77996 18.7666L7.26284 20.3552H5.59213C5.48178 20.3552 5.37271 20.3834 5.27775 20.4373C5.1212 20.5259 5.00828 20.6786 4.9685 20.8556C4.92873 21.0327 4.96722 21.2175 5.07116 21.3638C5.11222 21.4202 5.16226 21.4703 5.21744 21.5101L6.56864 22.4917L6.0528 24.0803C5.96682 24.3446 6.0605 24.6308 6.28505 24.7937C6.50961 24.9567 6.81116 24.9567 7.03572 24.7937L7.25001 24.6372C7.25001 24.6372 7.25771 24.6321 7.26156 24.6282L8.38691 23.8108L9.73811 24.7925C9.85103 24.8746 9.98191 24.9144 10.1141 24.9144C10.2462 24.9144 10.3771 24.8733 10.4888 24.7925C10.7133 24.6295 10.807 24.3421 10.721 24.079L10.2052 22.4904L11.5551 21.5101C11.6128 21.469 11.6616 21.419 11.7027 21.3625C11.8066 21.2162 11.8438 21.0314 11.8053 20.8544C11.7655 20.6773 11.6539 20.5246 11.4961 20.4348V20.436Z" fill="#002244"/>
    <path d="M15.8294 16.7546C15.7704 16.9688 15.6292 17.1498 15.429 17.2691C15.3944 17.2896 15.3636 17.314 15.3354 17.3423L14.7669 17.912C14.6591 17.7272 14.5436 17.5463 14.4204 17.3718V0.944425H14.8554C15.3918 0.944425 15.8294 1.35376 15.8294 1.85677V16.7546ZM8.3869 28.0556C4.83889 28.0556 1.95173 25.1684 1.95173 21.6204C1.95173 20.5836 2.1904 19.5942 2.66261 18.6793C3.36836 17.3089 4.54119 16.2349 5.96681 15.6561C6.52243 15.4303 7.10628 15.284 7.70425 15.2212C7.9288 15.1981 8.15849 15.1852 8.3869 15.1852C8.61531 15.1852 8.83345 15.1968 9.05288 15.2199C9.65854 15.2815 10.2488 15.429 10.8108 15.6574C12.2211 16.231 13.3862 17.2909 14.0932 18.6434C14.5706 19.5545 14.8221 20.5836 14.8221 21.6204C14.8221 25.1684 11.9349 28.0556 8.3869 28.0556ZM0.944425 16.7661V1.85677C0.944425 1.36018 1.37044 0.95469 1.89911 0.944425V17.6374C1.50646 17.3281 1.07274 16.947 0.944425 16.7661ZM11.2792 14.7117V0.944425H13.476V16.2759C12.8357 15.6664 12.0876 15.1724 11.2651 14.8246C11.2741 14.7887 11.2792 14.7515 11.2792 14.713V14.7117ZM6.16057 0.944425H10.3348V14.5013C9.94726 14.3961 9.55203 14.3204 9.1504 14.2793C8.63969 14.2267 8.11358 14.228 7.60544 14.2806C7.11398 14.3319 6.63022 14.4346 6.16057 14.5834V0.944425ZM2.84354 0.944425H5.21615V14.9555C4.30894 15.388 3.50181 15.9988 2.84354 16.7481V0.944425ZM16.7623 16.9124C16.77 16.879 16.7738 16.8444 16.7738 16.811V1.85677C16.7738 0.832788 15.9128 0 14.8554 0H1.91836C0.861018 0 0 0.832788 0 1.85677V16.8713C0 16.9047 0.00384956 16.9381 0.0102655 16.9714C0.0538938 17.1742 0.198894 17.45 0.950841 18.0839C1.1754 18.2738 1.4269 18.4702 1.63991 18.6254C1.22416 19.5622 1.00602 20.5887 1.00602 21.6204C1.00602 25.6894 4.31664 29 8.38562 29C12.4546 29 15.7652 25.6894 15.7652 21.6204C15.7652 20.6542 15.574 19.6918 15.2083 18.8051L15.9641 18.048C16.376 17.785 16.6583 17.3846 16.7623 16.9137V16.9124Z" fill="#002244"/>
    <path d="M8.38697 26.0358C5.95148 26.0358 3.97152 24.0546 3.97152 21.6204C3.97152 20.9428 4.12166 20.2935 4.41679 19.6892C4.83383 18.8346 5.52931 18.125 6.37621 17.69C6.82661 17.4577 7.30909 17.3076 7.8121 17.2421C7.99945 17.2177 8.19321 17.2049 8.38825 17.2049C8.58329 17.2049 8.76551 17.2165 8.95157 17.2408C9.45586 17.305 9.94091 17.4551 10.3952 17.6887C11.2356 18.1198 11.9298 18.823 12.3494 19.6686C12.651 20.2794 12.805 20.9364 12.805 21.6216C12.805 24.0571 10.8237 26.0371 8.38953 26.0371L8.38697 26.0358ZM10.8237 16.8456C10.272 16.5633 9.6817 16.3798 9.06834 16.3016C8.61024 16.2438 8.13418 16.2451 7.68763 16.3041C7.07812 16.3837 6.49042 16.5672 5.94378 16.8495C4.91852 17.3769 4.07418 18.2379 3.5686 19.2747C3.20931 20.0087 3.0271 20.7978 3.0271 21.6204C3.0271 24.5755 5.43179 26.9802 8.38697 26.9802C11.3421 26.9802 13.7468 24.5755 13.7468 21.6204C13.7468 20.7889 13.5608 19.9907 13.1938 19.249C12.6844 18.2225 11.8426 17.3692 10.8237 16.8469V16.8456Z" fill="#002244"/>
  </g>
  <defs>
    <clipPath id="clip0_410_12282">
      <rect width="16.7738" height="29" fill="white"/>
    </clipPath>
  </defs>
</svg>